<?xml version="1.0" encoding="UTF-8"?>
<svg id="Layer_2" data-name="Layer 2" xmlns="http://www.w3.org/2000/svg" xmlns:xlink="http://www.w3.org/1999/xlink" viewBox="0 0 190.23 165.92">
  <defs>
    <style>
      .cls-1 {
        fill: #609d9f;
      }

      .cls-1, .cls-2 {
        stroke-width: 0px;
      }

      .cls-3 {
        clip-path: url(#clippath);
      }

      .cls-2 {
        fill: none;
      }

      .cls-4 {
        clip-path: url(#clippath-1);
      }

      .cls-5 {
        clip-path: url(#clippath-3);
      }

      .cls-6 {
        clip-path: url(#clippath-2);
      }
    </style>
    <clipPath id="clippath">
      <rect class="cls-2" y="25.24" width="189.91" height="114.67"/>
    </clipPath>
    <clipPath id="clippath-1">
      <rect class="cls-2" x="110.11" width="30.67" height="29.24"/>
    </clipPath>
    <clipPath id="clippath-2">
      <rect class="cls-2" x="78.11" y="154.57" width="36" height="11.34"/>
    </clipPath>
    <clipPath id="clippath-3">
      <rect class="cls-2" x="79.44" y="159.91" width="14.67" height="6.01"/>
    </clipPath>
  </defs>
  <g id="Layer_1-2" data-name="Layer 1">
    <g>
      <g class="cls-3">
        <path class="cls-1" d="M133.04,84.65v-12.63c-2.02,1.59-3.68,2.88-5.33,4.1-.86.68-1.72,1.35-2.64,1.78-.49.24-1.23.06-1.9.06.36-.55.61-1.22,1.1-1.59,1.9-1.41,3.8-2.82,5.82-4.04,2.7-1.59,3.8-3.86,3.25-7.23-3.31,1.71-5.09,5.45-8.71,6.56-.18-.18-.36-.37-.55-.49.37-.55.68-1.29,1.17-1.72,1.96-1.59,4.05-3.13,6.13-4.54,1.66-1.16,2.76-2.45,2.52-4.66-.13-.98.24-1.96.49-3.62-2.45,2.39-4.47,4.42-6.56,6.26-.36.36-1.16.18-1.78.24.06-.61-.12-1.47.18-1.78,2.45-2.27,5.03-4.42,7.54-6.56,1.41-1.22,1.17-2.57.49-4.41-1.71,1.78-3.24,3.43-4.84,5.09-1.1-1.59-.49-2.7.68-3.86,1.59-1.66,3.86-2.94,3.98-5.76,0-.43,1.04-.92,1.66-1.1.37-.06.98.43,1.29.85,1.29,1.72,2.52,3.49,3.68,5.34.31.49.24,1.16.37,1.78-.68-.18-1.47-.18-1.96-.55-.67-.49-1.16-1.29-1.9-2.15-1.22,4.96,0,7.42,4.66,10.11.55.31,1.22.92,1.29,1.47.06.49-.67,1.04-.86,1.29-2.08-1.59-3.92-3.07-6.01-4.72-.68,3.13.8,4.84,2.39,6.38,1.66,1.59,3.61,2.88,5.33,4.41.43.37.49,1.17.8,1.9-1.53.24-1.96-.18-2.82-1.22-1.54-1.9-3.8-3.19-6.07-4.97-.24.92-.67,1.53-.49,1.78,1.17,1.78,2.21,3.68,3.74,5.21s3.43,2.39,5.09,3.74c.37.31.24,1.1.37,1.72-.61-.13-1.35,0-1.78-.31-2.39-1.72-4.66-3.49-6.99-5.21-.3.13-.55.31-.85.43v4.6c0,2.02-.13,4.04.06,6.07.06.49,1.17,1.35,1.59,1.29,6.19-1.17,12.32-2.39,18.52-3.68,1.23-.24,2.45-.73,4.05-1.17v-6.38c-3.49-.61-6.8-.98-10.05-1.78-.8-.19-1.54-1.66-1.78-2.64-.73-3.49,1.1-6.49,1.96-9.68,1.41-5.28,2.64-10.55,4.29-15.76,1.22-3.86,2.94-7.54,4.66-11.22.85-1.9,2.82-2.51,4.78-2.15,2.2.37,2.88,2.52,3.55,4.17,2.58,6.44,3.8,13.18,3.74,20.17,0,3.8.49,7.66.8,11.52,3.62-.67,6.93-5.03,6.26-8.46-.98.73-1.78,1.35-2.64,1.9-.31.18-.92.31-1.17.12-.24-.18-.36-.92-.24-1.1,1.59-1.66,3.19-3.19,4.84-4.84,1.59,1.66,2.94,3.06,4.29,4.47-.06.13-.12.31-.24.43-.8-.12-1.59-.18-2.33-.3-1.54,4.41,3.43,5.64,4.47,8.89-.18.19-.31.37-.49.55-.68-.43-1.47-.73-2.03-1.35-.55-.61-.92-1.47-1.35-2.27-.36.31-.8.61-1.16.92.49.92.8,2.15,1.53,2.7,1.59,1.29,3.49,2.15,5.15,3.38.61.43.86,1.35,1.29,2.02-.67-.06-1.41,0-2.02-.31-1.66-.8-3.25-1.78-5.46-3.01,0,3.86-.06,7.11.06,10.36.06.61.98,1.41,1.66,1.78,2.02,1.23,4.23,2.21,6.25,3.49.92.61,1.59,1.66,2.39,2.57-2.15,1.47-3.13,1.05-5.09-.67-3.19-2.76-6.86-4.91-11.4-5.15,5.21,4.6,10.42,9.14,15.82,13.85-1.47,1.05-2.39,1.41-3.31-.18-.43-.73-1.16-1.29-1.78-1.84-4.6-4.11-9.2-8.21-13.92-12.2-.61-.55-1.78-.49-2.64-.74-.19.31-.31.55-.49.86,1.78,1.66,3.68,3.25,5.4,5.03,3.31,3.31,6.56,6.68,9.87,10.06.8.8,1.72,1.53,2.52,2.39.43.49,1.04,1.22.98,1.71-.06.49-.92.86-1.53,1.35-5.76-7.72-12.99-13.61-19.8-19.86-1.29-1.17-2.52-1.17-4.41-.43,2.76,2.94,5.33,5.64,7.84,8.4,4.66,5.15,9.32,10.36,13.92,15.57.55.61,1.23,1.04,1.72,1.71,1.17,1.41.8,2.27-.55,2.58-2.52-3.01-4.84-5.89-7.3-8.53-3.06-3.37-6.25-6.56-9.38-9.87-2.64-2.76-5.21-5.58-7.91-8.21-.61-.61-1.59-.8-2.45-1.17-.18.24-.43.49-.61.74,1.59,2.15,3.13,4.41,4.84,6.44,5.77,6.68,11.65,13.18,17.47,19.86,1.71,1.96,3.19,4.17,4.78,6.26-.24.24-.43.55-.67.8-.68-.31-1.6-.49-2.03-1.04-3.43-4.11-6.68-8.34-10.11-12.45-5.46-6.49-10.97-12.93-16.43-19.43-1.16-1.35-1.1-1.35-3.55-.24.67,3.25,3.19,5.33,5.15,7.72,3.38,4.11,6.87,8.09,10.3,12.08,4.35,5.09,8.7,10.18,13.06,15.33.67.73,1.17,1.65,1.72,2.45-.06.24-.13.43-.24.67-.68-.13-1.47,0-1.9-.43-.92-.8-1.59-1.84-2.39-2.82-3.56-4.35-7.11-8.77-10.73-13.12-3.44-4.23-6.93-8.4-10.36-12.63-1.84-2.27-3.68-4.54-5.58-6.68-.61-.67-1.47-1.47-2.27-1.53-.92-.06-2.03.37-2.7.98-.31.31.12,1.72.55,2.33,2.64,3.37,5.33,6.68,8.09,9.93,2.33,2.76,4.84,5.39,7.23,8.09,3.44,3.74,6.81,7.54,10.24,11.28,2.03,2.21,4.05,4.47,6.19,6.81-.55.43-1.04.8-1.78,1.35-2.27-2.7-4.42-5.4-6.63-8.03l-22.25-25.75c-1.59-1.84-3.31-3.62-5.15-5.27-1.23-1.1-2.45-.24-4.17.61,2.09,2.21,3.93,4.17,5.77,6.19,3.56,3.93,6.99,7.91,10.54,11.83,5.09,5.64,10.12,11.34,15.27,16.92,1.66,1.78,3.56,3.31,5.28,4.96.73.73,2.02,1.53.43,2.76-2.45-.24-3.19-2.52-4.54-3.98-7.72-8.58-15.27-17.23-22.99-25.81-3.56-3.98-7.36-7.79-10.97-11.77-1.1-1.22-2.27-1.22-4.29-.73,1.9,2.52,3.49,4.84,5.27,6.93,5.64,6.56,11.34,13,16.98,19.43,4.6,5.21,9.19,10.43,13.79,15.57.55.61,1.47.8,2.21,1.17.61.31,1.29.49,1.9.73-.18.43-.31,1.1-.61,1.23-.73.3-1.59.67-2.33.49-2.64-.74-5.15-1.78-7.79-2.45-6.31-1.53-12.57-3.19-18.94-4.17-2.82-.43-5.33-1.71-8.16-2.08-3.74-.55-7.35-1.59-11.09-2.39-2.58-.55-5.28-1.84-7.72-1.47-4.78.67-8.95-1.78-13.61-1.72-5.03.13-10.05-.12-14.96,1.29-1.41.43-2.64,1.41-4.41,2.39-1.23-.92-2.57,0-4.05,1.35-.55.55-1.59.49-2.33.92-1.66.8-2.89,2.39-4.97,2.45-.31,0-.98.61-.92.8.67,2.76-1.54,1.71-2.64,2.08-.86.24-1.72.61-2.58.92-.31.12-.55.55-.8.55-2.21-.3-3.06.86-3.31,2.89,0,.24-.25.49-.49.92-1.41-1.78-2.7-1.16-3.92,0-1.1,1.04-3.25.68-3.56,2.76,0,.06-.24.13-.36.18-5.46.43-10.79,2.82-16.31.61-1.9-.73-3.86-1.9-5.83-1.96-2.39-.06-3.55-1.71-5.15-2.82-.49-.37-1.23-.43-1.84-.68-1.22-.43-1.59-1.16-.67-2.33.98.24,1.96.49,3.43.86-1.22-2.52-2.21-4.66-3.25-6.74-3.55-7.3-6.99-14.71-10.79-21.89-.8-1.47-2.82-2.33-4.42-3.19-.86-.49-3.31-4.35-2.82-5.46.06-.12,1.22.31,2.08.49.43-6.31,1.04-12.51,1.29-18.7.13-3.19-.24-6.38-.49-9.56-.06-.49-.61-.98-1.35-1.22v9.68c0,5.15.12,10.3.06,15.45,0,.73-.49,1.41-.98,2.7-1.1-9.38.8-18.09-.73-26.85-1.41.31-2.57.55-3.74.8,0-1.41,2.21-2.88,7.66-4.72,3.07-1.04,6.26-1.65,9.51-2.51-.06-1.23-.13-2.39-.24-4.11-1.17.73-2.03,1.35-2.88,1.78-.49.24-1.1.18-1.66.3.18-.67.12-1.53.49-1.9.86-.74,1.96-1.23,3.01-1.72,1.41-.68,1.22-1.53.55-2.82-1.54.73-2.94,1.47-4.35,2.2-.18-.18-.31-.43-.49-.61,1.16-.98,2.21-2.03,3.43-2.82,1.53-1.04,1.96-2.21.98-4.11-1.16,1.05-2.2,2.03-3.31,3.01-.19-.12-.43-.31-.61-.43.55-.92,1.04-1.9,1.59-2.76.73-1.17,1.41-2.39,2.39-3.31.49-.49,1.59-.73,2.21-.49,1.29.49,2.21,3.56,1.78,5.28-.61-.43-1.1-.8-1.9-1.35.43,3.37,3.38,4.72,4.97,6.86-2.76,2.45-2.45-2.45-4.91-1.29.31.55.61,1.29,1.17,1.84,1.41,1.35,2.94,2.57,4.41,3.8-.18.31-.36.55-.61.86-1.41-.8-2.76-1.54-4.66-2.58.18,1.66.37,2.82.43,3.8,3.38-.18,6.38-.43,9.44-.43,1.66,0,2.02-.74,1.84-2.15-.06-.68-.12-1.29-.18-1.96q-.13-3.43-3.38-3.19c-2.45.18-3.86-.73-3.8-3.19.06-3.38.31-6.81,1.04-10.11.61-2.89,1.96-5.58,3.19-8.34.49-1.04,1.29-2.09,2.21-2.76,1.29-.98,2.82-.8,3.49.73,1.1,2.64,2.08,5.4,2.88,8.16.61,2.21.86,4.54,1.22,6.8,4.78-1.96,6.32-4.05,5.46-8.28-.55,1.66-1.29,2.89-1.96,4.11-.43-.24-.8-.55-1.22-.8.24-.73.31-1.53.67-2.15.73-1.22,1.66-2.33,2.58-3.43.43-.55,1.04-1.23,1.53-1.23s1.04.8,1.41,1.29c.55.73,1.1,1.53,1.47,2.39.24.49.13,1.1.13,1.65-.24.13-.49.19-.74.31-.31-.49-.61-.92-.92-1.47-1.53,4.54,2.02,6.44,4.66,8.83l-.55.55c-1.47-.68-2.88-1.35-4.35-1.96-1.23,3.31-1.1,3.19,1.59,4.6,1.71.92,3.06,2.45,4.47,3.86.24.25-.06,1.05-.13,1.59-.49-.12-1.16-.06-1.53-.3-1.53-1.29-3.01-2.64-4.54-4.05-1.29,2.33-1.04,3.74.55,5.03,1.96,1.53,3.92,3.13,6.13,4.91-.31.43-.61.85-.92,1.29-1.84-1.72-3.68-3.19-5.52-4.66-.24.13-.49.19-.67.31,0,2.76-.06,5.52.06,8.28,0,.49.73,1.04,1.22,1.47,3.98,3.55,7.97,7.11,12.02,10.67,1.41,1.22,2.82,2.51,4.6,4.05.31-1.04.55-1.84.73-2.58.98-3.31,1.72-6.74,3.07-9.87.55-1.35,2.45-2.57,3.92-2.82.86-.13,2.52,1.53,3.07,2.7,1.22,2.64,2.2,5.45,2.82,8.28.92,3.92,1.53,7.97,2.21,12.02.43,2.64.98,3.06,3.43,2.08,1.96-.8,3.8-2.02,5.76-2.82,2.33-.98,4.79-1.59,7.18-2.45,9.07-3.25,18.02-2.21,26.79,1.16,4.11,1.59,7.79,1.04,11.65-.3ZM72.04,98.02c.24.18.43.43.67.61-.36.49-.8.92-1.16,1.41-.61.8-1.59,1.47-1.78,2.33-.49,2.76-.8,5.58-.98,8.4,0,.43.92,1.29,1.41,1.29,2.02,0,4.05-.37,6.07-.43,2.03-.06,2.64-1.04,2.39-2.94-.61-5.03-.98-10.11-1.78-15.15-1.29-7.72-2.88-15.39-4.42-23.11-.18-.98-.61-1.9-1.1-2.82-.73-1.35-1.9-1.71-2.94-.36-.8,1.04-1.65,2.27-1.96,3.55-1.04,4.23-1.96,8.52-2.82,12.81-.12.74.13,1.59.43,2.33.55,1.29,1.35,2.39,1.84,3.68.24.61.12,1.35.12,2.08-.18,0-.36.06-.55.06-.8-1.47-1.59-2.94-2.51-4.6-.31.43-.49.61-.55.73-1.35,6.38-2.82,12.76-3.98,19.19-.8,4.47-.55,4.59,3.8,4.29q3.8-.24,4.04-3.93c.37-5.45.8-10.85,1.1-16.31.06-1.35.68-2.27,2.03-1.66.49.25.92,1.35.92,2.09-.06,2.64-.36,5.27-.55,8.21,1.04-.73,1.66-1.29,2.27-1.78ZM154.56,48.97c.24-.13.49-.24.8-.37,1.41,2.27,2.82,4.6,4.23,6.87.18-.06.43-.13.61-.19.19-2.15.43-4.29.43-6.44.06-2.51-.13-5.09-.18-7.6-.06-1.29.43-1.78,1.96-1.23v16.06c1.17-1.04,2.08-1.9,3.13-2.64.43-.31.98-.43,1.47-.61.06,0,.37.55.31.68-.31.43-.68.73-1.04,1.17-1.41,1.47-3.62,2.76-4.05,4.54-.73,2.88-.31,6.01-.31,9.07,0,.31.73.92,1.1.92,1.17.06,2.39.13,3.49-.18,2.76-.86,2.82-.37,2.64-3.49-.24-4.78-.92-9.51-.73-14.29.18-5.82-1.53-11.09-3.74-16.31-.55-1.29-1.78-2.2-2.7-3.31-1.1,1.04-2.7,1.9-3.31,3.25-1.41,2.94-2.51,6.01-3.37,9.13-1.72,6.13-3.25,12.32-4.84,18.52-1.72,6.56-1.59,6.74,5.03,7.91.31.06.55.06.86.06,2.57,0,3.43-.8,3.43-3.37.06-2.64.06-5.27.06-7.85,0-.55-.18-1.1-.49-1.53-1.59-2.52-3.19-4.91-4.78-7.42-.19-.49,0-.98,0-1.35ZM163.63,128.11c-1.41-1.84-2.58-3.43-3.86-4.96-9.56-11.16-19.19-22.26-28.81-33.35-1.84-2.15-2.76-2.2-6.01-.55,1.47,2.15,2.7,4.42,4.35,6.32,5.21,5.76,10.6,11.28,15.82,16.98,3.56,3.93,6.86,8.03,10.24,12.08,2.08,2.45,4.54,3.8,8.28,3.49ZM116.67,90.96c2.58,2.57,4.72,4.66,6.81,6.86,7.29,7.79,14.53,15.64,21.89,23.36,2.33,2.39,4.72,4.96,8.95,5.03-9.87-13.24-21.45-24.58-32.06-36.54-1.71.43-3.37.8-5.58,1.29ZM31.94,105.25v-8.22c-.13-8.52-.19-17.1-.31-25.63-.06-3.19,0-6.31-.24-9.5-.06-.61-1.1-1.17-1.72-1.72-.49.67-1.22,1.29-1.35,2.08-.24,1.04.06,2.15,0,3.25-.12,4.91-.36,9.87-.36,14.78,0,5.21.24,10.42.3,15.63.06,2.64-.06,5.33-.06,7.97-.06,1.53.55,2.2,2.15,1.71.43-.24.92-.24,1.59-.36ZM23.72,105.92c3.44.31,3.38.31,3.44-2.45.06-9.5.12-18.94.18-28.45,0-4.23-.18-8.4-.24-12.63,0-1.54-.86-2.27-2.21-1.84-.55.18-1.17,1.22-1.22,1.96-.19,1.59-.06,3.19-.06,4.78.06,8.95.12,17.9.18,26.85-.06,3.86-.06,7.79-.06,11.77ZM170.43,73.68c-.12-.25-.24-.49-.43-.74,1.1-.8,2.15-1.53,3.25-2.33,4.9-3.62,5.21-2.02,4.41-6.93-2.15,1.59-4.47,2.94-6.19,4.78-1.29,1.35-2.45,2.15-4.23,2.27-1.47.12-2.88.24-4.29.55-.55.13-1.35.74-1.41,1.23-.12,2.15-.06,4.29-.06,6.56h16.49v-9.5c-2.82,1.35-4.6,3.86-7.54,4.11ZM33.05,104.2c.36.19.73.37,1.04.55.55-.61,1.47-1.22,1.53-1.9.24-4.1.24-8.28.43-12.38.19-5.64.49-11.34.68-16.98.12-3.86,0-7.79,0-11.58-3.86-1.23-3.8-1.23-3.74,2.27,0,.13-.06.31-.06.43-.12,5.95-.24,11.9-.31,17.84,0,1.96.37,3.92.43,5.82.06,5.33,0,10.67,0,15.94ZM106.73,93.91c2.39,2.64,4.72,5.15,6.99,7.72,5.09,5.77,10.18,11.53,15.15,17.41,2.15,2.52,4.96,2.76,8.21,3.31-3.13-3.56-5.95-6.74-8.77-9.93-4.91-5.64-9.93-11.16-14.71-16.86-2.82-3.31-2.7-3.43-6.87-1.66ZM35.8,48.23c-.43-3.25-.8-6.38-1.35-9.51-.49-2.76-1.16-5.52-1.9-8.28-.55-2.08-1.47-2.33-2.94-.73-.3.36-.67.8-.85,1.22-1.04,3.31-2.21,6.56-3.07,9.93-.49,1.96-.37,4.05-.49,6.07-.06,1.29.49,1.96,1.96,1.96,2.51,0,2.76-.12,2.82-2.76,0-.67.55-1.35.8-2.02.43.61,1.1,1.22,1.17,1.9.43,2.15,1.53,2.7,3.86,2.21ZM79.39,92.31c0,.37-.06.61,0,.8,3.74,6.01,7.42,12.08,11.28,18.03,2.08,3.13,4.72,5.7,9.07,4.9-.85-1.47-1.59-2.94-2.57-4.41-3.92-5.95-7.91-11.9-11.95-17.84-.24-.3-.61-.67-.98-.73-1.47-.31-3.13-.49-4.84-.73ZM15.02,62.64c.24,2.21.61,4.23.61,6.19-.06,6.31-.24,12.57-.37,18.88-.06,3.68-.06,7.42-.06,11.1,0,2.7,1.35,4.35,3.98,5.33.06-.55.19-.92.19-1.35-.13-9.63-.24-19.31-.49-28.94-.13-3.93-.61-7.85-.92-11.95-1.22.24-1.9.43-2.94.73ZM19.19,61.29c0,1.78-.06,3.49,0,5.27.13,3.25.49,6.5.55,9.69.19,9.07.37,18.15.43,27.16,0,1.84.92,2.27,2.51,2.39v-1.65c0-7.85-.06-15.7-.12-23.54-.06-5.77-.06-11.59-.31-17.35,0-2.57-.61-2.82-3.07-1.96ZM93.68,94.09c2.27,3.01,4.29,5.52,6.19,8.16,3.31,4.47,6.56,9.01,9.87,13.48,1.72,2.33,3.13,2.7,6.13,1.84-.86-1.54-1.53-3.13-2.51-4.54-3.93-5.39-7.85-10.72-11.9-16-1.72-2.27-4.11-3.37-7.79-2.94ZM114.7,91.76c-.18.12-.43.24-.61.37.12.43.12.92.43,1.22,3.86,4.91,7.67,9.93,11.77,14.65,4.47,5.09,9.26,9.93,13.98,14.78,1.17,1.17,2.82,1.66,4.96,1.29-10.11-11.28-19.37-22.68-30.53-32.31ZM38.07,62.76c-.49,13.49-.98,26.85-1.47,40.22.19.18.37.37.61.55.98-.49,2.64-.8,2.82-1.53.43-1.66.13-3.49.19-5.28.12-5.7.36-11.34.43-17.04.06-4.78.06-9.56,0-14.34,0-1.41-.61-2.45-2.57-2.58ZM126.97,120.02c-2.21-2.57-4.17-5.03-6.26-7.35-5.21-5.82-10.42-11.59-15.64-17.35-.73-.8-1.53-1.84-2.82-.61,2.08,2.88,4.17,5.7,6.19,8.58,2.76,3.86,5.7,7.54,8.28,11.53,2.45,4.05,5.33,5.76,10.24,5.21ZM13.43,100.46c.24-.12.55-.24.8-.36v-2.82c-.13-10.85,1.29-21.76-.43-32.55-.13-.68-.8-1.22-1.23-1.78-.43.61-1.22,1.22-1.29,1.84-.18,6.07-.31,12.14-.18,18.15.12,4.78.55,9.5.98,14.29.12,1.1.86,2.2,1.35,3.24ZM63.94,128.05c1.59-.61,2.76-1.16,1.78-2.88-2.51-4.23-4.1-9.14-8.83-11.77-.3-.18-.49-.8-.43-1.17.31-2.57-1.04-4.59-2.27-6.56-2.82-4.6-2.76-5.09-6.74-3.01,5.52,8.46,10.97,16.92,16.49,25.38ZM42.12,65.34c.31,12.38-2.15,24.52-.49,36.78,1.47-.55,2.51-.8,2.45-3.01-.18-5.58.31-11.16.43-16.73.12-4.35.12-8.7.06-13.06-.06-1.59-.25-3.25-2.45-3.98ZM30.53,107.15c-.18.25-.43.49-.61.74.37.8.61,1.71,1.04,2.45,1.66,2.69,3.44,5.39,5.03,8.09,3.24,5.33,6.38,10.73,9.63,16.06,1.41,2.33,1.47,2.27,3.92.55-1.47-2.45-2.88-4.96-4.42-7.42-3.98-6.38-7.97-12.75-12.07-19.07-.43-.73-1.66-.98-2.52-1.41ZM87.73,93.66c.37.67.55,1.22.86,1.66,4.11,6.13,8.21,12.26,12.32,18.39,1.59,2.39,3.68,3.49,6.99,3.06-2.57-3.61-4.91-6.86-7.23-10.17-2.21-3.13-4.54-6.19-6.56-9.44-1.53-2.45-3.61-3.93-6.38-3.49ZM39.48,104.57c-.31.13-.55.31-.86.43.24.86.24,1.78.67,2.52,3.8,6.13,7.54,12.26,11.41,18.39,1.29,2.03,2.57,4.05,3.98,5.95.31.37,1.35.55,1.9.37.36-.13.67-1.29.49-1.72-1.47-2.82-3.01-5.64-4.72-8.34-3.06-4.78-6.25-9.5-9.5-14.16-.92-1.29-2.21-2.27-3.37-3.43ZM44.2,136.64c-.92-1.47-1.84-2.94-2.7-4.41-4.47-7.6-8.95-15.2-13.36-22.81-.73-1.22-1.66-1.41-3.07-.73,1.29,2.2,2.52,4.29,3.68,6.44,3.68,6.62,7.42,13.18,11.03,19.86.98,1.78,2.03,2.89,4.42,1.66ZM14.47,104.88c.55,1.29.98,2.21,1.41,3.06,3.49,6.99,6.93,13.98,10.6,20.85,1.1,2.08,1.17,5.52,5.15,5.45-.37-1.16-.61-2.27-1.1-3.25-3.61-7.35-7.3-14.71-10.97-22.07-1.04-1.96-2.33-3.49-5.09-4.05ZM36.48,57.73c-.13-.31-.31-.55-.43-.86,1.29-.86,2.58-1.71,3.86-2.57,2.88-1.84,3.01-2.15,2.33-6.13-1.53,1.29-2.94,2.51-4.41,3.61-.98.8-2.08,1.78-2.89-.31-.12-.36-1.1-.55-1.65-.49-.37.06-.92.74-.92,1.1.06,2.03.24,4.05.37,5.95,3.31,1.22,6.49,2.39,10.18,3.74,0-1.59.06-2.88,0-4.17-.06-.86-.31-1.78-.49-2.64-.8.43-1.66.8-2.45,1.17-1.23.61-2.39,1.1-3.49,1.59ZM45,103.22c-.98.37-1.72.68-2.57.98,5.89,8.77,11.65,17.41,17.53,26.18.61-.49,1.17-.98,1.9-1.59-5.64-8.53-11.16-16.92-16.86-25.57ZM46.72,68.09c-.31.06-.61.06-.98.13-.24,10.73-.92,21.46-.24,32.24,1.78.06,2.76-.06,2.7-1.9-.24-7.6-.24-15.27-.49-22.87-.06-2.57-.61-5.09-.98-7.6ZM49.54,99.24c1.96-.13,2.7-.86,2.57-2.64-.18-2.94-.12-5.95-.12-8.89,0-4.47.06-9.01,0-13.49,0-1.78-1.1-2.76-3.19-3.31.24,9.63.49,18.88.73,28.32ZM9.75,64.48h-1.1c-.24,10.54-.49,21.03-.73,31.69.85.55,1.78,1.17,3.19,2.09-.86-11.59-.55-22.74-1.35-33.78ZM80.62,99.24c-.18.06-.37.13-.55.24.18,1.96.43,3.92.61,5.95.06.49.06,1.04.36,1.47,1.66,2.58,3.56,5.03,5.09,7.67,1.66,2.94,2.94,3.37,5.7,1.66-3.74-5.77-7.48-11.34-11.22-16.98ZM22.44,108.19c-.24.12-.43.18-.67.3.18.61.31,1.29.55,1.9,1.78,3.49,3.61,6.93,5.33,10.42,2.21,4.48,4.29,9.02,6.38,13.55.8,1.78,2.21,2.15,4.41,2.02-5.7-9.5-10.11-19.25-16-28.2ZM58.18,97.89c.18-2.82.31-5.52.49-8.28.12-2.52.49-5.09.31-7.6-.13-1.41-1.23-2.7-1.9-4.05-.37.13-.8.25-1.17.31,0,5.64.06,11.28-.06,16.92-.06,1.96.8,2.64,2.33,2.7ZM35.74,105.98c-.25.18-.49.36-.8.55.61,1.41,1.05,2.94,1.9,4.29,4.6,7.11,9.57,13.97,13.49,21.52.43.8,1.47,1.17,2.27,1.78-.25-.86-.31-1.9-.74-2.64-3.98-6.56-8.09-12.99-12.14-19.49-1.29-2.02-2.64-3.98-3.98-6.01ZM53.58,97.89h.92c.06-.55.24-1.04.24-1.59.06-1.9,0-3.8,0-5.64.13-4.29.31-8.52.31-12.81,0-.92-.61-1.9-.92-2.82-.24.06-.49.19-.73.25-.74,7.54-.49,15.08.18,22.62ZM69.65,114.51c0,.92-.31,1.9.06,2.52,1.1,2.02,2.39,3.92,3.74,6.07.67-.24,1.47-.55,2.2-.86-.61-3.86-3.8-8.09-6.01-7.72ZM81.78,110.95c-.24.06-.49.06-.73.13-.43,1.04-1.41,2.27-1.16,3.19.36,1.59,1.53,3.06,2.39,4.6,1.22-.37,2.33-.74,3.8-1.17-1.53-2.33-2.88-4.54-4.29-6.74ZM37.7,44.86c.06.8,0,1.72.31,2.52.13.36,1.1.92,1.47.73,3.06-1.22,4.04-3.31,3.19-6.99-1.72,1.35-3.31,2.52-4.97,3.74ZM73.88,113.77c1.22,2.27,2.21,4.29,3.37,6.13.25.36,1.23.43,1.78.36.43-.06,1.04-.67,1.04-1.04.06-2.27-3.19-5.33-6.19-5.45ZM65.6,120.45l.73-.19c-.24-1.9-.24-3.92-.8-5.7-.18-.55-1.84-.68-2.82-.98,0,.74-.31,1.66,0,2.21.8,1.66,1.9,3.13,2.88,4.66ZM104.96,91.52c.43,0,.92,0,1.35-.06,0-2.21,0-4.41-.06-6.62,0-.31-.43-.86-.73-.86-.24-.06-.92.37-.92.61.13,2.27.24,4.6.37,6.93ZM56.71,105.74c.49-2.15.92-3.74,1.35-5.58-1.59.36-2.76.61-4.29.92.92,1.53,1.78,2.82,2.94,4.66ZM103.24,84.46c-1.9,1.66-1.59,5.58.55,7.72-.24-2.88-.43-5.33-.55-7.72ZM68.05,125.42c3.98-1.16,3.61-1.96.61-5.89,0,.98.06,1.9,0,2.88-.13.92-.43,1.84-.61,3.01ZM100.18,84.71c-1.59,3.38-1.04,6.68.98,6.99-.31-2.27-.61-4.35-.98-6.99ZM107.66,84.1v6.38c1.71-.37,1.9-3.93,0-6.38ZM110.54,90.1c1.47-2.08,1.1-5.15,0-5.64v5.64ZM60.39,87.04c.13.06.31.06.43.12.49-1.17,1.04-2.27,1.41-3.49.06-.31-.37-.73-.61-1.1-.31.19-.92.37-.92.61-.24,1.22-.24,2.57-.31,3.86ZM97.54,91.39c.3-.06.61-.06.92-.12-.18-1.78-.36-3.62-.55-5.4-.31.06-.61.06-.98.12.18,1.78.43,3.56.61,5.4ZM95.58,85.75c-2.15,1.96-.43,3.49,0,5.03v-5.03ZM116.79,89.61c.12-1.35.24-2.21.18-3.01,0-.31-.37-.67-.67-.92-.13-.06-.61.12-.68.3-.49,1.17-.61,2.33,1.17,3.62ZM113.11,89.68c.25,0,.49,0,.68-.06v-4.17h-.68v4.23ZM92.08,91.08h1.04c.06-1.35.13-2.64.18-3.98-.3,0-.67,0-.98-.06-.12,1.41-.18,2.76-.24,4.04Z"/>
      </g>
      <g class="cls-4">
        <path class="cls-1" d="M139.47,16.05c-.18,7.91-5.33,12.44-14.04,12.63-9.93.24-14.71-7.11-14.41-15.45.24-6.62,6.93-13.06,13.43-12.99,7.6.12,15.45,8.34,15.02,15.82ZM135.73,14.39c.18-.06.37-.13.55-.18-.68-2.08-.73-4.84-2.15-6.07-2.33-2.08-5.33-3.8-8.34-4.72-4.11-1.29-6.74,1.66-8.95,4.72-4.04,5.77-3.37,12.39,1.72,15.94,3.74,2.64,10.24,3.19,13.73-.37,2.64-2.64,3.61-5.7,3.43-9.32Z"/>
      </g>
      <path class="cls-1" d="M33.35,141.79c3.13.67,5.77,1.35,8.4,1.72,4.54.55,8.52-1.41,12.51-3.19,5.95-2.64,11.71-5.58,17.6-8.46,6.07-2.94,12.07-5.82,18.08-8.77l.61.61c-.37.43-.61,1.1-1.1,1.29-5.09,2.39-10.24,4.72-15.33,7.11-1.84.86-3.68,1.78-5.46,2.64-3.92,1.84-7.84,3.68-11.71,5.64-4.35,2.21-8.7,4.6-13.73,4.84-2.82.18-5.64-.06-8.09-1.78-.55-.43-.98-.92-1.78-1.66Z"/>
      <path class="cls-1" d="M114.89,133.14c-.55.74-.92,1.23-1.23,1.72-4.9-3.01-10.23-3.92-15.69-4.97-5.76-1.04-10.67,1.1-15.57,3.19-2.94,1.22-5.64,2.94-8.46,4.35-.86.43-1.9.55-2.82.8-.06-.24-.12-.55-.24-.8,3.62-1.78,7.23-3.68,10.91-5.4,3.01-1.35,6.14-2.57,9.26-3.68,1.22-.43,2.76-.55,4.05-.31,5.15,1.04,10.3,2.27,15.45,3.49,1.35.49,2.7,1.04,4.35,1.59Z"/>
      <g class="cls-6">
        <path class="cls-1" d="M113.48,163.61c-.49.8-.8,1.35-1.1,1.9-10.05-8.03-20.91-11.22-33.29-6.31-.13-.18-.31-.37-.43-.61.43-.55.8-1.41,1.41-1.53,2.08-.55,4.23-.98,6.38-1.29,5.7-.86,11.22-.68,16.37,2.27,3.37,1.96,6.99,3.68,10.67,5.58Z"/>
      </g>
      <path class="cls-1" d="M109.92,123.33c.8,0,1.59-.18,2.33,0,6.56,1.84,13.06,3.8,19.68,5.58,7.48,2.03,14.96,3.92,22.63,5.89-.25.55-.43.98-.49,1.1-14.83-3.92-29.48-7.79-44.2-11.71,0-.31,0-.55.06-.86Z"/>
      <path class="cls-1" d="M97.66,136.52c.86-.19,1.72-.55,2.52-.43,5.82.8,11.4,2.52,16.73,4.97,4.05,1.9,8.28,3.55,12.32,5.4.49.24.86.8,1.29,1.22-.8.13-1.71.55-2.33.31-3.56-1.53-7.05-3.31-10.6-4.97-6.13-2.82-12.26-5.58-19.19-5.58-.24,0-.49-.24-.73-.36v-.55Z"/>
      <path class="cls-1" d="M150.02,142.52c-.55.24-1.17.8-1.66.74-6.32-.68-12.69-1.35-19.01-2.27-1.96-.31-3.8-1.35-5.7-2.08-.49-.19-.86-.73-.98-1.53,4.47,1.1,8.89,2.39,13.43,3.19,4.41.8,8.95.98,13.48,1.47.13.13.24.31.43.49Z"/>
      <path class="cls-1" d="M102.39,146.32c-10.18-4.78-19.07-.73-28.08,3.8-.85-.92-.3-1.59.8-2.03,4.35-1.59,8.65-3.31,13.06-4.59,4.54-1.35,9.01-.61,13.48.85,1.29.37,1.41.86.74,1.96Z"/>
      <path class="cls-1" d="M78.66,138.84c-2.76,1.66-5.58,3.19-8.28,4.96-4.35,2.89-9.01,4.84-14.04,6.01-.92.24-2.21.8-2.4-1.29.8-.18,1.66-.31,2.45-.55,3.25-1.1,6.63-1.96,9.69-3.43,3.38-1.59,6.38-3.86,9.63-5.7.8-.43,1.78-.43,2.7-.67.13.18.18.43.24.67Z"/>
      <path class="cls-1" d="M96.01,150.19c2.52-1.59,4.84-.68,6.81.12,5.27,2.03,10.42,4.42,15.63,6.68.37.19.8.61.86,1.04.06.24-.36.92-.55.92-.36,0-.8-.31-1.16-.55-6.13-3.56-12.45-6.86-19.68-7.48-.36-.06-.73-.06-1.1-.13-.18-.12-.31-.24-.8-.61Z"/>
      <path class="cls-1" d="M85.4,150.31c-.43.31-.8.73-1.22.8-4.97.61-9.2,2.94-13.43,5.33-1.72.98-3.25,2.15-4.91,3.13-.37.24-.98.06-1.53.06.12-.43.12-1.16.49-1.35,5.15-3.13,10.3-6.38,16.24-7.84,1.35-.31,2.64-.68,3.98-1.04.13.3.24.61.37.92Z"/>
      <path class="cls-1" d="M116.42,149.45c1.59.24,2.76.06,3.62.55,4.72,2.64,9.87,3.19,15.08,3.49.37,0,.8.19,1.23.24-1.72,2.52-16.37-.36-19.93-4.29Z"/>
      <g class="cls-5">
        <path class="cls-1" d="M80.13,165.45c-.68-1.05-.86-1.66.43-2.39,3.37-1.84,7.05-2.27,10.79-2.45.49,0,1.04.49,1.47,1.1-4.47.43-8.89.55-12.69,3.74Z"/>
      </g>
      <path class="cls-1" d="M67.68,151.29c-1.96,1.1-3.8,2.33-5.82,3.24-2.08.98-4.23,1.59-6.38,2.39-.68-1.53-.55-1.47.98-2.02,3.07-1.1,6.07-2.52,9.07-3.8.55-.24,1.17-.43,1.72-.67.18.31.31.55.43.86Z"/>
    </g>
  </g>
</svg>