<?xml version="1.0" encoding="UTF-8"?>
<svg id="Layer_2" data-name="Layer 2" xmlns="http://www.w3.org/2000/svg" xmlns:xlink="http://www.w3.org/1999/xlink" viewBox="0 0 122.94 119.07">
  <defs>
    <style>
      .cls-1 {
        fill: #609d9f;
      }

      .cls-1, .cls-2 {
        stroke-width: 0px;
      }

      .cls-3 {
        clip-path: url(#clippath);
      }

      .cls-2 {
        fill: none;
      }
    </style>
    <clipPath id="clippath">
      <rect class="cls-2" width="122.94" height="118.93"/>
    </clipPath>
  </defs>
  <g id="Layer_1-2" data-name="Layer 1">
    <g class="cls-3">
      <path class="cls-1" d="M76.23,44.9c-.14.08-.26.18-.36.29-3.45,2.76-7.59,5.59-12.59,8.47-2.63-1.51-5.02-3.01-7.19-4.49-.07-.06-.16-.11-.24-.16-5.26-3.6-9.26-7.11-12.29-10.42-.11-.18-.25-.33-.42-.46-7.46-8.35-8.76-15.45-8.59-19.82.23-6,3.49-11.33,8.32-13.6,2.13-1,4.18-1.4,6.11-1.4,7.36,0,12.81,5.82,13.09,6.14.31.34.75.53,1.21.53s.9-.19,1.21-.53c.36-.4,8.94-9.56,19.21-4.74,4.83,2.27,8.09,7.6,8.32,13.6.17,4.48-1.2,11.82-9.15,20.44-.16.12-.29.27-.4.43-1.76,1.86-3.82,3.78-6.23,5.74ZM69.98,71.02c4.19,0,7.59,3.41,7.59,7.59s-3.41,7.59-7.59,7.59c-.89,0-1.74-.16-2.54-.44-.48-.24-.98-.48-1.51-.74-2.13-1.34-3.55-3.72-3.55-6.42,0-4.19,3.41-7.59,7.59-7.59ZM4.94,69.81c0-5.15,4.19-9.35,9.35-9.35s9.35,4.2,9.35,9.35-4.2,9.35-9.35,9.35-9.35-4.2-9.35-9.35ZM108.23,62.1c4.77,0,8.65,3.88,8.65,8.65s-3.88,8.65-8.65,8.65-8.65-3.88-8.65-8.65,3.88-8.65,8.65-8.65ZM113.31,81.54c4.04-1.91,6.85-6.03,6.85-10.79,0-6.57-5.35-11.92-11.92-11.92s-11.9,5.33-11.92,11.89c-5.71-9.08-9.36-22.92-10.71-30.16,8.43-9.33,9.88-17.43,9.69-22.39-.28-7.21-4.28-13.66-10.2-16.44-10.1-4.73-18.71,1.56-21.8,4.32-3.08-2.77-11.67-9.07-21.81-4.32-5.92,2.78-9.93,9.23-10.2,16.44-.19,4.83,1.18,12.64,9.03,21.65-4.36,13.34-8.32,24.32-13.46,31.38.05-.45.08-.92.08-1.39,0-6.96-5.67-12.62-12.63-12.62s-12.63,5.66-12.63,12.62c0,5.1,3.05,9.51,7.41,11.49-.42.17-.84.34-1.23.53C3.14,84,.09,88.81.09,94.08v23.35c0,.9.73,1.64,1.64,1.64s1.64-.73,1.64-1.64v-23.35c0-4,2.3-7.65,5.85-9.28,1.92-.89,4.23-1.62,6.89-2.18,13.18-2.78,19.35-17.62,26.75-40.07,1.13,1.14,2.36,2.29,3.72,3.45-4.93,19.91-10.65,34.13-15.71,39.04-.32.31-.49.73-.49,1.17v31.22c0,.9.73,1.64,1.64,1.64s1.64-.73,1.64-1.64v-30.55c6.95-7.36,12.66-26.45,15.73-38.58,1.18.92,2.43,1.85,3.76,2.78-2.54,8.03-6.91,25.43-2.09,38.45v27.9c0,.9.73,1.64,1.64,1.64s1.64-.73,1.64-1.64v-28.19c0-.2-.04-.4-.11-.59-4.51-11.78-.44-28.4,1.76-35.65,1.61,1.06,3.32,2.11,5.14,3.17-2.42,8.86-6.03,26.99,3.22,31.7.58.35,1.19.66,1.83.9,9.56,4.71,11.44,6.49,11.44,10.27v18.4c0,.9.73,1.64,1.64,1.64s1.64-.73,1.64-1.64v-18.4c0-4.48-2.14-7.06-7.41-10.13,4.3-1.45,7.41-5.52,7.41-10.3,0-5.99-4.87-10.86-10.86-10.86-3.34,0-6.33,1.52-8.33,3.9.27-4.61,1.28-9.83,2.65-14.8,4.5-2.56,8.36-5.1,11.68-7.6,1.47,6.97,5.93,25.94,13.01,36.56v31.64c0,.9.73,1.64,1.64,1.64s1.64-.73,1.64-1.64v-32.14c0-.33-.1-.66-.29-.93-7.47-10.86-12.15-32.6-13.12-37.41,1.45-1.2,2.78-2.39,3.99-3.56,2.03,9.46,9.17,37.24,23.52,39.26.53.08,12.83,2.07,12.83,12.88v21.89c0,.9.73,1.64,1.64,1.64s1.64-.73,1.64-1.64v-21.89c0-7.27-4.53-11.65-9.16-14"/>
    </g>
  </g>
</svg>