<?xml version="1.0" encoding="UTF-8"?>
<svg id="Layer_2" data-name="Layer 2" xmlns="http://www.w3.org/2000/svg" xmlns:xlink="http://www.w3.org/1999/xlink" viewBox="0 0 146.67 130.05">
  <defs>
    <style>
      .cls-1 {
        fill: #609d9f;
      }

      .cls-1, .cls-2 {
        stroke-width: 0px;
      }

      .cls-3 {
        clip-path: url(#clippath);
      }

      .cls-2 {
        fill: none;
      }

      .cls-4 {
        clip-path: url(#clippath-1);
      }
    </style>
    <clipPath id="clippath">
      <rect class="cls-2" y="70.97" width="146.67" height="58.96"/>
    </clipPath>
    <clipPath id="clippath-1">
      <rect class="cls-2" x="68" width="28" height="37.64"/>
    </clipPath>
  </defs>
  <g id="Layer_1-2" data-name="Layer 1">
    <g>
      <g class="cls-3">
        <path class="cls-1" d="M145.21,77.88c-.42-.73-1.32-1.7-3.29-2.16-3.38-.79-9.22.06-15.84,3.37-.34-1.75-1.06-3.77-2.57-5.08-.93-.82-2.56-1.7-5.01-1.27-2.13.38-4.72,2.22-8.36,5.07-.82-1.86-2.28-4.15-4.65-4.93-1.49-.49-3.88-.55-6.8,1.96-1.46,1.26-3.24,3.43-5.48,6.18-5.04,6.17-12.64,15.47-19.52,16.47-4.93.04-9.68-.82-13.24-1.71,2.32-.84,5.07-1.89,7.89-3.1,10.17-4.36,15.7-8.38,16.92-12.26.58-1.85.22-3.67-1.03-5.25-4.46-5.64-17.19-4.64-25.83-.21-9.35,4.8-13.09,5.42-17.83,6.2-.77.13-1.55.26-2.39.41-12.92,2.34-35.58,1.27-35.8,1.26-1.16-.05-2.15.84-2.2,2-.06,1.16.83,2.15,1.99,2.2.95.05,23.36,1.11,36.76-1.32.81-.15,1.58-.28,2.32-.4,4.9-.81,9.13-1.51,19.06-6.61,8.18-4.19,18.17-4.01,20.62-.92.44.56.44.96.31,1.39-1.44,4.63-17.4,11.38-28.27,14.7-.85.26-1.45,1.03-1.48,1.92-.04.9.49,1.71,1.33,2.04.59.23,14.61,5.69,27.72,3.24l1.83-.34c12.49-2.31,25.4-4.7,40.72-15.02.72-.49,1.43-.94,2.13-1.35.09-.05.18-.1.27-.16,8.53-5.02,14.98-4.98,16.11-4.16.52,1.08-.44,2.8-2.84,5.11l-.22.21c-3.73,3.66-7.77,6.94-10.87,9.4-18.16,14.36-36.14,23.7-53.45,27.75-10.6,2.48-19.48,3.96-28.4,3.08-4.63-.45-9.3-1.6-13.83-2.7-1.01-.24-2.01-.49-3.02-.73-8.68-2.06-17.57-3.65-26.43-4.72-1.15-.14-2.2.68-2.34,1.83-.14,1.16.68,2.2,1.83,2.34,8.7,1.05,17.44,2.61,25.96,4.64,1,.24,1.99.48,2.99.72,4.66,1.14,9.48,2.32,14.41,2.8,1.91.19,3.81.28,5.72.28,7.57,0,15.26-1.39,24.05-3.45,17.92-4.2,36.46-13.8,55.1-28.55,3.18-2.52,7.33-5.9,11.2-9.69l.19-.19c1.5-1.44,6.06-5.84,3.54-10.29h0ZM96.47,83.67c2.03-2.49,3.79-4.64,4.97-5.65.79-.68,1.91-1.43,2.74-1.15,1.05.34,2.01,2.15,2.51,3.65-4.8,3.78-10.93,8.45-17.97,12.06,2.85-2.92,5.46-6.12,7.74-8.91ZM95.41,93.67c6.01-3.61,11.18-7.7,15.27-10.94,3.64-2.88,7.08-5.6,8.55-5.85.87-.15,1.27.08,1.52.29.9.79,1.28,2.71,1.39,4.15-.46.29-.93.59-1.4.91-9.13,6.16-17.43,9.36-25.32,11.45Z"/>
      </g>
      <path class="cls-1" d="M60.45,47.7c.63-.06,1.19-.39,1.55-.9.36-.52.46-1.17.29-1.77-.13-.47-3.43-11.58-17.57-18.35-1.05-.5-2.3-.06-2.8.99s-.06,2.3.99,2.81c8.6,4.11,12.61,9.93,14.29,13.21-8.71.26-15.55-1.93-20.35-6.52-6.26-5.97-7.55-14.64-7.8-18.55,12.58.4,22.35,4.35,29.04,11.75,12.19,13.49,10.26,34.21,10.23,34.42-.12,1.16.72,2.19,1.88,2.31.07,0,.15.01.22.01,1.06,0,1.98-.81,2.09-1.89.03-.26.21-2.21.16-5.2v-.02c.16-8.34,4.35-27.5,39.3-28.29-.41,3.2-1.85,9.43-6.95,14.16-4.9,4.55-12.04,6.73-21.23,6.52,2.61-3.2,7.72-8.13,15.44-9.8,1.14-.24,1.85-1.36,1.61-2.5-.24-1.13-1.36-1.85-2.5-1.61-13.66,2.96-20.03,14.3-20.29,14.79-.34.62-.34,1.38-.01,2,.34.63.97,1.04,1.68,1.1,12.27,1.06,21.77-1.45,28.22-7.46,8.49-7.91,8.42-18.89,8.41-19.35-.02-1.15-.95-2.07-2.1-2.07-17.56,0-30.38,4.29-38.09,12.76-2.21,2.43-3.8,4.99-4.93,7.48-1.48-6.58-4.39-13.95-9.97-20.14-7.9-8.76-19.45-13.2-34.34-13.2-1.13,0-2.05.89-2.1,2.01-.03.59-.52,14.56,9.13,23.79,6.24,5.97,15.17,8.51,26.55,7.52Z"/>
      <g class="cls-4">
        <path class="cls-1" d="M71.62,37.1c.25.09.51.14.76.14.37,0,.73-.09,1.06-.29,13.69-7.97,18.86-16.99,20.79-23.15,2.15-6.86.9-11.83.84-12.04-.29-1.11-1.42-1.79-2.54-1.51-9.52,2.35-16.25,6.92-20,13.59-5.74,10.19-2.31,21.45-2.16,21.92.19.61.65,1.1,1.24,1.33ZM76.22,15.88c2.87-5.07,7.92-8.73,15.04-10.91.22,4.69-1.13,16.33-17.45,26.84-.56-3.57-.9-10.07,2.41-15.93Z"/>
      </g>
    </g>
  </g>
</svg>