<?xml version="1.0" encoding="UTF-8"?>
<svg id="Layer_2" data-name="Layer 2" xmlns="http://www.w3.org/2000/svg" xmlns:xlink="http://www.w3.org/1999/xlink" viewBox="0 0 51.97 77.25">
  <defs>
    <style>
      .cls-1 {
        clip-path: url(#clippath);
      }

      .cls-2 {
        fill: none;
      }

      .cls-2, .cls-3 {
        stroke-width: 0px;
      }

      .cls-3 {
        fill: #9aa739;
      }
    </style>
    <clipPath id="clippath">
      <rect class="cls-2" width="51.97" height="76.96"/>
    </clipPath>
  </defs>
  <g id="Layer_1-2" data-name="Layer 1">
    <g class="cls-1">
      <path class="cls-3" d="M44.96,46.07c-.46.6-.89,1.23-1.44,1.76-.11.11-.22.24-.32.37-.24.29-.46.6-.76.84-.1.09-.19.19-.27.31-.41.51-.87.96-1.38,1.38-.27.23-.53.46-.8.69-.54.46-1.15.81-1.72,1.21-.45.31-.9.61-1.34.92-.11.07-.22.15-.32.24-.44.45-.94.82-1.41,1.22-.33.29-.63.6-.95.9-.16.15-.32.29-.48.43-.28.26-.58.49-.84.77-.24.25-.54.46-.8.69-.42.35-.84.69-1.22,1.08-.14.13-.28.26-.43.37-1.03.85-1.95,1.8-2.7,2.91-.15.22-.32.44-.49.65-.49.63-.85,1.32-1.09,2.08-.06.18-.13.36-.18.54-.09.29-.16.58-.19.88-.06.59-.14,1.19-.21,1.78-.09.7-.23,1.39-.42,2.07-.06.23-.11.47-.15.72-.06.45-.17.91-.3,1.35-.32,1.09-.65,2.18-1,3.27-.14.41-.3.81-.48,1.21-.07.15-.16.28-.27.4-.06.06-.13.1-.2.13-.11.05-.29-.04-.33-.16-.05-.16-.04-.32.03-.48.44-.94.71-1.93.99-2.92.22-.75.46-1.5.64-2.27.14-.58.31-1.16.39-1.75.03-.21.09-.42.14-.64.07-.35.14-.7.19-1.04.11-.72.21-1.45.33-2.17.16-.96.37-1.92.49-2.89.13-1.02.34-2.03.38-3.07,0-.24.06-.48.1-.72.07-.45.15-.91.11-1.38,0-.08.01-.16.02-.24.09-1.03.12-2.05.08-3.08,0-.06,0-.11,0-.16.09-.49.04-.97.01-1.46-.05-.95-.18-1.89-.45-2.81-.2-.65-.36-1.31-.49-1.97-.08-.45-.21-.9-.37-1.33-.29-.76-.58-1.53-.95-2.25-.37-.72-.81-1.41-1.33-2.04-.4-.48-.78-.97-1.15-1.47-.4-.55-.84-1.06-1.32-1.54-.43-.42-.82-.86-1.19-1.32-.58-.75-1.22-1.45-1.82-2.19-.07-.08-.14-.17-.19-.26-.45-.65-.91-1.29-1.34-1.94-.23-.34-.43-.69-.59-1.07-.15-.34-.34-.68-.52-1.01-.33-.63-.65-1.25-.88-1.92-.15-.44-.33-.86-.55-1.27-.18-.36-.33-.74-.47-1.13-.32-.9-.63-1.79-.94-2.69-.06-.18-.1-.36-.15-.55-.17-.69-.37-1.36-.49-2.06-.07-.4-.17-.8-.28-1.19-.1-.39-.19-.79-.24-1.19-.11-.67-.26-1.33-.4-1.99-.2-.9-.35-1.81-.51-2.72-.15-.88-.29-1.77-.43-2.65-.02-.16-.05-.32-.1-.47-.13-.34-.18-.69-.22-1.04,0-.05-.02-.1-.03-.16-.21-.79-.4-1.58-.57-2.37-.06-.3-.23-.55-.39-.8-.18-.27-.34-.55-.52-.82-.2-.32-.45-.61-.69-.9s-.49-.58-.81-.8c-.14-.09-.26-.2-.37-.31-.45-.48-.97-.86-1.57-1.15-.08-.04-.15-.08-.21-.13-.54-.41-1.14-.73-1.74-1.04-.22-.11-.42-.24-.66-.33-.31-.11-.57-.31-.78-.56-.21-.25-.46-.46-.57-.79C0,.37.13.1.33.05c.05-.02.1-.03.16-.04.08-.01.17-.02.24-.02.14,0,.27.01.41.03.83.14,1.66.28,2.48.44.35.07.69.16,1.04.16.4,0,.72.21,1.07.36.02.01.05.03.07.05.31.34.7.59.95.99.12.19.25.36.35.55.46.83.97,1.63,1.39,2.49.12.24.23.49.32.74.09.26.22.49.39.71.35.48.74.93,1.16,1.35.62.61,1.22,1.23,1.91,1.78.34.39.74.71,1.11,1.06.49.46.96.95,1.47,1.4.58.53,1.11,1.1,1.57,1.74.26.34.52.69.78,1.04.57.76,1.08,1.56,1.53,2.4.3.55.62,1.08.93,1.62.03.07.08.08.15.03.04-.03.07-.07.09-.12.01-.32.02-.65.01-.97-.02-.68.02-1.35.05-2.03.02-.35.05-.7.02-1.06-.01-.22,0-.43.02-.65.03-.59.02-1.19-.04-1.79-.04-.46-.07-.92-.09-1.38-.03-.76-.14-1.52-.27-2.26-.11-.64-.22-1.29-.33-1.93-.08-.56-.23-1.11-.42-1.65-.21-.56-.38-1.14-.55-1.7-.08-.28-.04-.54.1-.79.09-.17.31-.26.48-.19.1.04.2.09.29.14.48.31.93.65,1.32,1.08.25.28.53.54.79.81.26.27.48.59.72.88.86,1.04,1.44,2.23,2.01,3.44.44.93.77,1.91,1.06,2.9.46,1.62,1.01,3.21,1.55,4.8.4,1.16.74,2.32,1.1,3.49.33,1.06.65,2.13,1.04,3.17.16.43.28.88.43,1.31.43,1.34.84,2.69,1.25,4.04.2.67.48,1.32.73,1.98.23.61.44,1.22.57,1.86.11.53.28,1.05.42,1.58.27,1.03.39,2.08.44,3.14,0,.06,0,.11,0,.16-.1.78-.2,1.56-.32,2.34-.06.38-.15.74-.23,1.12-.06.27-.13.53-.19.79-.15.55-.31,1.1-.46,1.65-.17.63-.4,1.23-.68,1.83-.28.58-.53,1.19-.8,1.78-.45.98-.93,1.96-1.38,2.95-.38.84-.69,1.71-.99,2.58-.11.33-.28.66-.34.99-.06.34-.02.7-.04,1.05-.04.76-.05,1.52-.04,2.28.02,1.28-.12,2.55-.31,3.81-.04.27-.09.54-.12.8-.04.3-.06.6-.07.9,0,.04.05.08.08.11,0,0,.05-.01.07-.03.46-.51.8-1.09,1.13-1.69.2-.38.37-.78.57-1.17.52-.99.86-2.05,1.29-3.07.21-.49.36-1.02.54-1.53.35-.97.72-1.93,1.12-2.88.22-.53.43-1.06.6-1.6.25-.78.51-1.55.78-2.31.11-.31.24-.6.38-.9.27-.57.55-1.12.87-1.66.05-.07.09-.14.13-.21.22-.56.58-1.04.92-1.53.32-.47.54-1,.79-1.51.08-.17.17-.34.27-.49.6-.84,1.19-1.69,1.83-2.49.39-.48.78-.97,1.25-1.39.05-.04.08-.07.12-.11.39-.53.91-.93,1.33-1.42.23-.27.51-.49.77-.73.42-.39.85-.76,1.26-1.15.35-.34.68-.7.99-1.08.41-.51.89-.95,1.35-1.41.44-.44.93-.83,1.31-1.33.47-.37.8-.88,1.26-1.27.26-.23.54-.45.83-.65.38-.26.79-.48,1.17-.74.23-.16.48-.24.74-.32.27-.08.54-.06.8.05.23.08.36.23.39.48.03.21.03.43-.02.65-.16.8-.37,1.58-.62,2.36-.19.57-.36,1.14-.5,1.72-.14.6-.32,1.2-.5,1.8-.04.16-.12.3-.18.45-.36.99-.73,1.98-1.07,2.98-.21.59-.4,1.18-.56,1.79-.21.82-.51,1.6-.83,2.38-.14.35-.31.7-.51,1.02-.61.96-1.09,2.01-1.81,2.9ZM23.68,42.71s0-.1-.02-.15c-.03-.06-.08-.07-.11-.02-.01.01.02.05.04.07.04.03.08.06.11.09-.03.11,0,.21.1.28.06.05.12.09.19.14,0,.05,0,.09,0,.14,0,.03.02.05.05.06.02.01.04.02.06,0,.04-.02.03-.06-.02-.11-.04-.03-.08-.06-.12-.09.03-.11-.02-.2-.1-.28-.06-.05-.13-.09-.19-.14h0ZM23.57,40.64c.11.08.2.18.26.31.12.24.25.47.38.71.01.02.05.03.07.03.07.02.11-.02.1-.09-.06-.6-.2-1.17-.43-1.73-.11-.28-.23-.55-.3-.84-.08-.37-.18-.73-.31-1.09-.16-.46-.28-.94-.48-1.38-.17-.78-.53-1.48-.86-2.2-.54-1.18-1.1-2.35-1.65-3.53-.08-.18-.14-.35-.2-.54-.02-.05-.02-.1,0-.16.02-.05.05-.09.09-.13.05-.04.11-.03.14.04.06.13.12.24.17.37.26.66.55,1.3.88,1.93.04.07.09.13.15.19.01.02.05.01.07,0,.02-.01.04-.03.04-.05.03-.14,0-.27-.06-.4-.19-.48-.39-.95-.58-1.43-.1-.25-.22-.49-.31-.75-.19-.59-.44-1.17-.72-1.72-.18-.34-.33-.68-.49-1.03-.46-.98-.92-1.97-1.32-2.97-.24-.64-.54-1.24-.79-1.88-.28-.71-.52-1.43-.77-2.15-.27-.74-.52-1.48-.8-2.22-.16-.41-.31-.81-.44-1.22-.24-.75-.55-1.47-.93-2.17-.5-.96-1.03-1.91-1.62-2.82-.01-.03-.02-.05-.02-.08-.02-.06,0-.11.06-.13.05-.01.12-.02.15.01.24.21.48.43.64.73.24.45.53.89.81,1.31.14.21.25.42.35.65.16.35.28.71.44,1.05.41.83.67,1.72.97,2.58.4,1.13.76,2.27,1.19,3.38.44,1.14.83,2.29,1.36,3.4.34.73.64,1.5,1.02,2.21.07.12.11.24.18.37.16.37.32.74.49,1.11.05.07.1.13.17.17.01.01.06,0,.08,0,.02-.01.04-.03.04-.05.01-.33-.1-.64-.21-.94-.12-.36-.28-.71-.33-1.09-.02-.11-.06-.21-.1-.31-.23-.58-.47-1.16-.75-1.71-.17-.34-.33-.68-.49-1.02-.02-.04.02-.1.04-.15.04-.06.17-.06.21,0,.08.08.15.16.2.25.24.52.48,1.03.72,1.55.03.05.06.09.1.13.02.02.05.02.07.02.06,0,.09-.04.08-.1-.12-.59-.21-1.18-.43-1.73-.2-.51-.41-1.01-.64-1.5-.27-.59-.54-1.18-.81-1.78-.02-.03-.02-.05-.01-.08.02-.05.05-.08.09-.11.03-.02.05-.02.07,0,.18.1.24.29.32.45.27.57.51,1.14.77,1.71.08.17.18.33.27.49.01.01.05.01.07,0s.05-.03.05-.05c.02-.46-.04-.92-.17-1.36,0-.03-.02-.05-.03-.07-.29-.61-.48-1.27-.76-1.89-.26-.59-.59-1.16-.91-1.72-.28-.49-.63-.94-.9-1.45-.1-.17-.21-.32-.33-.47-.15-.19-.3-.38-.44-.58-.49-.76-1.13-1.39-1.73-2.05-.17-.18-.34-.35-.52-.52-.41-.39-.84-.77-1.24-1.17-.62-.61-1.2-1.25-1.9-1.77-.05-.03-.09-.06-.13-.1-.51-.56-1.09-1.05-1.57-1.65-.02-.02-.04-.04-.06-.05-.03-.01-.06-.02-.08-.01-.04.03-.1.06-.09.09.05.57.1,1.14.17,1.7.06.48.15.97.14,1.46,0,.11.01.22.03.32.14.99.23,2,.43,2.98.31,1.54.47,3.11.89,4.63.18,1.07.41,2.14.64,3.19.16.71.31,1.43.53,2.13.24.81.53,1.6.81,2.39.15.44.31.87.49,1.29.29.68.6,1.33.85,2.03.18.49.45.93.68,1.39.43.88.88,1.75,1.44,2.55.51.73.97,1.51,1.56,2.18.68.78,1.34,1.57,1.98,2.37.11.12.22.24.34.35.58.57,1.11,1.18,1.6,1.83.39.52.79,1.03,1.2,1.54.07.1.16.15.28.15.04-.12-.03-.21-.08-.3-.23-.4-.45-.81-.73-1.17-.41-.54-.78-1.11-1.17-1.66-.53-.73-.94-1.52-1.4-2.29-.09-.16-.18-.33-.25-.51-.03-.08-.05-.16-.05-.23,0-.03,0-.05.02-.07.05,0,.12,0,.14.03.15.26.29.52.43.78.19.36.38.72.63,1.04.51.67,1.02,1.34,1.51,2.02.32.44.66.86.91,1.35.12.24.26.47.41.7.06.08.16.14.25.2.03.02.05.02.08,0,.02-.02.03-.04.03-.07-.06-.35-.24-.66-.39-.98-.06-.13-.1-.25-.04-.39h-.03ZM31.07,54.23c-.06.08-.12.17-.17.26-.02.02,0,.05-.01.08.04-.02.09-.02.13-.05.07-.08.1-.18.03-.28.12-.18.27-.34.35-.55.14-.33.34-.61.52-.92.19-.32.35-.67.56-.99.39-.59.79-1.17,1.19-1.75.08-.11.17-.21.27-.3.02-.02.05-.02.08-.02,0,.03.02.06.02.08-.18.36-.38.72-.59,1.06-.45.7-.96,1.38-1.32,2.15-.45.66-.72,1.4-.99,2.13-.08.23-.14.47-.25.69-.32.66-.54,1.36-.78,2.05-.03.07,0,.1.09.09.37-.43.81-.83,1.17-1.31.29-.39.58-.78.88-1.17.13-.17.25-.36.41-.51.32-.3.57-.66.83-.99.24-.32.47-.67.76-.95.33-.32.61-.69.91-1.04.13-.15.26-.28.39-.42.11-.11.22-.23.32-.36.45-.61.94-1.2,1.45-1.76.46-.49.82-1.08,1.3-1.56,1.06-1.41,2.11-2.83,3.09-4.29.07-.08.13-.18.17-.28.14-.36.37-.66.58-.97.29-.43.59-.85.79-1.33.02-.03.03-.04.05-.06.06-.04.11-.04.15,0,.07.08.06-.05.05.06-.04.3-.17.57-.32.82-.13.21-.28.41-.38.63-.13.27-.27.53-.45.77-.43.63-.86,1.25-1.29,1.88-.14.2-.24.43-.38.63-.15.19-.32.36-.47.55-.05.06-.09.13-.15.2-.55.74-1.1,1.48-1.65,2.22-.15.2-.29.4-.46.57-.31.3-.57.66-.85.98-.14.17-.27.35-.42.49-.21.21-.4.44-.58.68-.21.28-.43.56-.68.81-.26.24-.49.51-.7.79-.11.16-.23.3-.36.44-.51.49-.9,1.08-1.33,1.64-.23.3-.44.62-.65.94-.02.03,0,.09,0,.14.03,0,.06,0,.08-.02.08-.07.15-.16.22-.23.26-.28.54-.53.85-.74.09-.05.16-.03.22.05.03.04.05.12.03.15-.06.13-.14.23-.23.33-.16.15-.35.25-.52.4-.38.34-.8.66-1.07,1.1-.01.02,0,.05-.02.08-.01.05,0,.06.05.03.21-.11.41-.26.59-.42.32-.3.65-.58.97-.87.81-.72,1.62-1.44,2.43-2.16.33-.29.65-.58.99-.84.43-.33.88-.64,1.34-.92.64-.36,1.23-.79,1.78-1.27.55-.48,1.14-.92,1.58-1.52.05-.06.11-.11.18-.17.35-.37.72-.73,1.06-1.12.25-.28.46-.6.7-.89.26-.31.55-.6.8-.92.36-.44.69-.91.97-1.41.33-.59.65-1.18.98-1.78.43-.76.78-1.55,1.04-2.39.13-.41.23-.83.4-1.24.12-.3.2-.61.3-.92.14-.49.29-.98.48-1.47.34-.85.69-1.71.9-2.61.03-.13.09-.26.14-.39.08-.23.18-.46.22-.69.19-1.02.53-1.99.84-2.97.18-.57.31-1.15.39-1.74.01-.14.01-.27-.01-.41-.01-.14-.14-.24-.27-.26-.31-.05-.59.01-.85.18-.32.21-.63.43-.95.64-.85.55-1.57,1.24-2.24,1.99-.39.43-.79.83-1.2,1.22-.65.62-1.27,1.27-1.87,1.93-.66.72-1.34,1.41-2.07,2.06-.51.45-.97.94-1.46,1.41-.29.43-.68.78-1.04,1.14-.44.44-.84.92-1.19,1.44-.11.15-.23.3-.34.45-.35.48-.69.97-1.04,1.46-.12.18-.23.36-.31.56-.21.47-.44.93-.7,1.38-.37.6-.77,1.19-1.11,1.8-.43.76-.82,1.53-1.11,2.35-.25.69-.47,1.38-.72,2.07-.28.79-.55,1.59-.88,2.36-.24.55-.41,1.11-.63,1.67-.02.04.02.1.03.15h0ZM26.05,44.43c.09.08.13.17.1.29-.09.63-.04,1.24.07,1.86.1.54.18,1.07.28,1.6.01.04.06.07.09.11.04-.04.1-.07.1-.11.05-.68.1-1.35.13-2.03.02-.52.02-1.03.01-1.55-.01-.84,0-1.68-.13-2.52-.04-.32-.07-.65-.1-.97-.07-.68-.11-1.35-.12-2.03,0-.17-.03-.33-.05-.48-.11-.86-.27-1.72-.31-2.59-.01-.27-.06-.54-.15-.8-.17-.52-.25-1.06-.33-1.59-.19-1.23-.38-2.46-.68-3.68-.05-.19-.08-.38-.11-.56-.3-1.63-.59-3.26-.9-4.89-.32-1.65-.55-3.32-.69-4.99,0-.08.01-.16.05-.23.02-.04.09-.06.14-.07.01,0,.05.03.06.05.12.33.15.68.2,1.03.1.81.18,1.61.35,2.41.14.64.23,1.28.34,1.93.16.91.31,1.82.47,2.72.07.43.16.85.24,1.28.03.16.1.31.13.47.23,1.34.46,2.67.69,4.01.08.43.11.87.24,1.28.24.78.33,1.59.41,2.4.05.46.09.92.16,1.38.06.37.08.75.1,1.13.05.84.08,1.68.22,2.51.08.45.11.91.11,1.38-.01.65,0,1.3.03,1.95.04.87-.03,1.73-.1,2.6-.06.68-.04,1.36-.04,2.04,0,.03.02.05.04.06.05-.02.11-.03.13-.06.07-.11.12-.23.17-.36.14-.41.28-.82.41-1.23.13-.39.28-.77.4-1.16.15-.52.29-1.04.42-1.57.22-.89.48-1.78.52-2.71,0-.05.02-.11.03-.16.07-.83.24-1.67.18-2.51,0-.03,0-.05.02-.08,0-.08.05-.1.12-.07.03.01.05.03.06.05.11.25.12.53.1.79-.04.65-.09,1.3-.16,1.95-.13,1.1-.33,2.2-.61,3.28-.17.66-.32,1.32-.57,1.95-.28.71-.48,1.44-.69,2.17-.04.15-.08.3-.04.46.03-.02.06-.02.07-.04.27-.56.53-1.13.79-1.69l.95-2.06c.34-.77.7-1.53,1.04-2.3.14-.3.25-.6.35-.91.19-.59.35-1.19.54-1.79.18-.54.31-1.09.41-1.66.05-.3.09-.59.16-.89.13-.61.17-1.23.23-1.85.03-.38.02-.76-.05-1.14-.04-.27-.08-.54-.1-.81-.04-.49-.12-.97-.25-1.44-.19-.7-.37-1.42-.56-2.12-.13-.45-.27-.88-.44-1.31-.14-.35-.27-.71-.39-1.07-.19-.59-.39-1.19-.56-1.79-.29-.99-.63-1.96-.94-2.94-.09-.29-.17-.57-.27-.85-.38-1.05-.71-2.1-1.04-3.17-.08-.26-.18-.52-.24-.78-.2-.79-.42-1.57-.72-2.33-.08-.2-.15-.41-.21-.61-.11-.36-.22-.72-.34-1.08-.17-.52-.37-1.02-.54-1.54-.28-.85-.51-1.72-.78-2.57-.3-.93-.54-1.88-1.01-2.74-.03-.05-.04-.1-.06-.15-.48-1.07-1.08-2.07-1.74-3.03-.09-.14-.19-.26-.3-.38-.51-.57-1.02-1.13-1.54-1.68-.31-.35-.68-.61-1.11-.81-.09-.04-.24.07-.23.17.01.13.03.27.06.4.08.26.18.52.26.78.19.57.38,1.13.55,1.7.06.16.09.31.1.48,0,.27.07.53.11.8.1.58.19,1.17.33,1.76.03.16.05.32.06.48.06.7.09,1.41.17,2.11.06.62.09,1.24.08,1.86,0,1.84-.11,3.69-.07,5.54.01.7.03,1.41.1,2.11.07.76.15,1.51.27,2.26.17,1.02.31,2.04.47,3.06.06.4.11.81.17,1.21.04.3.04.6.09.89.16.85.34,1.7.52,2.55.03.13.08.26.12.39.25.86.51,1.71.74,2.58.3,1.1.55,2.21.94,3.28.03.08.05.16.07.23.15.55.27,1.11.44,1.65.2.65.41,1.29.56,1.95.25,1.11.59,2.2.85,3.31.01.03.02.05.04.07.03.06.08.07.14.03.08-.07.14-.16.21-.24h-.02ZM3.35,2.38c.05-.02.1-.05.14-.09.13-.15.28-.15.44-.06.18.11.36.23.54.37.44.35.87.72,1.29,1.1.46.43.86.9,1.27,1.37.08.08.14.16.18.27.12.31.38.52.56.79.02.04.09.04.14.05.01-.03.02-.05.02-.08-.06-.29-.15-.59-.34-.81-.36-.41-.63-.89-1.05-1.23-.04-.04-.06-.09-.07-.14,0-.05.02-.1.04-.14,0-.01.06-.01.08,0,.19.07.31.21.43.36.14.17.27.34.46.44.05.02.09.02.14,0,.01-.02.02-.05,0-.07-.22-.43-.43-.88-.68-1.29-.23-.36-.48-.72-.76-1.05-.44-.54-.97-.92-1.71-.98-.46-.04-.91-.11-1.36-.23-.55-.15-1.11-.21-1.68-.32-.16-.03-.32-.04-.48-.03-.04,0-.09.05-.13.09-.01.02-.01.05,0,.07.22.39.51.69.95.82.13.04.24.11.36.18.19.1.39.2.58.3.22.1.41.27.64.34ZM27.35,51.2c.04-.05.03-.08-.02-.07-.01,0-.02.04-.02.06h.04Z"/>
    </g>
  </g>
</svg>