<?xml version="1.0" encoding="UTF-8"?>
<svg id="Layer_2" data-name="Layer 2" xmlns="http://www.w3.org/2000/svg" xmlns:xlink="http://www.w3.org/1999/xlink" viewBox="0 0 74.96 84.03">
  <defs>
    <style>
      .cls-1 {
        clip-path: url(#clippath);
      }

      .cls-2 {
        fill: none;
      }

      .cls-2, .cls-3 {
        stroke-width: 0px;
      }

      .cls-3 {
        fill: #9aa739;
      }
    </style>
    <clipPath id="clippath">
      <rect class="cls-2" width="74.96" height="83.89"/>
    </clipPath>
  </defs>
  <g id="Layer_1-2" data-name="Layer 1">
    <g class="cls-1">
      <path class="cls-3" d="M28.06,61.85s.07.05.1.07l.53-.94s-.07-.04-.1-.05l-.53.92ZM24.06,34.62c-.1-.46-.31-.57-.72-.43.25.15.45.27.72.43ZM31.78,50.45c.19.21.34.38.52.57v-.72c-.18.05-.32.09-.52.15ZM45.54,13.73c-.16-.35-.27-.62-.39-.9-.18.13-.34.24-.5.36.29.17.55.33.89.54ZM57.9,20.83c.22.24.46.48.72.76.22-.14.45-.28.63-.39-.44-.13-.9-.25-1.34-.37ZM39.75,53.83c-.45-.74-.94-1-1.52-.81.49.27.96.52,1.52.81ZM52.21,19.21c.32.21.59.4.85.57.27-.23.54-.48.81-.72-.02-.02-.04-.05-.06-.07-.52.07-1.03.15-1.6.22ZM60.55,22.85c-.38-.41-1.16-.46-1.17-1.22-.47.19-.4.65.01,1.07.44.06.78.1,1.16.15ZM62.24,43.02c.34-.04.66-.06.96-.14.11-.03.2-.19.3-.29-.17-.14-.4-.44-.51-.4-.33.11-.7.29-.75.82ZM53.36,23.19c.51-.65.51-1.33,0-2.06-.02.01-.06.02-.06.04-.1.46-.2.92-.29,1.38-.01.04.03.09.05.14.09.17.19.33.3.51ZM40.44,22.95c.35-.34.68-.6.66-1.07,0-.08-.09-.23-.15-.24-.28-.03-.57-.01-.91-.01.15.48.27.86.41,1.32ZM62.48,24.16c-.05-.25-.02-.61-.16-.69-.37-.22-.81-.32-1.31-.5.12.47.22.85.31,1.19h1.16ZM51.9,16.71c.04-.45.07-.88.11-1.33-.16.08-.3.16-.44.21-.15.06-.31.12-.47.13-.33.02-.35.21-.29.46.12.43.59.66,1.08.54ZM55.75,22.61c.2-.32.06-.65-.29-.81-.5-.22-.98-.48-1.47-.73-.06-.03-.13-.04-.23-.07.13.46.24.87.35,1.28.94-.47,1.35-.21,1.64.32ZM51.98,17.42c-.48-.21-.89-.34-1.24-.55-.24-.15-.45-.15-.7-.07-.24.07-.29.22-.14.38.36.37.81.66,1.34.65.23,0,.46-.24.73-.4ZM47.16,16.09c-.32-.22-.61-.43-.91-.61-.11-.07-.28-.16-.39-.13-.29.1-.55.26-.91.43.54.11.88.37.94.9.45-.21.86-.41,1.26-.59.01,0,.01-.02,0,0ZM50.83,18.33c-.33-.19-.6-.33-.85-.52-.21-.16-.4-.16-.58-.03-.33.23-.59.52-.69.93.32.12.62.23.97.37.33-.22.72-.47,1.15-.76ZM57.55,24.98c.21-.3.15-.59-.02-.8-.39-.51-.82-.99-1.24-1.48-.05.01-.1.02-.15.02-.13.69-.26,1.37-.39,2.11,1.18-.86,1.28-.71,1.8.15ZM72.84,28.43c-.98-.16-1.9-.02-2.82.12-.07.01-.17.04-.19.09-.14.39-.27.78-.42,1.23,1.19-.49,2.28-.95,3.43-1.44ZM43.6,23.04s-.05-.05-.07-.07c-.06.06-.13.11-.18.18-.65.68-1.3,1.35-1.95,2.03-.41.42-.56,1.02-.4,1.56,1.12-1.05,1.85-2.39,2.6-3.7ZM45.67,17.15s.02.07.02.1c.28-.04.56-.08.85-.13.67-.09,1.27,0,1.7.59.05.07.2.13.28.11.36-.07.56-.6.32-.86-.33-.35-.7-.65-1.23-.63-.76.02-1.3.52-1.94.81ZM55.5,16.78s-.02-.05-.03-.08c-.14.04-.27.08-.41.11-.58.14-1.16.32-1.74.39-.47.05-.87.2-1.16.54-.13.16-.2.5-.11.68.16.36.58.4.92.34.26-.05.58-.21.69-.43.31-.63.75-1.07,1.38-1.35.16-.07.32-.13.47-.19ZM55.28,21.18c-.09-.83.54-1.17,1.42-1.16-.28-.24-.45-.51-.69-.57-.47-.11-.96-.13-1.45-.15-.22-.01-.45.05-.66.13-.24.09-.3.39-.11.55.46.4.94.76,1.48,1.19ZM39.71,19.23c.08.66.15,1.28.22,1.92.74-.24,1.18-.77,1.66-1.24.19-.19.31-.46.13-.67-.16-.17-.45-.31-.66-.3-.43.03-.85.18-1.34.29ZM48.53,13.68c-.01.78.22,1.54.6,2.25.13.23.4.41.64.54.1.05.44-.1.44-.17,0-.24.33-.48.01-.75-.13-.1-.22-.29-.24-.45-.06-.43-.06-.87-.08-1.21-.44-.06-.89-.13-1.37-.2ZM49.56,21.94c.6-.14.57-.16.85-.62.36-.59.79-1.14,1.17-1.73.08-.14.11-.36.06-.52-.04-.13-.22-.28-.36-.3-.69-.07-1.16.33-1.61.78.61.82.32,1.58-.11,2.39ZM45.76,13.19s-.04.05-.06.08c.17.36.39.71.48,1.08.19.7.71.95,1.33,1.11.32.08.46-.05.48-.33.03-.29,0-.58.04-.86.06-.46-.15-.79-.46-1.12-.59.42-1.2.55-1.82.04ZM59.12,20.6c.82.05,1.15-.31.89-.85-.31-.65-1.28-1.16-1.98-1.03-.3.06-.6.16-.9.25-.46.13-.53.31-.19.64.63.63,1.38.99,2.18.98ZM35.19,13.29s.07.08.1.12c.02,0,.05.02.07.02.11-.02.22-.04.33-.06.95-.14,1.92-.25,2.79.26.54.31.99.04,1.49,0-.07-.09-.14-.14-.21-.18-.76-.4-1.49-.82-2.27-1.18-1.05-.48-2.1-.44-3.08.21-.1.07-.18.18-.28.28.15.04.23.02.31-.01.28-.1.55-.24.84-.31.13-.03.36.05.41.15.05.1-.03.31-.11.42-.09.13-.26.19-.39.29ZM60.9,27.03c.02-.08.03-.11.03-.15-.08-.75-.18-1.5.06-2.24.02-.04,0-.1-.02-.14-.28-.4-.53-.82-.84-1.19-.21-.24-.47-.2-.6.09-.1.25-.17.54-.16.81.04.75.13,1.5.19,2.25.02.13,0,.26,0,.45.51-.21.94-.26,1.34.12ZM45.83,22.58c.11-.07.16-.09.19-.13.99-.8,1.77-1.84,2.89-2.5.14-.08.21-.47.15-.66-.04-.12-.41-.21-.6-.17-.26.04-.52.19-.74.35-.6.44-1.22.86-1.75,1.39-.47.47-.15,1.09-.14,1.72ZM48.61,10.92c-.13-.01-.26-.04-.38-.01-.09.02-.22.09-.23.17-.17.91.11,1.92,1.08,2.36.35.17.66.05.93-.2.29-.27.36-1.1.16-1.45-.35-.6-.84-.94-1.56-.86ZM55.04,18.87l.03.05c.88-.23,1.77-.45,2.65-.69.27-.07.23-.3.09-.45-.19-.21-.42-.4-.66-.55-.9-.56-2.44.11-2.97.73-.22.26-.13.62.18.74.22.08.46.11.69.17ZM41.81,21.72c.11-.05.17-.07.22-.1.67-.33,1.34-.68,2.03-.97.24-.1.42-.19.51-.47.15-.45.4-.49.8-.21.07.05.21.07.29.04.41-.13.81-.26,1.2-.44.2-.09.34-.28.52-.43l-.08-.11c-.14.02-.27.02-.41.04-1.23.26-2.47.52-3.71.79-.86.19-1.57.64-2.21,1.29.4.03.78.03.83.56ZM62.23,22.84c.24-.1.57-.15.72-.33.26-.3.18-.68-.04-1.02-.32-.49-1.41-.97-2.04-.83-.27.06-.55.17-.79.33-.28.18-.27.67-.02.89.61.52,1.3.84,2.15.96ZM64.97,16.41c1.35-1.98,1.66-4.21,1.49-6.55-1.01,2.06-1.82,4.17-1.49,6.55ZM50.47,14.37c.08.19.15.6.38.77.35.25.73-.04,1.07-.24.07-.04.13-.12.18-.19.37-.5.57-1.03.48-1.68-.07-.54-.49-1.06-1.03-1.11-.52-.05-.7.09-.75.61,0,.05-.02.1-.02.15-.09.52-.19,1.03-.3,1.7ZM44.26,21c-.11.02-.17.03-.21.04-1.25.54-2.45,1.16-3.41,2.15-.05.05-.1.14-.09.19.1.53.22,1.06.34,1.62.09-.06.14-.08.17-.11.9-.82,1.8-1.64,2.69-2.46.06-.06.11-.13.14-.21.13-.38.23-.77.37-1.21ZM46.69,13.02q.54,0,.67-.54c.04-.17.09-.34.13-.51.13-.67-.39-1.54-1.05-1.72-.4-.11-.81-.18-1.22-.23-.42-.06-.55.09-.41.49.21.55.42,1.1.69,1.63.24.47.58.89,1.2.89ZM53.47,16.66c.34-.08.92-.19,1.48-.35.53-.15.65-.51.33-.96-.3-.41-.55-.84-1.01-1.14-.35-.23-.63-.23-.91-.01-.51.39-.8.93-.89,1.56-.12.76,0,.89,1,.9ZM61.99,29.14c-.05,0-.1.01-.15.02-.08.15-.18.3-.22.46-.39,1.58-.76,3.17-1.13,4.74-.02.07.02.19.07.22.06.03.18.02.24-.03.31-.19.6-.41.91-.6.24-.15.33-.36.42-.63.31-.97.19-1.97.16-2.95-.01-.42-.19-.83-.29-1.24ZM41.99,19.98c.12-.02.2-.03.29-.06.87-.27,1.73-.57,2.61-.81.91-.24,1.83-.43,2.74-.66.13-.03.23-.16.34-.24-.08-.1-.14-.27-.24-.31-.3-.11-.61-.24-.93-.26-1.61-.05-3.13.46-4.66.94.33.49-.01.91-.16,1.38ZM33.29,16.14c.19-.03.26-.03.33-.04,1.04-.27,2.08-.53,3.12-.81.44-.11.88-.23,1.29-.41.17-.08.27-.33.35-.53.03-.07-.07-.26-.15-.29-.64-.3-1.29-.57-2.03-.38-.26.07-.5.18-.76.22-1.24.2-1.59,1.23-2.15,2.24ZM47.33,34.01c.04.42.07.85.11,1.27.03.31.21.4.46.2.22-.19.45-.41.59-.66.6-1.07.82-2.25.96-3.45.02-.15.02-.32-.04-.44-.07-.15-.2-.32-.33-.35s-.35.05-.46.17c-.84.92-1.32,1.99-1.29,3.27ZM49.08,34.88l.13.08c.6-.39,1.2-.76,1.79-1.16.15-.1.25-.29.31-.46.19-.5.33-1.02.52-1.53.17-.47.21-.93.03-1.4-.06-.16-.18-.44-.26-.43-.17.02-.34.17-.5.27-.05.03-.08.09-.12.15-.8,1.19-1.4,2.46-1.8,3.83-.06.21-.07.43-.1.65ZM58.19,24.32c.19-.11.49-.19.62-.38.32-.47.58-1-.04-1.48-.05-.04-.07-.1-.1-.16-.49-.74-1.04-1.43-1.86-1.81-.22-.11-.5-.15-.75-.14-.13,0-.35.2-.35.31,0,.28.05.59.19.82.3.47.67.9,1.03,1.34.4.49.81.97,1.27,1.5ZM43.9,12.79c.79-.02,1.1-.47.85-1.05-.12-.28-.28-.54-.44-.79-.19-.29-.36-.63-.63-.82-.62-.47-2.26-.36-2.82.15-.04.03,0,.22.05.27.18.13.42.19.58.34.32.31.6.66.91.98.46.47.96.89,1.49.92ZM49.82,26.05c-.2.24-.36.41-.48.6-.66.98-1.24,2.01-1.96,2.94-.73.95-.56,1.9-.27,3,.31-.61.59-1.15.86-1.69.24-.47.55-.84,1.09-.96.08-.02.17-.07.2-.14.58-1.04.91-2.15.74-3.35-.02-.11-.09-.21-.17-.4ZM56.47,37.08c0,.21-.04.43.01.64.04.17.15.41.28.44.16.05.46-.02.55-.15.27-.4.51-.82.69-1.27.17-.41.25-.86.34-1.3.19-.93.27-1.86.15-2.8-.02-.15-.19-.27-.29-.41-.1.08-.23.14-.3.25-.15.26-.27.53-.41.8-.61,1.19-1.02,2.44-1.01,3.8ZM46.27,25.36c.17-.21.32-.41.48-.59.59-.68,1.15-1.4,1.8-2.01.41-.38.77-.72.83-1.3.04-.33.14-.66.16-.99.02-.26-.15-.36-.4-.24-.09.04-.18.09-.27.15-1.04.59-1.85,1.44-2.59,2.36-.18.22-.35.51-.35.77,0,.57.13,1.14.21,1.7,0,.04.06.07.13.17ZM37.38.89c-.54,2.85-1.24,5.58-2.68,8.08.52-.54,1.02-1.09,1.46-1.68.9-1.2,1.83-2.39,2.21-3.89.24-.97-.1-2.01-.99-2.51ZM39.74,18.6c1.46-.39,2.9-.77,4.33-1.16.28-.08.55-.2.79-.34.13-.08.26-.26.27-.4.01-.11-.14-.28-.27-.35-.17-.09-.38-.16-.57-.15-.87.04-1.74.08-2.61.19-.63.08-1.25.26-1.86.42-.12.03-.3.18-.3.26.05.51.14,1.01.22,1.53ZM41.61,14.38c.05.58-.27.93-.71,1.18-.43.23-.89.41-1.32.63-.1.05-.16.19-.24.29.12.01.24.05.36.03.87-.18,1.73-.44,2.61-.53,1-.1,1.94-.33,2.86-.73.46-.2.53-.46.2-.83-.66-.73-1.55-.85-2.46-.94-.05,0-.14.05-.17.1-.24.45-.64.69-1.13.8ZM48.75,8.32s.03.01.05.02c.65-.28,1.29-.62,1.96-.81,1.66-.48,3.24-1.14,4.77-1.93.9-.47,1.77-.99,2.28-1.99-.45.17-.85.34-1.27.46-1.99.56-3.89,1.35-5.59,2.54-.77.53-1.47,1.15-2.21,1.72ZM46.57,29.81s.07.03.1.05c.28-.4.56-.79.83-1.19.6-.91,1.18-1.83,1.8-2.73.17-.23.43-.4.66-.59.11-.1.27-.16.34-.28.28-.46.51-.96.81-1.4s.62-.97,1.07-1.18c.47-.22.51-.51.51-.89,0-.48,0-.97-.1-1.44-.09-.42-.53-.49-.8-.14-.39.51-.73,1.04-1.07,1.58-.06.08-.02.27.04.38.15.31.26.59.14.96-.37,1.06-1.1,1.87-1.82,2.69-.54.61-1.08,1.22-1.6,1.84-.56.68-.75,1.51-.9,2.34ZM46.41,27.93c.61-.66,1.25-1.36,1.89-2.05.47-.51.97-.98,1.39-1.53.31-.39.54-.85.73-1.3.08-.2.05-.64-.03-.67-.24-.08-.54-.03-.81,0-.1.01-.2.1-.28.18-.48.46-.99.92-1.44,1.42-.45.48-.84,1.02-1.27,1.53-.28.33-.44.69-.35,1.14.08.45.14.91.19,1.29ZM62.61,33.13c.1,0,.14,0,.15-.01.04-.02.09-.05.13-.08.39-.45.67-.97.61-1.57-.14-1.64-.3-3.27-.49-4.9-.08-.66-.23-1.33-.85-1.73-.17-.1-.43-.16-.61-.1-.11.03-.19.32-.19.49-.02.74,0,1.48.01,2.22,0,.34,0,.68.03,1.01.03.23.14.34.39.17.28-.2.53-.13.67.17.1.21.2.45.21.68.04.94.04,1.88.04,2.82,0,.27-.06.54-.09.84ZM19.47,72.15s.05.08.07.12c.13-.05.25-.1.38-.14,2.03-.65,3.57-1.99,4.95-3.54.1-.11.17-.25.25-.38l2.84-4.61c.06-.09.12-.19.18-.28s.12-.19.23-.36c-1.35.72-2.38,1.59-3.03,2.91-.61,1.23-1.2,2.49-2.27,3.43-.74.66-1.48,1.31-2.24,1.93-.42.34-.9.62-1.35.93ZM39.27,15.86c.66-.13,1.32-.38,1.68-1.11.1-.19.11-.38-.12-.41-.52-.07-1.04-.1-1.56-.12-.1,0-.27.1-.3.19-.18.61-.69.82-1.21.96-1.1.29-2.21.55-3.32.78-1.21.25-1.79,1.21-1.88,2.48.54-.3,1.08-.57,1.58-.89,1.08-.67,2.21-1.19,3.46-1.41.29-.05.4-.18.52-.4.13-.24.3-.46.46-.68.2.18.41.36.68.61ZM53.74,31.58c.11-.05.18-.06.22-.09.6-.5,1.21-.99,1.81-1.51.17-.15.38-.31.43-.5.3-1.11.59-2.23.83-3.35.07-.33.01-.7-.05-1.04-.06-.32-.29-.41-.56-.23-.14.08-.27.2-.34.33-.28.49-.58.97-.78,1.49-.45,1.19-.86,2.41-1.26,3.61-.14.4-.2.82-.3,1.28ZM37.6,16.8c-.25.04-.44.04-.61.1-1.05.43-2.11.84-3.14,1.34-1.52.76-1.65,1.03-1.65,2.72,0,.18.03.35.04.61,2.07-1.33,4.13-2.51,5.35-4.78ZM56.84,29.09c.35-.18.57-.31.81-.4.19-.07.41-.11.61-.11.27.01.34.18.19.41-.09.15-.22.28-.3.43-.69,1.27-1.18,2.6-1.38,4.03,0,.05,0,.1.01.16.28-.48.53-.94.81-1.38.21-.32.48-.57.98-.45.1-.77.16-1.5.3-2.22.29-1.54.21-3.07-.07-4.59-.07-.36-.24-.43-.49-.17-.2.2-.43.43-.51.69-.34,1.16-.63,2.33-.96,3.61ZM49.98,31.43s0,.01.01-.01c.03-.04.05-.09.06-.14.23-.65.6-1.21,1.14-1.65.08-.07.14-.2.17-.32.4-1.34.83-2.68,1.18-4.04.15-.58.17-1.21.2-1.82.02-.38-.25-.58-.55-.45-.14.06-.29.17-.38.29-.38.55-.74,1.1-1.08,1.67-.18.3-.4.63-.09.99.04.05.02.15.03.22.1,1.2-.29,2.27-.82,3.31-.1.19-.22.43-.19.63.06.46.21.9.32,1.33ZM58.54,36.36s.06.04.08.05c.44-.43,1.09-.64,1.22-1.36.13-.73.26-1.45.4-2.18.17-.85.28-1.71.54-2.53.19-.58.39-1.14.19-1.73-.14-.43-.31-.86-.54-1.26-.16-.28-.47-.22-.61.09-.05.1-.07.21-.09.32-.17.87-.35,1.74-.51,2.61-.17.97-.48,1.93-.27,2.94.03.12.01.25-.01.38-.1.66-.22,1.31-.32,1.96-.04.24-.06.48-.08.72ZM37.54,48.99s.07.04.1.06c-.02.06-.02.12-.04.17-.22.47-.43.94-.67,1.39-.16.31-.07.51.2.69.51.35,1.09.34,1.66.38.61.04.81-.11.74-.72-.1-.97-.36-1.92-1.04-2.68-.08-.09-.26-.17-.39-.16-.52.05-1.05.09-1.56.19-.92.18-1.78.51-2.55,1.06-.24.18-.3.34-.01.51.37.22.73.49,1.14.64.66.25,1.23.21,1.75-.56.21-.32.45-.64.68-.96ZM34.73,11.74s.05.09.08.14c.09-.04.18-.07.27-.1.72-.29,1.48-.4,2.2-.07.81.36,1.57.82,2.35,1.24.61.33,1.18.77,1.91.84.39.04.64-.15.68-.48.09-.84-.15-1.51-.92-1.94-.29-.16-.59-.3-.84-.49-.8-.6-1.73-.7-2.68-.76-.19-.02-.43-.01-.58.08-.83.5-1.65,1.03-2.47,1.55ZM64.26,32.01c.26-.07.49-.14.73-.21.48-.17.6-.4.56-.92-.03-.32.03-.65.03-.97,0-.28,0-.55-.04-.82-.07-.53-.16-1.06-.27-1.59-.27-1.25-.53-2.49-.84-3.73-.06-.26-.29-.5-.48-.71-.24-.26-.75-.19-.85.13-.11.36-.23.8-.11,1.13.69,2.02.83,4.12,1.1,6.21.06.48.1.96.16,1.48ZM26.88,46.93c.4.96.96,1.66,1.85,2.06.4.18.82.32,1.23.46.53.18,1.07.34,1.61.48.15.04.32-.01.47-.02-1.09-.97-2.02-2.1-3.58-2.22.75-.14,1.42,0,2.23.51.55.34,1.07.75,1.62,1.09.14.09.4.14.53.08.4-.18.77-.43,1.14-.66.32-.2.33-.55.03-.78-1.13-.88-2.4-1.28-3.82-1.21-.65.03-1.31.04-1.96.08-.44.03-.89.08-1.38.13ZM21.11,43.09s.02-.03.03-.04l-.39-.48c-.52-.66-1.04-1.31-1.56-1.97-.49-.63-1.03-1.23-1.44-1.91-.5-.82-1.16-1.37-2.05-1.67-.08-.03-.17-.06-.25-.09-.07-.03-.13-.07-.24-.14.78.06,1.36.42,1.93.87-.56-2.27-2.31-3.7-3.55-5.51-.03,1.33.43,3.64.94,4.78.1.21.24.41.39.6.7.89,1.43,1.74,2.33,2.44.15.11.29.26.4.41.86,1.16,2.1,1.84,3.26,2.63.07.04.15.07.22.1ZM1.83,43.43c.06.14.1.27.18.39.62,1.04,1.26,2.08,1.87,3.13.78,1.32,1.91,2.29,3.11,3.18,1.54,1.14,3.22,2.03,4.95,2.84,1.03.48,2.08.89,3.26.76.11-.01.21-.08.31-.13-.08-.09-.15-.2-.24-.24-.28-.12-.57-.2-.84-.31-.92-.4-1.82-.84-2.77-1.19-2.24-.82-3.99-2.27-5.45-4.11-.6-.77-1.25-1.51-1.95-2.19-.76-.74-1.6-1.4-2.43-2.11ZM51.9,33.03s.08.04.11.06c.13-.1.28-.17.36-.3.29-.42.59-.84.82-1.3.21-.42.33-.89.51-1.33.69-1.73,1.21-3.5,1.4-5.36.06-.58.11-1.15-.11-1.71-.13-.32-.38-.45-.68-.3-.17.08-.33.22-.46.36-.48.55-.6,1.23-.79,1.92-.35,1.32-.8,2.61-1.22,3.92-.07.21-.15.41.17.5.08.02.13.17.18.27.4.87.19,1.71-.1,2.56-.08.23-.13.47-.19.71ZM29.88,5.41c.08.38.15.66.2.93.2.99.42,1.98.58,2.98.15.86.19,1.74.35,2.6.11.59.32,1.17.49,1.74.83-.22,1.47-.52,1.57-1.42.11-.99.38-1.94.92-2.8.15-.24.07-.41-.12-.58-.36-.33-.77-.63-1.06-1.01-.69-.87-1.63-1.44-2.45-2.16-.1-.09-.25-.15-.48-.28ZM25.66,18.59c.05.02.1.04.14.06.15-.15.3-.3.43-.45,1.19-1.4,2.49-2.67,4-3.73.47-.33.58-.67.42-1.24-.46-1.54-.7-3.13-.8-4.73-.03-.52-.11-1.03-.18-1.55-.2.54-.34,1.07-.44,1.61-.47,2.47-1.35,4.79-2.46,7.04-.38.77-.67,1.57-.98,2.36-.08.19-.08.42-.13.63ZM49.49,53.58c-.44-.24-.79-.48-1.18-.63-1.43-.53-2.92-.63-4.41-.51-.82.06-1.63.24-2.45.36-.26.04-.53.02-.78.08-.15.03-.31.13-.39.25-.05.07.02.29.1.35.35.28.7.62,1.11.75.95.3,1.93.24,2.88-.11.3-.11.58-.24.88-.36.02.03.04.06.06.09-.1.08-.2.16-.31.23-.81.51-1.72.67-2.65.79-.13.02-.26.11-.38.17.11.1.2.26.33.3.55.18,1.1.35,1.66.49.6.16,1.22.14,1.77-.15,1.23-.65,2.43-1.35,3.78-2.1ZM27.59,44.45c.05,0,.1,0,.15,0,.04-.25.11-.49.13-.74.1-1.58.18-3.16.65-4.68.03-.09.04-.21,0-.29-.31-.69-.77-1.27-1.46-1.61-1.17-.58-2.29-1.23-3.31-2.05-.22-.17-.46-.3-.75-.49.59,1.8,1.13,3.51,2.05,5.09.92,1.56,1.44,3.33,2.54,4.79ZM53.36,56.68s0,.05,0,.08c.3.04.59.08.89.11,1.22.13,2.45.19,3.66-.18.92-.28,1.84-.57,2.79-.76,1.3-.26,2.48-.8,3.68-1.32.42-.19.9-.44,1.15-.8.48-.71.84-1.51,1.21-2.29.16-.34.22-.73.32-1.09-.04-.02-.08-.04-.11-.06-.22.26-.48.5-.67.79-.42.66-1.02,1.09-1.73,1.38-1.2.48-2.34,1.08-3.38,1.86-1.24.93-2.72,1.09-4.19,1.26-.16.02-.33,0-.48-.05-1.09-.35-2.18-.36-3.29-.1-.54.13-1.13.18-1.67.11-.71-.1-1.4-.36-2.11-.54-.77-.18-1.51-.24-2.05.53,1.16.24,2.33.44,3.47.74,1.14.3,2.22.27,3.32-.15.27-.1.55-.14.83-.2l.02.05c-.54.22-1.09.43-1.63.65ZM15.32,33.61c-.19-1.58.1-3.11-.44-4.58.09.14.15.27.2.41.34.94.26,1.93.34,2.9.06.68.19,1.38.44,2,.3.74.78,1.42,1.17,2.14.36.66.64,1.37,1.05,1.99.56.86,1.17,1.7,1.84,2.46.6.68,1.33,1.26,1.99,1.88.03-.03.05-.05.08-.08-.2-.28-.41-.56-.59-.85-.45-.73-.89-1.46-1.31-2.2-.53-.92-1.13-1.82-1.54-2.8-.6-1.45-1.16-2.95-1.58-4.46-.59-2.09-1.5-4.05-2.21-6.08-.19-.55-.33-1.11-.52-1.76-.02.2-.03.32-.04.45-.06.67-.1,1.35-.19,2.02-.11.89-.31,1.76-.4,2.64-.06.58-.1,1.2.03,1.75.22.91.96,1.48,1.67,2.17ZM48.11,56.3s-.02.06-.03.09c1.27.7,2.17,1.94,3.62,2.35.09.03.18.09.27.13.84.35,1.67.77,2.53,1.03.82.25,1.67.26,2.5-.13.64-.3,1.33-.51,2.02-.72.54-.17,1.13-.21,1.63-.44,1.58-.73,2.82-1.88,3.72-3.44-1.85.69-3.71,1.37-5.56,2.06,0,.04-.01.08-.02.11.73.11,1.47.22,2.19.33-.73.17-1.45.02-2.18-.13-.48-.1-.99-.18-1.48-.14-2.11.2-4.17-.07-6.22-.55-.88-.2-1.77-.38-2.65-.55-.1-.03-.22,0-.33,0ZM34.55,13.22c-.41.18-.86.39-1.33.57-.63.24-1.35.34-1.9.7-1.22.82-2.44,1.66-3.48,2.68-1.16,1.12-1.86,2.6-2.64,4.01-.79,1.44-1.06,3.02-1.2,4.63-.06.65-.11,1.32.13,2.01.09-.14.16-.23.22-.32.95-1.48,1.89-2.98,2.87-4.46.86-1.3,1.97-2.45,2.48-3.97.04-.11.24-.27.32-.24.13.04.26.2.29.33.13.55.19,1.11.31,1.66.16.73.36,1.44.54,2.17.05,0,.1-.01.15-.01.09-.42.21-.82.27-1.24.1-.64.17-1.27.24-1.91.2-1.77.75-3.43,1.59-4.99.32-.58.77-1.09,1.13-1.61ZM57.65,4.84c-.1.05-.14.07-.17.09-1.81,1.31-3.85,2.16-5.97,2.79-1.38.41-2.58,1.09-3.63,2.06-.12.11-.12.37-.17.56.17.03.34.1.51.09.77-.05,1.44.22,2.09.6.26.16.54.28.83.38.2.07.43.05.63.11.35.11.59,0,.74-.31.51-.99,1.25-1.78,2.1-2.47.66-.54,1.23-1.14,1.66-1.88.05-.08.12-.14.18-.2-.16.66-.45,1.23-.96,1.66-.76.64-1.34,1.41-1.95,2.18-.69.86-.77,1.78-.29,2.76.04.08.14.16.22.18.89.24,1.66.65,2.23,1.42.32.44.56.32.8-.18.61-1.29.61-2.67.73-4.04.08-1,.13-2,.2-3,.06-.91.14-1.82.22-2.79ZM31.13,36.83s.04.03.05.06c.05.15.11.29.11.44.05,1.25.12,2.51.11,3.76-.01,1-.17,2-.16,3.01,0,.63.18,1.26.32,1.88.03.13.21.25.35.31.34.16.64-.02.95-.58.43-.76.83-1.55,1.27-2.3.78-1.33.88-2.66.16-4.07-.84-1.66-1.9-3.16-3.08-4.58-.08-.09-.16-.18-.27-.31-.25.72-.45,1.4-.7,2.05-.72,1.82-1.4,3.66-1.57,5.64-.09,1.07-.3,2.14-.03,3.21.07.3.23.49.52.59.24.09.49.18.75.23.55.11.94-.2.96-.76.02-.5-.01-1.01.02-1.51.07-1.7.17-3.41.23-5.11.03-.65,0-1.3,0-1.95ZM23.13,29.44c.05,0,.1,0,.15,0,.06-.15.16-.3.17-.45.13-1.6-.15-3.16-.58-4.68-.43-1.54-1.26-2.92-2.03-4.31-.51-.92-.5-1.91-.46-2.91.2,1.11.21,2.28.96,3.24-.3-2.63-.18-5.19.98-7.68-.21.94-.42,1.82-.62,2.7.03.01.06.02.09.03.18-.28.36-.56.54-.84.03.02.07.03.1.04-.69,1.2-.98,2.47-.92,3.86.07,1.36.35,2.63,1.11,3.88.08-.66.14-1.22.21-1.77-.1,1.39-.16,2.77.74,3.92.11-.46.3-.96.35-1.48.06-.61.26-1.2.03-1.85-.58-1.61-.84-3.27-.67-4.99.14-1.43.21-2.86.29-4.29.01-.26-.06-.53-.15-.77-.04-.11-.27-.27-.36-.24-.33.09-.73.18-.93.42-.86,1.03-1.66,2.14-1.99,3.46-.44,1.77-.55,3.56-.31,5.38.35,2.59.85,5.14,2.11,7.46.35.65.79,1.24,1.19,1.86ZM39.43,4.36c.03.18.05.26.05.34.01.73.22,1.4.54,2.06.35.71.65,1.44.93,2.18.15.37.37.55.75.56.49,0,.98-.04,1.46.01,1.01.1,2.01.25,3.02.39.45.06.57-.04.51-.51-.16-1.21-.73-2.23-1.68-2.97-1.06-.84-2.19-1.59-3.32-2.32-.77-.49-1.54-.94-2.05-1.72-.1-.15-.22-.28-.33-.42.11.66.03,1.28-.25,1.85-.65,1.32-1.37,2.59-2.4,3.67-1.24,1.3-2.15,2.83-2.92,4.45-.02.05-.02.11-.03.22.09-.05.15-.07.19-.11.43-.34.86-.68,1.3-1.02,1.24-.97,2.57-1.63,4.2-1.07.03,0,.05,0,.08.01.68.15,1.29-.67.96-1.23-.12-.2-.2-.43-.32-.64-.67-1.13-1.02-2.31-.69-3.71ZM65.26,25.34c.33-2.19,1.36-3.98,3.07-5.4-.26.41-.54.8-.84,1.18-.97,1.23-1.67,2.56-1.6,4.19.01.27-.03.55-.03.83.01.6-.05,1.22.07,1.8.13.63.23,1.24.19,1.9-.05.65.37,1.24,1.16.9.33-.15.67-.3.97-.49.16-.11.32-.3.39-.48.15-.4.29-.81.34-1.23.11-.96.18-1.93.24-2.89.11-1.67.14-3.34.76-4.93.34-.89.65-1.81.98-2.76-.15-.03-.35-.09-.55-.09-1.28,0-2.49.24-3.62.88-1.12.63-2.05,1.45-2.58,2.64-.15.34-.28.72-.07,1.1.18.31.4.6.52.93.23.63.41,1.28.61,1.92ZM42.57,51.97s.04.07.05.11c.2,0,.39.01.58,0,.74-.05,1.47-.09,2.21-.15.4-.04.79-.09,1.18-.17.16-.03.33-.14.44-.26.77-.89,1.27-1.93,1.65-3.02.52-1.51.55-3.07.3-4.65-.06-.37-.14-.43-.46-.24-.6.35-1.19.74-1.8,1.09-.48.27-.95.59-1.46.75-1.83.57-3.43,1.52-4.88,2.75-.22.19-.42.41-.56.66-.09.15-.16.4-.1.55.28.77.39,1.52.12,2.31-.15.45.13.69.6.68.55,0,1.03-.17,1.46-.5.24-.18.51-.33.76-.49,2.03-1.23,3.66-2.84,4.65-5.04.06-.14.14-.27.2-.41.07-.13.14-.26.21-.39-.74,2.23-1.97,4.1-3.97,5.41-.43.28-.8.66-1.2,1ZM66.1,9.42c-.06,0-.15-.02-.23-.02-.97.07-1.95.13-2.93.21-1.14.09-2.19.49-3.06,1.22-.69.58-1.3,1.26-1.91,1.92-.21.23-.39.54-.48.84-.22.77-.4,1.55-.59,2.33-.1.42.05.69.44.86.26.11.53.24.76.4.3.2.54.45.41.88-.02.06.16.26.22.24.17-.04.38-.11.47-.23.22-.28.42-.57.55-.9.68-1.6,1.43-3.15,2.6-4.46.15-.16.29-.32.44-.47s.3-.29.44-.43c.03.03.06.05.08.07-1.17,1.28-1.93,2.81-2.73,4.32-.39.74-.68,1.52-.64,2.36.02.21.18.41.29.6.12.2.32.36.39.57.08.26.2.36.46.39.68.08,1.34.22,1.86.71.35.32.49.26.59-.21.09-.41.14-.82.26-1.21.35-1.19.52-2.39.53-3.63.02-1.53.38-3.01.9-4.44.23-.65.56-1.27.85-1.92ZM63.97,56.89c.82-.38,1.54-.72,2.27-1.05.02-.01.04-.03.06-.05.68-.51,1.37-1.01,2.04-1.54.29-.23.57-.49.79-.79.68-.9,1-1.96,1.27-3.04.25-.97.26-1.94-.23-2.86-.14-.26-.28-.51-.38-.78-.07-.19-.08-.4-.12-.6.03,0,.06,0,.08,0,.26.45.52.91.77,1.36.03-.01.07-.02.1-.02-.06-2.69.14-5.32,1.57-7.7-.52,1.35-.88,2.74-1.09,4.17.03.02.06.03.08.05l1.69-2.3c-.01.12-.04.23-.1.32-.38.59-.75,1.19-1.15,1.76-.37.53-.62,1.08-.61,1.74,0,.82,0,1.63,0,2.45,0,.32.08.65.07.97-.02.46-.06.92-.16,1.36-.18.76-.41,1.49-.62,2.23.68-.76,1.29-1.56,1.9-2.36.11-.16.18-.36.26-.55.86-2.06,1.25-4.23,1.39-6.44.07-1.2,0-2.41.07-3.61.04-.64-.22-1.12-.52-1.6-.07-.11-.3-.2-.45-.19-.66.07-1.24.37-1.64.91-.53.72-1.01,1.49-1.48,2.26-.15.23-.23.51-.3.77-.34,1.16-.66,2.32-.6,3.55.02.3-.03.6-.07.9-.33,2.29-1.09,4.46-2.07,6.54-.59,1.24-1.35,2.4-2.26,3.45-.17.19-.32.4-.55.69ZM43.18,40.59s.07.08.1.12c-2.57,1.71-4.57,3.86-5.45,6.99.54-.18.86.07,1.15.42.2.24.56.24.73.03.84-1.05,2.06-1.57,3.18-2.24.67-.4,1.11-.86,1.11-1.71,0-1.63.35-3.19,1.02-4.67.04-.08.06-.18.08-.25-1.68-.14-3.29.12-4.88.44-.55.11-1.1.28-1.6.52-1.82.9-3.3,2.21-4.38,3.92-.4.63-.65,1.34-.92,2.05-.13.34.02.65.35.87.34.23.64.53.97.76.16.11.39.22.57.2.48-.05.96-.15,1.43-.27.21-.05.46-.15.57-.31.32-.46.63-.94.84-1.45.73-1.71,1.82-3.15,3.29-4.28.57-.44,1.22-.77,1.83-1.14ZM49.18,52.3c.15.02.22.04.29.02.7-.19,1.43-.32,2.1-.58,2.58-1.01,4.73-2.67,6.71-4.56,1.32-1.26,2.55-2.59,4.12-3.54.04-.03.07-.08.07-.08-1.06-.13-2.12-.24-3.18-.39-1.31-.18-2.61-.35-3.94-.15-1.09.17-2.2.22-3.2.75-.35.19-.7.39-1.07.55-.94.41-1.36,1.2-1.46,2.13-.18,1.7-.57,3.3-1.59,4.71-.09.14-.14.33-.15.49,0,.15.06.36.16.42.13.06.35.04.48-.04,1.09-.66,2.06-1.47,2.86-2.46.68-.83,1.44-1.56,2.33-2.11,1.18-.74,2.4-1.41,3.61-2.09.34-.19.73-.3,1.1-.44-.64.44-1.28.86-1.96,1.2-1.66.82-3.07,1.94-4.3,3.31-.85.95-1.68,1.94-2.79,2.61-.07.04-.11.13-.22.25ZM37.71,19.15c.05.01.1.02.15.03-.03.2-.02.42-.09.61-.34.93-.72,1.84-1.05,2.78-.6,1.71-1.23,3.42-1.4,5.26-.09.94-.13,1.84.37,2.7.17.3.33.4.6.24.32-.18.61-.43.94-.6.65-.35,1.16-.89,1.72-1.33.47-.37.82-1.06.95-1.67.28-1.27.45-2.54.03-3.85-.44-1.39-.73-2.81-.76-4.29-.01-.66-.11-1.32-.21-1.98-.05-.32-.17-.64-.28-1.03-.2.39-.32.7-.51.98-.32.51-.62,1.04-1.02,1.48-1.13,1.23-2.43,2.24-3.85,3.11-.97.59-1.28,1.46-1.08,2.55.13.69.22,1.39.42,2.06.16.55.42,1.07.7,1.57.28.47.65.89.98,1.33.05.07.14.12.27.24.15-.72.32-1.35.4-1.99.2-1.61.76-3.12,1.35-4.61.39-.99.8-1.97,1.19-2.96.08-.2.11-.41.17-.61ZM13.19,34.8c-.08-1.01-.21-1.9-.2-2.78.01-1.22.08-2.45.21-3.67.16-1.41.45-2.8.62-4.2.1-.86.06-1.73.46-2.54.23-.46.44-.93.63-1.41.6-1.47,1.11-2.99,2.04-4.31.11-.16.19-.36.23-.55.12-.53-.19-1.08-.68-1.16-.84-.14-1.68-.13-2.48.2-.82.34-1.46.96-1.97,1.64-.56.73-1.02,1.55-1.41,2.39-1.03,2.23-1.4,4.58-.98,7.02.05.28.15.55.24.9.06-.14.09-.19.11-.24.42-1.33.82-2.66,1.24-3.98.23-.73.5-1.44.73-2.17.34-1.04.66-2.09.98-3.14-.04.48-.16.94-.28,1.4-.13.45-.26.9-.39,1.35.03,0,.06.01.09.02.45-.75.9-1.5,1.35-2.25-1.24,2.51-2.26,5.1-3.21,7.73.53-.29,1.01-.56,1.49-.82.03.04.05.08.07.11-.16.1-.32.2-.49.3-1.14.68-1.67,1.86-1.41,3.14.22,1.07.41,2.15.67,3.21.13.54.31,1.1.6,1.56.49.76,1.09,1.45,1.71,2.27ZM71.92,29.31s-.02-.04-.03-.06c-.21.07-.43.12-.62.21-1.6.77-3.22,1.51-4.79,2.33-2.04,1.07-3.9,2.43-5.7,3.85-1.97,1.55-3.51,3.5-5.07,5.43-.29.35-.47.78-.75,1.23.24.02.39.03.53.03.83,0,1.66,0,2.48.02.43.02.86.11,1.3.17.21.03.43.04.63.09.71.19,1.38.07,1.91-.4,1.03-.91,2.02-1.84,2.99-2.8,1.01-1.01,1.83-2.16,2.34-3.52.31-.81.69-1.59,1.1-2.35.8-1.52,1.84-2.84,3.2-3.89.16-.13.32-.23.48-.35ZM11.1,73.11c-.71.07-1.36.13-2,.21-1.06.14-2.11.3-3.08.8-.34.18-.72.3-1.06.5-.39.23-.79.48-1.1.81-.33.34-.55.78-.83,1.16-.62.83-.51,1.69-.08,2.55.24.48.6.64,1.13.64.6-.01,1.21.02,1.8.1,1.2.17,2.36.44,3.61.22,1.92-.33,3.77-.77,5.27-2.11.21-.19.52-.3.79-.42.83-.35,1.68-.65,2.48-1.04.96-.46,1.86-1.04,2.81-1.5,1.06-.52,1.84-1.4,2.69-2.16.74-.67,1.35-1.48,1.96-2.28,1.07-1.39,1.83-2.94,2.36-4.6.39-1.19.72-2.4,1.33-3.51.03-.05.04-.1.06-.16-.03-.02-.06-.04-.08-.06-.02.05-.03.09-.06.14-1.66,2.68-3.49,5.27-4.53,8.29-.06.19-.14.39-.24.55-.23.33-.49.65-.77,1.02.43-.92.83-1.76,1.23-2.59l-.11-.06s-.08.04-.12.07c-1.32,1.3-2.82,2.31-4.63,2.85-.85.26-1.64.68-2.1,1.53-.22.41-.51.78-.78,1.16-.6.84-1.22,1.66-2.29,1.97-.28.08-.55.16-.82.27-1.2.48-2.93-.59-3.11-1.66-.39.18-.81.28-1.11.52-.72.57-1.37,1.21-2.07,1.8-.31.26-.67.44-1.01.67-.03-.04-.05-.08-.08-.12,1.29-.52,1.88-1.83,2.98-2.6-.92.11-1.84.2-2.7.47s-1.66.74-2.42,1.09c.69-.63,1.46-1.27,2.48-1.47s2.05-.33,3.08-.49c.25-.04.5-.07.74-.13.08-.02.19-.14.2-.21.07-.7.12-1.4.19-2.21ZM57.71,29.21c-.15.1-.25.16-.34.24-.8.7-1.6,1.41-2.41,2.1-1.87,1.63-3.84,3.1-6.06,4.24-1.41.72-2.81,1.44-4.21,2.18-.14.07-.26.19-.35.32-.06.09-.06.22-.09.34.11.03.23.07.34.07.25-.01.49-.07.74-.08.34,0,.45.14.38.48-.02.11-.06.22-.1.32-.54,1.19-.85,2.44-1,3.73-.06.54-.05,1.08-.09,1.76,1.47-.78,2.84-1.5,4.22-2.21.15-.08.42-.18.49-.11.13.11.16.34.18.53.03.25,0,.51,0,.76.04.01.08.03.12.04.22-.41.49-.81.67-1.23.94-2.18,1.83-4.38,2.82-6.53.47-1.03,1.07-2.01,1.7-2.96.39-.59.94-1.08,1.41-1.62.03.03.07.06.1.09-.07.09-.15.18-.22.26-1.03,1.07-1.82,2.29-2.39,3.67-.51,1.24-1.09,2.45-1.58,3.7-.55,1.4-.96,2.86-1.73,4.17-.08.14-.11.31-.19.51.18-.02.29-.02.38-.05,1.62-.55,3.18-1.2,4.24-2.64.27-.36.55-.78.64-1.21.26-1.21.45-2.44.61-3.67.13-1.07.08-2.16.28-3.21.25-1.36.79-2.65,1.42-3.97ZM29.98,19.67c-.29.53-.53,1.04-.83,1.51-.92,1.41-1.85,2.8-2.8,4.19-.91,1.34-1.81,2.69-2.26,4.27-.15.53-.24,1.11-.19,1.66.06.7.25,1.41.46,2.08.35,1.16.98,2.15,2.1,2.73.26.13.56.18.84.26.05-.34.2-.7.13-1.01-.3-1.36-.23-2.73-.02-4.08.2-1.3.47-2.59.76-3.88.35-1.61.75-3.22,1.13-4.83,0-.02.04-.03.11-.07,0,.31.05.6-.01.86-.24,1.19-.52,2.38-.77,3.56-.23,1.07-.5,2.13-.63,3.21-.27,2.14-.15,4.29.18,6.42.03.18.05.38.14.54.08.16.22.34.38.38.11.03.33-.13.41-.25.21-.31.39-.65.55-.98.34-.71.66-1.44.99-2.15.11-.24.3-.31.52-.17.26.16.52.31.74.51.26.23.43.17.63-.06.58-.66,1.17-1.31,1.76-1.96.31-.35.39-.99.13-1.38-.32-.49-.65-.98-.97-1.48-.7-1.09-1.22-2.27-1.67-3.49-.76-2.08-1.72-4.09-1.79-6.41ZM33.63,57.74l-.09.02c-.14.89-.2,1.8-.42,2.67-.54,2.09-.79,4.23-.91,6.36-.16,2.92.85,5.59,2.17,8.16.77,1.51,1.53,3.02,2.28,4.54.36.73.67,1.48,1.04,2.21.16.31.36.6.61.85.76.76,1.56.69,2.07-.24.75-1.35,1.19-2.82,1.14-4.39-.02-.48-.16-.96-.22-1.45-.37-3.07-.77-6.13-1.86-9.05-.24-.64-.54-1.27-.86-1.87-.6-1.08-1.25-2.14-1.88-3.21l-.02-.03c-.44-1.34-1.32-2.39-2.3-3.42.03.14.05.26.06.38.08.58.17,1.16.26,1.74.02.17.03.35.07.52.26,1.06.87,1.91,1.55,2.72.37.44.81.83,1.18,1.27.26.3.46.66.51,1-1.01-1.18-2.04-2.38-3.09-3.6,0,1.2-.09,2.32.03,3.41.09.81.36,1.64.74,2.35.47.89,1.13,1.68,1.73,2.49.33.45.78.83,1.09,1.29.48.71.9,1.47,1.33,2.22.08.14.08.31.12.47-.04.03-.09.05-.14.07-.8-2.1-2.48-3.55-3.7-5.33.78,1.95,1.64,3.86,2.36,5.82.73,1.98.67,4.09.94,6.15-.07.01-.14.02-.2.03-.22-1.68-.43-3.36-.65-5.05-.07,0-.14.01-.21.02v2.38s-.09,0-.14-.01c-.01-.12-.02-.24-.02-.36,0-.73,0-1.46.03-2.19.02-.68-.09-1.32-.37-1.94-.42-.94-.85-1.87-1.28-2.81-.58-1.26-1.22-2.5-1.56-3.86-.21-.85-.48-1.68-.73-2.56-.28,1.08-.57,2.15-.85,3.22-.04,0-.08-.01-.11-.02,0-.15-.03-.31,0-.45.13-.55.28-1.09.42-1.64.25-.97.63-1.91.54-2.95-.08-1-.06-2.01-.18-3.01-.11-.98-.33-1.94-.5-2.92ZM35.53,41.26c.56-.36.71-.9.91-1.42.48-1.33.99-2.65,1.82-3.82.74-1.05,1.43-2.13,2.15-3.18.57-.83,1.23-1.6,1.71-2.47.92-1.68,1.71-3.43,2.16-5.32.06-.25.15-.49.23-.74-.05.53-.12,1.06-.28,1.55-.7,2.18-1.51,4.3-2.9,6.17-1.02,1.38-1.86,2.89-2.83,4.31-.62.91-1.02,1.87-1.13,2.95-.02.15,0,.37.09.44.09.07.31.03.45-.03,1.49-.61,3.03-.96,4.64-1.06.21-.02.46-.11.63-.24.95-.75,1.92-1.46,3.04-1.94.24-.1.32-.27.32-.49-.01-1.43-.04-2.85-.36-4.27-.21-.91-.31-1.85-.44-2.78-.05-.33-.06-.67-.09-1.01-.11-1.17-.24-2.34-.33-3.51-.08-1.13-.13-2.26-.19-3.39,0-.07-.03-.13-.05-.26-.16.4-.31.73-.42,1.07-.53,1.61-1.31,3.09-2.35,4.43-.95,1.22-2.06,2.29-3.15,3.38-.66.67-1.39,1.18-2.23,1.56-.07.03-.14.06-.2.11-1.24.88-2.39,1.86-3.36,3.05-.59.72-.62,1.21-.07,1.96.99,1.36,1.59,2.89,2.03,4.5.04.16.15.29.23.45ZM30.61,54.58c-.23-.02-.37-.06-.49-.03-.95.21-1.94.07-2.89.41-1.9.67-3.52,1.77-5.04,3.03-.97.81-1.82,1.76-2.73,2.65-.73.71-1.55,1.35-1.9,2.38-.26.77-.79,1.34-1.37,1.9-.62.6-1.15,1.29-1.7,1.96-.63.77-1.23,1.56-1.82,2.35-.44.59-.78,1.28-.79,2.01,0,1.19-.16,2.34-.43,3.5-.3,1.3.77,2.55,2.02,2.34,1.03-.17,1.9-.72,2.59-1.48.49-.55.89-1.18,1.32-1.78.7-.99,1.58-1.81,2.55-2.54,1.07-.8,2.22-1.52,3.01-2.65.17-.24.39-.46.56-.7.34-.48.76-.94.96-1.47.29-.77.72-1.43,1.22-2.06.54-.68,1.08-1.35,1.57-2.06.31-.44.5-.95.79-1.41.61-.97.99-2.02,1.25-3.13.12-.51.35-1.03.67-1.44.33-.43.82-.73,1.24-1.08.14-.12.28-.25.42-.38-.02-.03-.03-.06-.05-.08-.4.12-.83.16-1.17.38-.61.38-1.26.77-1.71,1.31-.63.74-.9,1.7-1.16,2.63-.03.1-.05.2-.08.29-.03.08-.06.15-.09.23.15-1.35.41-2.65,1.33-3.73-.08,0-.13.01-.16.04-2.43,1.49-4.24,3.54-5.47,6.11-.37.77-.76,1.54-1.2,2.26-.59.94-.98,1.94-1.17,3.03-.11.71-.21,1.42-.32,2.13-.03.18-.08.35-.13.53-.05-1.22.39-2.41.13-3.71-.85.88-1.67,1.67-2.43,2.52-1,1.13-1.96,2.3-2.47,3.74-.07.2-.17.4-.29.57-.06.09-.19.13-.29.19-.01-.12-.07-.27-.02-.36.39-.81.79-1.62,1.18-2.43.02-.03,0-.06,0-.11-.98.33-1.73.98-2.48,1.62.54-.76,1.26-1.32,2.05-1.79.42-.24.91-.42,1.24-.76.69-.69,1.3-1.46,1.93-2.21.66-.77,1.33-1.54,1.96-2.33.46-.59.92-1.19,1.29-1.84.44-.76.78-1.56,1.16-2.35,0-.02-.02-.04-.04-.08-1.33.61-2.66,1.23-3.99,1.84.51-.33,1.02-.66,1.57-.9,1.57-.68,2.93-1.65,4.04-2.94,1.59-1.82,3.46-3.22,5.84-4.11ZM25.09,51.15s0-.03,0-.04c-.24-.07-.49-.15-.74-.23-1.13-.38-2.26-.76-3.39-1.15-.99-.35-2.02-.55-2.93-1.2-1.56-1.11-3.11-2.26-4.54-3.54-.86-.78-1.64-1.66-2.45-2.49-.61-.63-1.26-1.23-1.79-1.92-.86-1.1-1.64-2.28-2.45-3.42-.58-.81-.99-1.69-1.17-2.67-.24-1.31-.83-2.41-2.02-3.11-.69-.41-1.8-.22-2.26.43-.55.76-.69,1.64-.69,2.54,0,1.38.04,2.76.51,4.09.06.16.1.35.07.52-.1.82.11,1.58.29,2.36.23,1.01.68,1.82,1.5,2.44,1.58,1.18,2.78,2.71,3.98,4.24,1.04,1.32,2.19,2.47,3.78,3.12.63.26,1.26.52,1.89.77,1.1.44,2.19.95,3.32,1.31,1.54.49,3.13.38,4.7.2.72-.08,1.47-.12,2.15-.35,1.31-.46,2.65-.78,4.02-.94.55-.07,1.1-.16,1.67-.25-1.01-.12-1.99-.26-2.97-.35-.47-.05-.95.01-1.43.02-.8,0-1.6.02-2.4.01-.41,0-.82-.11-1.23-.1-1.01.03-1.97-.15-2.88-.6-.3-.15-.63-.27-.96-.32-1.01-.18-2.04-.28-3.04-.52-.76-.18-1.48-.52-2.22-.79l.05-.16c1.4.65,2.84.99,4.39.79-.7-.48-1.41-.92-2.13-1.36-1.64-1.03-3.1-2.26-4.46-3.62-.9-.9-1.71-1.86-2.42-2.93-.68-1.02-1.36-2.06-2.54-2.59-.04-.02-.09-.05-.13-.08-.35-.27-.7-.54-1.06-.81.01-.02.03-.03.04-.05.74.45,1.48.9,2.22,1.35.04-.03.07-.06.1-.09-1.01-2.53-2.03-5.06-3.04-7.59.18.15.34.33.44.53.66,1.42,1.34,2.83,1.93,4.29.93,2.29,1.96,4.52,3.58,6.41.49.57,1.01,1.12,1.52,1.68.04-.03.07-.05.11-.07-.34-1.09-.67-2.19-1.03-3.32.05.08.09.12.1.16.34.94.66,1.9,1.05,2.82.18.45.4.95.76,1.26.88.76,1.84,1.42,2.79,2.1.47.34.98.61,1.46.93,1.45.94,3.01,1.66,4.69,2.09.45.12.95.08,1.43.11.02-.04.03-.08.04-.11-.36-.27-.73-.54-1.11-.81.51.06.89.38,1.29.64.23.15.49.35.76.36.94.04,1.88.02,2.82.02ZM38.75,54.02s-.09.09-.13.14c.11.06.24.09.33.17.65.64,1.17,1.38,1.55,2.2.36.8.74,1.59,1.15,2.37.14.26.32.51.55.7,1.3,1.1,2.74,1.94,4.41,2.35.85.21,1.53.67,2.17,1.4-.15-.04-.2-.04-.24-.06-.92-.62-1.92-1.03-2.99-1.28-.07-.02-.14-.06-.21-.09-.8-.41-1.6-.82-2.41-1.23-.12-.06-.24-.13-.37-.18-.03.03-.05.06-.07.09.53.72,1.05,1.46,1.6,2.17.88,1.12,2.07,1.84,3.3,2.52,2.29,1.28,4.45,2.72,6.39,4.49.41.38.91.66,1.39.94.56.33,1.19.56,1.71.94.85.62,1.44,1.49,1.98,2.38.02.04.01.09.02.14-.03.02-.05.04-.08.05-.27-.32-.54-.65-.82-.94-.45-.46-.89-.96-1.4-1.35-.38-.29-.86-.45-1.3-.66-.04-.02-.09-.03-.18-.05.05.09.07.14.1.17,1.36,1.92,2.2,4.07,2.72,6.35.09.42.06.86.08,1.3-.06,0-.11.01-.17.01-.02-.15-.04-.3-.06-.45-.05-.35-.07-.71-.18-1.04-.39-1.14-.78-2.28-1.21-3.4-.73-1.88-1.94-3.42-3.45-4.72-1.79-1.55-3.77-2.83-5.85-3.96-.48-.26-.94-.54-1.44-.82.34,2.25.9,4.4,1.71,6.48-.9-1.69-1.38-3.53-1.87-5.35-.22-.79-.54-1.47-1.04-2.1-.78-.99-1.64-1.94-2.3-3.02-.74-1.23-1.33-2.56-1.95-3.86-.31-.65-.71-1.34-1.01-1.53.44,1.21.6,2.43.38,3.71-.07.41-.07.87.04,1.27.21.74.42,1.52.81,2.18.85,1.4,1.67,2.83,2.79,4.05,1.12,1.21,1.69,2.64,1.77,4.29.02.52.15,1.05.34,1.53.45,1.1.92,2.2,1.47,3.26.39.74.89,1.43,1.4,2.08,1.32,1.69,3.06,2.85,5,3.71.59.27,1.23.44,1.88.55.32.06.7-.06,1.03-.18.44-.15.83-.41,1.27-.55.45-.15.94-.18,1.39-.31.21-.06.47-.2.57-.38.69-1.2,1.35-2.42,1.42-3.84.03-.5.09-1,.11-1.5.01-.27,0-.56-.09-.82-.56-1.63-1.61-2.91-3.06-3.78-.83-.49-1.6-1.04-2.29-1.69-.44-.42-.81-.92-1.16-1.42-.38-.53-.61-1.18-1.05-1.65-.99-1.07-1.69-2.33-2.39-3.59-.23-.43-.56-.69-.99-.85-.75-.29-1.51-.56-2.23-.89-2.94-1.33-5.57-3.08-7.66-5.58-.32-.39-.71-.69-1.19-.86ZM32.21,56.23c-.22.41-.44.81-.65,1.22-.14.28-.23.59-.39.85-.07.11-.27.16-.4.24-.05-.16-.17-.33-.13-.45.08-.29.22-.56.36-.82.35-.69.72-1.37,1.11-2.1-.11.06-.2.1-.27.15-1.36.98-1.99,2.36-2.2,3.99-.07.52-.15,1.03-.24,1.67.23-.3.39-.52.56-.72.31-.39.62-.79.96-1.16.11-.12.29-.2.45-.24.3-.08.5.07.45.37-.11.6-.26,1.2-.44,1.78-.03.12-.26.18-.4.26-.06-.16-.18-.32-.18-.48-.01-.19.08-.38.06-.59-.1.16-.22.32-.32.49-.59,1.06-1.15,2.14-1.46,3.33-.24.95-.59,1.87-.81,2.82-.2.88-.31,1.77-.44,2.66-.02.09.05.22.13.29.52.46.65,1.08.77,1.71.01.07.02.18-.03.22-.35.4-.18.88-.22,1.33-.01.11-.02.22-.05.33-.06.25-.21.39-.48.37-.28-.02-.4-.2-.42-.45-.02-.25,0-.51,0-.76h-.14c-.16,1.76-.32,3.51-.47,5.29.68.11.9.58,1.06,1.1.1.35.24.69.34,1.04.15.51-.09.77-.61.69-.07-.01-.15-.01-.21.01-.2.07-.4.15-.68.24,0,.27.03.61-.01.96-.02.14-.17.26-.26.38-.07-.13-.21-.24-.21-.37-.02-.48,0-.96.02-1.43.02-.62,0-1.22-.28-1.8-.17-.38-.23-.78.22-1.06.07-.04.09-.19.1-.3.23-1.92.47-3.84.68-5.76.03-.24-.03-.52-.11-.76-.16-.46-.08-.69.24-1.04.18-.2.23-.52.34-.79-.04-.02-.08-.03-.11-.05-.05.07-.1.15-.14.22-.92,1.72-2.15,3.2-3.56,4.54-.91.86-1.89,1.61-2.91,2.32-.95.66-1.99,1.05-3.11,1.29-.15.03-.3.06-.43.13-.92.48-1.89.9-2.73,1.5-1.18.85-2.47,1.39-3.87,1.66-1.63.31-3.26.32-4.89-.07-.54-.13-1.12-.14-1.68-.12-.71.03-1.23-.27-1.55-.86-.52-1.01-.67-2.03.05-3.02.33-.46.64-.94.99-1.37.21-.26.48-.5.78-.64,1.44-.68,2.87-1.39,4.48-1.58.61-.07,1.21-.18,1.82-.26.33-.04.51-.13.51-.52,0-1.27.55-2.33,1.23-3.36.85-1.28,1.8-2.47,2.86-3.58.65-.67,1.3-1.32,1.74-2.15.04-.07.1-.12.12-.19.41-1.26,1.46-2.02,2.32-2.91,1.16-1.19,2.43-2.28,3.65-3.4.16-.15.33-.28.52-.38,1.34-.72,2.68-1.5,4.18-1.84.82-.19,1.68-.25,2.53-.29.35-.02.61-.08.78-.38.15-.26.28-.53.48-.89-.55-.08-1.03-.18-1.5-.21-.56-.04-1.14-.09-1.69-.01-1.84.26-3.69.43-5.46,1.05-.59.21-1.26.24-1.89.31-1.43.15-2.87.29-4.31.38-.81.05-1.64.07-2.44-.06-.8-.13-1.58-.38-2.33-.69-1.83-.76-3.63-1.6-5.24-2.78-1.23-.91-2.41-1.89-3.22-3.22-.59-.97-1.23-1.92-1.79-2.92-.83-1.49-1.19-3.11-1.11-4.82.03-.61-.12-1.18-.23-1.78-.19-1.06-.3-2.14-.35-3.21-.04-.65.06-1.32.17-1.97.06-.34.22-.67.4-.97.41-.71.94-1.21,1.85-1.2.61,0,1.19,0,1.71.4.78.59,1.41,1.28,1.71,2.23.08.25.17.51.2.77.14,1.44.8,2.65,1.66,3.77.81,1.05,1.56,2.16,2.39,3.2.42.53.98.94,1.45,1.42,1.01,1.03,1.97,2.11,3.02,3.1.88.82,1.8,1.62,2.79,2.29.75.51,1.58.93,2.5,1.18,1.34.35,2.64.87,3.96,1.31.63.21,1.26.41,1.9.58.69.19,1.39.36,2.08.51.92.19,1.85.32,2.78.51.44.09.87.23,1.31.33.1.02.23-.03.34-.04-.03-.11-.02-.25-.09-.32-.44-.47-.9-.93-1.36-1.39-.07-.07-.17-.1-.27-.13-.56-.19-1.13-.34-1.67-.56-.36-.15-.73-.35-1.02-.61-.67-.61-1.29-1.26-1.91-1.91-.4-.41-.34-.57.2-.74.07-.02.14-.05.3-.1-.2-.1-.33-.19-.47-.24-1.33-.48-2.54-1.18-3.72-1.94-.38-.24-.79-.44-1.19-.65-2.05-1.06-3.77-2.54-5.42-4.15-.88-.86-1.49-1.88-2.17-2.88-.39-.58-.77-1.18-1.16-1.76-.14-.2-.3-.38-.46-.55-.94-.99-1.54-2.14-1.75-3.51-.28-1.77-.63-3.53-1.02-5.28-.2-.91-.21-1.78,0-2.68.28-1.27.54-2.53.82-3.79.27-1.21.77-2.3,1.74-3.14.23-.2.43-.45.62-.7.8-1.05,1.98-1.39,3.16-1.67.68-.17,1.86.44,2.11,1.09.15.38.08.86.03,1.28-.05.35-.22.69-.38,1.02-.72,1.44-1.4,2.9-2.19,4.29-.57,1-.66,1.98-.38,3.07.35,1.38.9,2.69,1.41,4.01.64,1.62,1.21,3.27,1.76,4.92.61,1.84,1.21,3.69,2.2,5.35.9,1.49,1.64,3.09,2.81,4.4.43.48.84.99,1.3,1.46.16.16.39.27.61.35.85.33,1.67.7,2.35,1.31.34.31.72.26,1.17.18-.08-.15-.13-.28-.21-.38-1.15-1.42-1.94-3.03-2.74-4.66-.58-1.2-1.23-2.35-1.86-3.53-.43-.79-.71-1.63-.86-2.52-.05-.32-.12-.64-.17-.96-.03-.22.02-.38.31-.39.3-.02.58-.13.91-.2-.15-.34-.32-.61-.38-.91-.12-.56-.24-1.13-.22-1.69.02-.45-.06-.81-.31-1.16-.8-1.1-1.52-2.26-1.99-3.53-.39-1.04-.72-2.11-.94-3.2-.28-1.38-.54-2.77-.61-4.17-.13-2.3.23-4.55,1.41-6.57.43-.73,1.1-1.33,1.71-1.93.2-.2.56-.29.86-.32.59-.08.97.28,1.05.86.14,1.04-.1,2.05-.22,3.07-.29,2.22-.26,4.43.34,6.61.02.06.04.12.06.18,0,0,.02.01.1.05.09-.35.22-.69.28-1.04.22-1.58.84-3.01,1.5-4.44.54-1.19,1.04-2.4,1.51-3.61.37-.96.68-1.94,1.01-2.92.35-1.04.57-2.1.52-3.21,0-.11-.01-.23,0-.34.07-.52.52-.77.96-.49.38.24.71.55,1.07.83.66.52,1.35.99,1.97,1.55.4.35.7.81,1.04,1.22.81-1.48,1.62-2.97,1.94-4.68.17-.87.42-1.73.61-2.59.04-.2.06-.42.03-.63-.05-.33.08-.46.38-.43.18.02.39.06.52.16.91.71,1.79,1.45,2.69,2.16.3.23.59.48.92.65,1.54.81,2.96,1.79,4.3,2.9.9.75,1.45,1.75,1.64,2.93.01.06.03.12.06.22.11-.13.21-.22.29-.32,1.22-1.39,2.66-2.48,4.34-3.25,1.56-.71,3.15-1.38,4.71-2.07.52-.23,1.01-.52,1.51-.78.43-.21.56-.13.59.35,0,.15,0,.3-.04.45-.67,2.88-1.1,5.79-1.03,8.76,0,.02.03.04.05.09.47-.45.95-.9,1.41-1.35,1.11-1.11,2.45-1.7,4.02-1.8.82-.06,1.63-.17,2.44-.21,1.05-.06,1.11,0,1.14,1.03.03.99.04,1.98.04,2.98,0,.71-.17,1.39-.51,2.03-.49.92-.97,1.84-1.45,2.77-.39.76-.53,1.58-.66,2.52.36-.37.64-.69.96-.96,1.6-1.38,3.49-1.97,5.59-1.95.73.01.94.46.65,1.12-.7,1.55-1.27,3.15-1.4,4.85-.13,1.53-.16,3.06-.24,4.64.19-.02.39-.04.59-.07,1.3-.23,2.55.1,3.81.27.06,0,.13.01.18.04.09.05.17.13.25.19-.06.07-.11.17-.19.21-.6.34-1.2.68-1.82.99-1.31.66-2.26,1.67-2.99,2.93-.31.53-.69,1.02-1.05,1.52-.45.63-.71,1.33-.98,2.05-.39,1.06-.81,2.13-1.63,2.98-.86.89-1.67,1.83-2.49,2.75.24.18.53.37.79.59.25.21.29.45-.03.64-.37.23-.74.47-1.13.66-.83.39-1.48.98-2.12,1.6-.78.77-1.52,1.57-2.31,2.32-.57.54-1.21,1.02-1.82,1.51-1.2.96-2.38,1.96-3.77,2.6-1,.46-2.05.8-3.08,1.19-.1.04-.2.07-.41.15.23.12.38.18.5.26.09.06.23.17.22.24,0,.11-.1.25-.2.31-.19.1-.41.14-.6.22-.09.05-.16.16-.24.24.09.08.16.2.26.23.4.11.81.18,1.2.31,1.05.34,2.07.22,3.1-.13.38-.13.82-.1,1.23-.09.78.04,1.55.13,2.32.17.34.02.72.03,1.03-.1,1.26-.54,2.52-1.05,3.68-1.78.77-.49,1.62-.85,2.44-1.26.54-.27.97-.64,1.3-1.16.17-.27.41-.5.64-.74.66-.69,1.08-1.49,1.18-2.45.2-2.01.73-3.94,1.3-5.87.21-.71.77-1.17,1.15-1.74.38-.57.85-1.08,1.31-1.6.43-.48,1.03-.66,1.64-.78.16-.03.38.01.49.11.46.4.89.82.89,1.49,0,1.47.05,2.94-.02,4.41-.09,2.3-.52,4.53-1.41,6.67-.17.41-.39.82-.67,1.17-1.1,1.35-2.12,2.79-3.59,3.79-.65.44-1.32.88-2.03,1.23-1.26.62-2.55,1.17-3.82,1.76-.19.09-.4.18-.56.3-1.2.93-2.61,1.37-4.02,1.82-1.01.32-2.04.58-3.11.45-1.63-.2-3.16-.74-4.55-1.6-.84-.51-1.54-1.23-2.35-1.81-.54-.38-1.14-.67-1.72-.99-.07-.04-.21-.02-.28.03-1.21.76-2.43.51-3.65.06-.05-.02-.09-.01-.26-.03.16.19.24.34.37.43.73.51,1.48.99,2.21,1.49,1.55,1.07,3.24,1.86,5,2.51.66.24,1.15.64,1.46,1.31.58,1.22,1.3,2.36,2.21,3.39.46.52.78,1.17,1.15,1.76.73,1.18,1.74,2.06,2.94,2.74,1.61.93,2.84,2.21,3.55,3.96.21.52.28,1.06.19,1.63-.07.38-.12.77-.14,1.16-.09,1.55-.76,2.9-1.52,4.21-.26.44-.7.58-1.16.68-.44.09-.89.16-1.32.3-.27.08-.55.21-.76.4-.45.38-.95.5-1.51.4-1.14-.2-2.19-.62-3.21-1.16-1.72-.9-3.19-2.1-4.41-3.59-.47-.57-.89-1.22-1.22-1.89-.55-1.08-1.04-2.2-1.51-3.32-.2-.47-.38-.99-.38-1.48.01-1.9-.92-3.31-2.07-4.71-1.26-1.54-2.41-3.18-3.07-5.09-.31-.89-.41-1.78-.25-2.71.17-.99-.01-1.95-.38-2.88-.13-.33-.27-.65-.39-.98-.15-.41-.84-.8-1.26-.7-.08.02-.15.08-.21.15-.68.7-1.32,1.42-1.67,2.35-.09.23-.14.48-.22.71-.07.19-.18.35-.31.61.21.53.54,1.08.99,1.61.57.66.99,1.46,1.45,2.22.27.44.47.91.72,1.36.09.16.2.32.29.48.42.72.88,1.43,1.24,2.18.33.69.57,1.42.82,2.14.78,2.28,1.32,4.61,1.65,6.99.18,1.28.36,2.57.3,3.85-.06,1.31-.44,2.6-1.08,3.77-.73,1.32-1.9,1.45-2.94.34-.26-.27-.45-.6-.62-.94-.27-.51-.52-1.03-.73-1.57-.82-2.13-1.96-4.09-3.01-6.11-.38-.74-.63-1.56-.95-2.33-.24-.58-.52-1.14-.86-1.7-.05.33-.1.67-.14,1.01-.08.79-.15,1.57-.21,2.36-.01.11.01.27.08.35.29.36.31.77.2,1.18-.46,1.67-.55,3.35-.49,5.07.03.74-.11,1.49-.16,2.24-.03.43,0,.85-.03,1.28,0,.13-.15.24-.22.36-.06-.12-.18-.24-.18-.36,0-1.85.02-3.71.02-5.57,0-.13-.09-.3-.19-.37-.24-.18-.3-.39-.25-.66.05-.3.1-.59.15-.88-.03-.01-.06-.02-.09-.03-.17.33-.33.65-.49.98-.04-.01-.07-.02-.1-.03-.01-.08-.04-.16-.03-.23.15-1.05.29-2.09.97-2.96.07-.08.09-.21.11-.31.14-1.17.27-2.34.42-3.52.04-.28.16-.55.22-.83.04-.22.05-.45.05-.68.01-.65,0-1.3,0-2-.16.17-.27.35-.43.44-.15.09-.4.17-.53.1-.14-.06-.28-.34-.24-.47.17-.58.33-1.18.8-1.64.44-.43.8-.91.93-1.57.41-2.11,1.01-4.2.96-6.39,0-.08,0-.17-.08-.28-.09.21-.16.45-.29.64-.09.13-.29.27-.42.26-.21-.03-.26-.23-.2-.45.09-.33.18-.67.27-1.01.2-.33.39-.67.6-.99.13-.2.33-.29.55-.15.23.15.2.35.07.56-.05.09-.13.16-.16.26-.03.08-.07.22-.03.27.29.36.6.72.9,1.08.04,0,.08.02.12.02.13-1.39.94-2.36,1.92-3.29-.58-.1-.98-.02-1.28.43-.16.24-.37.44-.55.67-.14.19-.34.35-.52.16-.11-.11-.13-.4-.07-.56.1-.24.3-.45.46-.68.22-.33.21-.56-.05-.77.63-.34,1.29-.59,2.01-.6.24,0,.48.07.73.1.15.02.33.09.43.03.27-.16.51-.38.71-.54-.83-.29-1.66-.57-2.47-.86-.09.3-.17.61-.29.91-.1.25-.32.4-.61.33-.29-.08-.37-.32-.38-.58,0-.21.02-.43.01-.64-.02-.7-.66-1.34-1.4-1.4-.03.53-.09,1.07-.07,1.6.01.19.21.38.37.63.1-.21.13-.34.2-.41.13-.09.29-.14.43-.2.06.14.2.3.17.41-.15.53-.33,1.05-.53,1.56-.03.08-.19.15-.29.16-.39.03-.36-.3-.42-.54-.24-.06-.47-.11-.71-.17-.13.37-.11.79-.61.92.16.06.27.05.39.06.3.04.6.07.89.15.1.03.26.21.24.3-.05.23-.17.46-.27.69-.17.36-.34.72-.51,1.07"/>
    </g>
  </g>
</svg>