<?xml version="1.0" encoding="UTF-8"?>
<svg id="Layer_2" data-name="Layer 2" xmlns="http://www.w3.org/2000/svg" xmlns:xlink="http://www.w3.org/1999/xlink" viewBox="0 0 34.48 97.07">
  <defs>
    <style>
      .cls-1 {
        clip-path: url(#clippath);
      }

      .cls-2 {
        fill: none;
      }

      .cls-2, .cls-3 {
        stroke-width: 0px;
      }

      .cls-3 {
        fill: #9aa739;
      }
    </style>
    <clipPath id="clippath">
      <rect class="cls-2" width="34.48" height="96.95"/>
    </clipPath>
  </defs>
  <g id="Layer_1-2" data-name="Layer 1">
    <g class="cls-1">
      <path class="cls-3" d="M16.04,62.47c.08-.3.16-.6.22-.9.04-.14.05-.27.04-.41-.06-.64.1-1.24.22-1.84.1-.51.24-1.01.36-1.51.03-.1.08-.2.08-.3-.02-.49.15-.96.23-1.43.07-.38.18-.74.16-1.13,0-.07,0-.14.02-.2.2-.57.11-1.17.11-1.75,0-.55-.03-1.11-.02-1.66-.01-.28.04-.55.15-.81.1-.23.22-.42.49-.49.18-.06.29-.19.33-.38.08-.34.15-.68.22-1.02.07-.34.17-.67.31-.99.11-.26.23-.5.44-.69.1-.1.17-.22.2-.36.16-.67.36-1.33.38-2.03,0-.21.05-.41.14-.6.13-.26.19-.52.21-.8.02-.42.16-.81.3-1.2.14-.39.3-.77.42-1.17.18-.6.43-1.17.68-1.73.25-.53.47-1.08.66-1.64.1-.29.21-.58.34-.86.19-.44.38-.89.54-1.35.16-.46.32-.91.31-1.41.01-.14.05-.27.11-.4.06-.15.01-.28-.07-.39-.08-.11-.17-.22-.26-.32-.26-.28-.52-.56-.78-.83-.13-.12-.26-.23-.4-.33-.48-.34-.93-.72-1.24-1.23-.02-.03-.04-.06-.07-.08-.53-.42-.8-1.04-1.14-1.59-.28-.45-.45-.93-.54-1.45-.08-.48-.24-.94-.22-1.43.03-.54.21-1.01.56-1.42.08-.09.29-.13.38-.06.33.26.62.55.86.89.4.54.89.95,1.46,1.3.44.27.88.55,1.32.83.34.22.67.48.92.82.14.2.3.38.38.61.1.3.31.54.52.77.03.01.05.01.08,0,.41-.56.69-1.59.64-2.36-.02-.1-.08-.18-.19-.22-.2-.06-.4-.12-.6-.16-.31-.06-.58-.19-.84-.38-.08-.06-.17-.11-.27-.15-.74-.32-1.23-.86-1.56-1.58-.05-.13-.11-.26-.17-.38-.12-.21-.18-.45-.19-.69,0-.2-.03-.42-.05-.62-.08-.71.05-1.38.42-2,.04-.1.08-.2.1-.31-.3-.38-.59-.77-.79-1.21-.13-.28-.24-.57-.34-.86-.14-.37-.16-.74-.08-1.13.03-.1.05-.2.06-.3.03-.26-.01-.48-.26-.63-.03-.02-.06-.04-.08-.06-.54-.3-.92-.73-1.13-1.31-.05-.13-.13-.24-.21-.35-.03-.04-.1-.04-.16-.05-.03.03-.04.05-.04.09.02.14.05.27.07.41.04.17.06.34.07.51,0,.2-.1.42-.07.61.05.22-.01.41-.05.6-.04.2-.08.41-.13.61-.07.3-.18.6-.23.91-.1.67-.44,1.23-.74,1.82-.19.36-.44.7-.67,1.05-.1.15-.2.28-.31.42-1.07,1.3-2.33,2.36-3.81,3.17-.24.15-.49.24-.77.29-.3.06-.6.15-.9.24-.78.24-1.56.28-2.36.11-.47-.09-.95-.19-1.42-.31-.4-.1-.81-.19-1.21-.28-.38-.09-.71-.26-1-.53-.31-.28-.65-.52-.97-.78-.24-.2-.51-.38-.69-.63-.34-.45-.74-.82-1.13-1.22-.17-.17-.32-.36-.46-.56-.39-.57-.82-1.11-1.19-1.7-.51-.83-.9-1.72-1.16-2.66-.07-.23-.14-.46-.21-.69-.15-.42-.24-.86-.28-1.31-.06-.86-.05-1.73-.07-2.6,0-.43.22-.81.2-1.23.11-.29.23-.58.34-.86.1-.27.33-.44.51-.66.11-.14.16-.3.08-.47-.03-.06-.06-.13-.08-.19-.14-.42-.02-.85.34-1.1.31-.22.6-.46.94-.65.46-.24.86-.57,1.26-.91.14-.11.23-.27.21-.45-.05-.31.09-.54.29-.74.18-.18.27-.4.26-.65,0-.18.1-.33.22-.46.47-.51,1.01-.94,1.61-1.3.72-.42,1.45-.81,2.19-1.2.43-.22.85-.46,1.36-.47.4-.15.81-.2,1.21-.28.41-.09.82-.15,1.22-.26.33-.09.69.07,1.01-.12.07-.03.14-.03.21,0,.61.17,1.24.07,1.86.08.45,0,.9,0,1.35.01.17,0,.36,0,.52.06.33.13.6.09.82-.21.05-.05.11-.08.18-.1.41-.08.82-.14,1.2.14.13.09.26.1.4.04.17-.06.34-.06.5.02.63.28,1.3.49,1.86.91.15.11.32.12.49.13.32,0,.59.13.87.3.56.35,1.05.79,1.47,1.3.58.69,1.09,1.43,1.53,2.22.06.13.14.24.22.35.3.35.48.76.65,1.18.08.2.16.39.33.52.29.21.47.49.63.81.11.22.23.43.36.64.05.08.13.18.21.21.49.15.54.6.65.98.11.4.05.83.17,1.23-.08.21,0,.4.05.6.05.2.08.41.08.62.05,1.83.1,3.67.15,5.51.02.45.03.9-.1,1.34-.03.09,0,.21,0,.31,0,.03.04.08.05.08.06-.01.14-.02.17-.06.09-.11.16-.23.22-.35.17-.34.38-.66.65-.93.89-.98,1.63-2.06,2.22-3.24.2-.4.44-.78.71-1.14.06-.09.18-.09.29-.07.11.02.19.08.22.19.03.21.05.41.06.62.06.77-.04,1.52-.3,2.25-.1.32-.16.67-.24,1.01-.03.1-.04.21-.1.29-.21.26-.26.56-.38.85-.2.52-.45,1.01-.76,1.48-.52.82-1.08,1.6-1.71,2.34-.23.27-.52.47-.78.68-.3.24-.61.46-.86.74-.18.21-.36.42-.4.72-.31.66-.4,1.4-.69,2.06-.05.52-.29,1-.37,1.51-.09.56-.32,1.06-.5,1.58-.2.59-.4,1.17-.55,1.78-.16.67-.38,1.33-.58,1.99-.09.26-.2.52-.33.76-.19.37-.34.76-.44,1.16-.08.38-.2.73-.36,1.08-.09.19-.15.39-.16.6-.01.1-.03.2-.08.3-.44.98-.71,2.02-1.1,3.02-.23.58-.49,1.15-.7,1.73-.2.55-.45,1.08-.64,1.64-.19.55-.4,1.1-.59,1.66-.21.59-.46,1.16-.55,1.78-.02.07-.04.13-.07.19-.51,1.29-.83,2.64-1.19,3.97-.07.23-.08.47-.03.72.01.04.07.08.13.11.01,0,.07-.02.08-.05.26-.42.53-.82.74-1.26.18-.33.4-.65.63-.95.29-.39.61-.75.88-1.16.17-.26.41-.47.64-.68.24-.24.49-.48.76-.71.31-.27.6-.57.76-.97.01-.03.03-.06.05-.09.42-.52.72-1.1,1.01-1.7.04-.06.08-.11.13-.16.07-.08.33-.06.38.03.08.15.18.3.21.46.07.34.09.69-.08,1.02-.01.04-.02.07-.03.1-.24.65-.38,1.33-.68,1.96-.29.59-.55,1.19-.84,1.78-.27.53-.55,1.04-.83,1.56-.03.06-.07.12-.11.17-.54.63-1.01,1.32-1.55,1.94-.43.5-.89.97-1.36,1.42-.2.19-.41.36-.64.52-.26.17-.47.41-.69.63-.1.1-.17.21-.21.35-.1.51-.39.96-.51,1.47-.11.52-.27,1-.38,1.51-.11.56-.26,1.57-.27,2.05-.01.28.01.56-.11.82-.04.1-.05.2-.05.31-.01.34-.05.69-.12,1.03-.07.41-.04.83-.11,1.24-.07.38-.07.76-.09,1.14s.02.76-.12,1.13c-.07.19-.04.41-.04.61,0,.35,0,.69-.1,1.03-.07.23-.05.48-.05.72-.01.31,0,.63.03.94.05.39-.12.75-.11,1.13,0,.26.07.49.34.59.35.13.44.42.47.74.02.2.01.41-.03.61-.03.17-.11.33-.11.51,0,.42-.12.82-.14,1.23-.03.86,0,1.73.02,2.6,0,.34.05.69.07,1.04.28.61.16,1.3.38,1.93.07.19.05.41.05.62,0,.27.1.45.34.58.19.1.28.31.31.52.03.24.05.48.05.72.02.55.03,1.11.06,1.66.02.34.04.69.16,1.03.07.2.09.4.09.61,0,.7.23,1.36.33,2.05.15.24.16.53.21.8.02.1.04.2.08.3.08.19.26.33.29.55.03.21.04.42.1.62.18.56.32,1.13.49,1.69.09.29.11.62.32.87.15.46.32.92.43,1.39.1.44.26.86.46,1.27.06.1-.02.28-.13.36-.22.17-.44.32-.76.2-.12-.05-.27-.01-.41-.02-.11-.02-.19-.08-.24-.18-.06-.08-.11-.18-.15-.27-.23-.58-.44-1.17-.68-1.74-.13-.28-.19-.59-.28-.89-.28-.86-.67-1.67-1.18-2.42-.06-.08-.13-.17-.16-.27-.06-.24-.21-.43-.38-.61-.53-.61-.87-1.33-1.17-2.07-.05-.13-.01-.28.07-.4.09-.14.35-.19.46-.08.16.17.31.37.47.54.06.07.12.06.18,0,.02-.03.05-.06.05-.08,0-.14,0-.28-.03-.41-.03-.14-.07-.27-.13-.4-.32-.95-.59-1.91-.81-2.89-.14-.61-.31-1.2-.53-1.79-.05-.13-.11-.26-.13-.39-.05-.63-.3-1.21-.42-1.81-.12-.61-.35-1.2-.34-1.83,0-.1-.01-.21-.03-.31-.3-1.22-.23-2.47-.28-3.72-.01-.38-.01-.77-.05-1.14-.09-1.04-.04-2.08-.09-3.12-.02-.18,0-.35.05-.52.11-.34.1-.68.09-1.03-.03-1.01-.06-2.01-.1-3.01-.01-.28-.03-.56-.04-.83s0-.55-.08-.82c-.08-.26.09-.55-.1-.8-.06-.38-.08-.75.04-1.13.07-.23.09-.47.14-.71.03-.12.22-.21.33-.18.35.12.6.34.69.71.01.02.05.03.08.06ZM16.81,2.82c-.04.17-.04.36.05.51.16.29.19.59.21.9.03.24.08.48.11.71.02.14.06.28.03.41-.12.48-.11.96-.15,1.44-.02.16-.11.32-.2.47-.05.05-.1.08-.17.07-.06-.02-.11-.06-.15-.11-.03-.06-.05-.13-.04-.2,0-.38,0-.76.09-1.13.11-.52.11-1.03.01-1.55-.19-.96-.73-1.7-1.58-2.2-.08-.05-.24,0-.27.08-.02.06-.02.13,0,.19.2.29.4.56.61.83.21.28.22.57.17.89,0,.04-.02.07-.06.08-.04.02-.07,0-.09-.02-.08-.07-.15-.14-.2-.22-.15-.23-.24-.52-.43-.71-.35-.37-.76-.7-1.15-1.04-.06-.04-.12-.06-.19-.05-.2.04-.4.1-.6.15-.05.02-.08.06-.1.11-.01.05,0,.09.03.14.52.6,1.07,1.18,1.3,1.97.03.09.12.17.17.26.04.06.07.12.09.19.11.51.1,1.03.24,1.53-.09.61-.14,1.23-.41,1.81-.09.19-.16.38-.24.57-.03.08.04.24.11.26.23.07.46.18.69.2.42.05.81.18,1.18.38.09.05.19.08.29.11.21.07.41.09.6-.02.37-.2.74-.38,1.09-.6.24-.15.44-.33.61-.55.46-.65.85-1.34,1.02-2.14.08-.34.08-.68,0-1.03-.06-.23-.1-.47-.13-.71-.03-.39-.18-.73-.38-1.06-.26-.42-.58-.77-.99-1.04-.03-.02-.05-.01-.08,0s-.06.06-.05.08c.15.39.3.77.45,1.16.06.13.1.26.13.39.07.52.14,1.03.09,1.55-.01.1-.14.22-.2.18-.06-.04-.14-.07-.14-.12-.1-.51-.21-1.02-.29-1.53-.03-.28-.12-.54-.26-.78-.17-.26-.36-.51-.57-.73-.05-.06-.19-.04-.29-.05,0-.14,0-.28-.11-.37-.03-.02-.06-.03-.1-.02-.08.02-.11.08-.07.14.07.13.17.21.32.22ZM19.53,3.15c.02.1,0,.22.04.3.38.72.41,1.53.6,2.3.05.19.02.41-.02.61-.04.24-.1.47-.17.7-.03.1-.07.2-.11.29-.15.31-.31.61-.46.93-.17.34-.38.66-.66.93-.24.24-.52.45-.83.61-.24.13-.51.23-.71.43-.08.08-.12.2-.06.27.26.28.54.54.78.83.31.38.58.78.81,1.2.18.32.44.54.78.66.47.19.95.16,1.43.03.64-.17,1.18-.56,1.71-.95.3-.23.55-.53.72-.87.64-1.14.91-2.38,1.01-3.67,0-.21-.02-.41-.05-.61-.01-.1-.06-.14-.15-.1-.06.02-.14.07-.15.11-.09.37-.19.74-.24,1.11-.06.42-.33.76-.4,1.17-.03.13-.11.24-.18.36-.07.1-.16.11-.27.05-.07-.05-.09-.11-.06-.19.11-.4.22-.79.33-1.19.1-.37.21-.73.28-1.1.19-.89.07-1.72-.45-2.47-.02-.03-.06-.04-.09-.06-.13.22-.05.47-.08.7-.01.1-.04.2-.07.29-.02.03-.04.06-.07.07-.07.04-.15.03-.17-.05-.15-.39-.3-.77-.33-1.19-.02-.18-.1-.33-.23-.45-.09-.1-.2-.2-.3-.29-.07-.06-.14-.13-.26-.11-.07,0-.08.14-.01.28.07.12.14.24.21.36.18.32.19.66.11,1-.02.09-.1.17-.17.24s-.22.04-.27-.03c-.08-.13-.07-.26-.09-.4-.13-.7-.34-1.34-1.07-1.67-.16-.07-.27-.22-.41-.31-.09-.05-.18-.09-.28-.13-.01-.07-.01-.13-.03-.2,0-.03-.02-.06-.04-.08-.02-.01-.04-.02-.07,0-.06.05-.06.11,0,.17.05.04.11.07.17.1ZM9.35,13.82c.06-.44.32-.72.51-1.04.39-.68.96-1.18,1.63-1.56.21-.11.45-.18.66-.29.32-.16.65-.25.99-.27.28-.02.56-.04.83-.05.47-.03.89.1,1.27.38.31.22.64.42.94.65.33.25.65.52.97.78.23.17.39.4.47.68.13.46.33.91.37,1.4.01.17.04.34.09.51.19.75.22,1.51.1,2.27-.14.94-.43,1.82-.89,2.64-.06.13-.14.24-.23.34-1.14,1.33-1.68,1.86-2.96,2.91-.41.33-.83.62-1.36.71-.27.05-.54.11-.8.2-.85.26-1.7.26-2.55-.01-.3-.09-.62-.15-.89-.29-.45-.25-.93-.46-1.38-.72-.44-.27-.82-.64-1.22-.96-.05-.05-.1-.09-.15-.14-.34-.34-.68-.69-.93-1.1-.34-.57-.73-1.1-1.16-1.59-.49-.56-.77-1.23-.95-1.94-.13-.5-.16-1.03-.33-1.51-.17-.5-.15-1.03-.31-1.53-.03-.1-.04-.2-.01-.3.1-.38.05-.76.07-1.14,0-.28.06-.55.17-.81.11-.25.21-.51.21-.8,0-.1.02-.21.06-.3.3-.7.53-1.44.95-2.08.37-.55.66-1.13,1.03-1.68.12-.17.18-.38.32-.53.25-.25.35-.59.58-.85.25-.29.52-.56.78-.84.09-.1.18-.22.24-.34.11-.19.27-.31.43-.44.3-.23.61-.45.95-.63.4-.21.78-.46,1.17-.68.15-.09.31-.16.47-.2.37-.09.73-.21,1.08-.37.45-.2.92-.32,1.41-.34.17,0,.34-.03.51-.08.27-.1.54-.12.81-.16.21-.03.43-.02.61-.09.27-.13.55-.06.81-.06.41,0,.83.05,1.24.09.31.03.61.11.92.13.83.03,1.65.19,2.45.39.8.2,1.59.47,2.31.89.18.1.36.21.54.31.58.31,1.16.63,1.52,1.22.04.06.08.11.14.15.52.38.84.91,1.17,1.44.16.26.36.49.49.79.14.31.4.56.59.84.23.34.52.65.67,1.04.42.46.65,1.07,1.1,1.51.13.13.2.28.23.45.06.23.12.47.18.7.04.17.06.34.13.5.09.23.14.46.14.71.02.45.02.91.08,1.35.04.31.15.6.04.91-.02.1-.01.21.04.3.07.16.1.33.11.51.02.76.14,1.52-.09,2.27-.02.07-.01.14.02.21.02.05.07.13.11.13.07-.01.13-.04.17-.1.18-.42.27-.85.28-1.3-.03-1.24-.06-2.49-.1-3.74-.02-.52,0-1.05-.09-1.55-.09-.44-.15-.89-.19-1.33,0-.27-.14-.46-.39-.57-.13-.06-.22-.15-.27-.29-.06-.16-.12-.32-.2-.48-.18-.36-.29-.79-.76-.92-.06-.02-.11-.09-.14-.15-.08-.15-.15-.31-.21-.47-.15-.46-.36-.9-.64-1.3-.24-.38-.47-.77-.72-1.14-.34-.52-.68-1.04-1.05-1.54-.57-.77-.88-1.01-1.74-1.4-.03,0-.07.02-.09.03-.23.16-.45.16-.65-.06-.38-.43-.85-.7-1.37-.91-.19-.08-.4-.12-.61-.11-.17.01-.34.05-.51.03-.2-.03-.4-.11-.62-.17l-.52.41c-.74-.31-1.56-.43-2.39-.4-.44-.14-.89-.12-1.34-.1-.48.02-.97.04-1.45.04-.83,0-1.66.1-2.46.32-.3.08-.6.15-.9.23-.53.14-1.04.36-1.56.54-.52.43-1.15.65-1.69,1.01-.41.27-.76.59-1.13.91-.06.05-.05.12-.02.19.1.22.04.4-.13.56-.22.22-.44.44-.66.67-.11.11-.13.24-.05.38.15.35.14.42-.11.61-.19.15-.39.29-.57.44-.57.44-1.18.85-1.8,1.21-.18.11-.34.24-.48.38-.1.09-.1.3,0,.37.1.07.23.14.35.22.17.12.2.3.09.44-.21.23-.42.46-.63.69-.16.18-.29.39-.38.61-.17.42-.31.84-.31,1.3-.02.21-.04.41-.08.61-.03.14-.05.28-.06.41.01.59,0,1.18.06,1.77.05.52.24,1.01.28,1.53.23.61.4,1.25.71,1.83.46.85.9,1.72,1.52,2.48.28.35.58.68.86,1.04.61.76,1.32,1.42,2.06,2.04.54.46,1.15.77,1.84.92.61.13,1.22.25,1.82.43.58.18,1.16.2,1.74.06.67-.15,1.34-.31,1.97-.62.13-.05.25-.1.38-.17.88-.56,1.67-1.23,2.43-1.94.48-.45.82-1.03,1.26-1.52.07-.08.12-.17.17-.27.45-.9.89-1.8,1.15-2.78.15-.54.27-1.07.21-1.64-.03-.2-.01-.42-.03-.63-.03-.24-.03-.49-.11-.71-.14-.35-.18-.73-.35-1.08-.29-.56-.66-1.05-1-1.57-.43-.65-.96-1.17-1.67-1.52-.03-.02-.06-.04-.08-.06l-.92-.48c-.26-.14-.55-.04-.81-.15-.44-.17-.89-.06-1.33-.02-.33.18-.66.19-.99.01-.02,0-.08.03-.09.04,0,.17-.02.3-.22.38-.36.14-.64.41-.91.68-.4.4-.73.84-1.01,1.32-.14.24-.26.49-.35.76-.08.22-.1.47.12.76ZM16.74,63.59h.01c.02.42.03.83.04,1.25,0,.17-.01.34-.03.52-.02.15-.14.24-.27.28-.07.01-.13-.02-.17-.07-.1-.29-.2-.58-.28-.88-.04-.17-.06-.34-.06-.52,0-.43-.16-.81-.29-1.2-.02-.03-.03-.06-.06-.09-.06-.08-.11-.18-.23-.19-.07,0-.14.13-.14.23.03.69.07,1.39.09,2.08.04,1.01.07,2.01.1,3.01.01.28,0,.56.12.82.06.14.07.27.02.41-.09.23-.09.47-.08.72,0,.27,0,.55,0,.83.06,1.8.1,3.6.17,5.41.03.58-.01,1.18.18,1.74.02.06-.03.14-.04.21-.01.1-.04.21,0,.3.1.3.17.6.17.92.02.32.18.59.23.9.13.79.34,1.56.55,2.32.15.53.27,1.07.39,1.61.27,1.21.57,2.42.99,3.59.15.42.26.85.38,1.29.03.11-.09.3-.21.31-.17.02-.34.03-.52.04-.05,0-.09.03-.12.07-.03.05-.04.09-.02.15.06.13.13.24.21.36,1.17,1.49,1.95,3.17,2.37,5.02.04.17.09.33.17.48.15.32.31.62.47.93.07.15.26.2.45.13.09-.03.17-.17.15-.24-.24-.75-.48-1.51-.77-2.25-.27-.64-.48-1.3-.65-1.97-.19-.84-.42-1.67-.75-2.47-.03-.1-.05-.2-.07-.3-.07-.3-.18-.6-.22-.91-.04-.3-.08-.61-.2-.91-.03-.8-.21-1.57-.31-2.36-.03-.31-.04-.63-.03-.94,0-.32-.04-.61-.33-.83-.07-.07-.13-.16-.15-.27-.1-.33-.21-.66-.22-1.01-.03-.45-.01-.91-.11-1.34-.16-.65-.19-1.3-.21-1.95,0-.35-.05-.69-.14-1.03-.09-.3-.14-.62-.06-.92s.07-.62.08-.93c.03-.45.02-.9.15-1.34.05-.16,0-.34,0-.52,0-.15-.06-.2-.27-.25-.07,0-.14-.02-.2-.03-.19-.06-.29-.19-.31-.39-.01-.14-.02-.28-.01-.41,0-.21.06-.42.02-.62-.06-.25.05-.48.05-.71,0-.63,0-1.25.02-1.88,0-.2-.02-.43.04-.61.11-.38.1-.76.1-1.14,0-.2-.04-.43.02-.62.16-.58.14-1.16.15-1.76,0-.1.01-.21.04-.31.1-.3.11-.61.1-.92,0-.35,0-.69.11-1.03.04-.14.06-.27.05-.41-.01-.45.09-.9.15-1.34.08-.55.24-1.08.2-1.65,0-.1.01-.2.05-.3.28-1,.46-2.03.92-2.97.1-.19.14-.39.13-.6-.05-.8.24-1.58.18-2.38,0-.07.05-.13.06-.2.05-.13.07-.27.09-.4.02-.42.13-.82.22-1.22.09-.4.17-.81.27-1.21.24-.93.46-1.88.82-2.78.04-.09.07-.19.1-.29.22-.83.45-1.67.79-2.46.32-1.21.82-2.35,1.32-3.49.07-.16.16-.31.21-.48.35-1.05.72-2.09,1.13-3.12.25-.64.38-1.32.53-2-.06-.37-.12-.74-.18-1.12,0-.04,0-.08-.02-.1-.04-.06-.08-.1-.14-.14-.08-.05-.14-.03-.17.06-.09.19-.17.38-.25.57-.42,1.03-.78,2.07-1.24,3.07-.28.59-.6,1.18-.75,1.82-.22.4-.28.85-.48,1.26-.18.38-.29.78-.4,1.18-.12.43-.21.87-.32,1.31-.04.13-.07.27-.08.41,0,.63-.19,1.22-.34,1.83-.09.36-.21.73-.21,1.11.02.22-.08.34-.3.38-.28.05-.42.22-.51.46-.07.2-.17.4-.18.59-.02.48-.23.94-.22,1.43,0,.23-.09.47-.15.71-.02.07-.06.13-.11.17-.08.08-.17.1-.28.06-.08-.04-.14-.02-.18.06-.14.24-.21.51-.2.79.02.48.05.97.05,1.45,0,.45.03.91-.03,1.35-.04.31-.11.61-.14.92-.03.31-.12.61-.19.91-.2.8-.18,1.65-.49,2.43-.03.07-.04.14-.03.21.02.32-.12.61-.17.91-.05.31,0,.63-.02.93,0,.14-.03.28-.07.41-.09.27-.09.55-.09.82.01.41.03.82.04,1.23h0ZM25.16,7.68c-.03.52-.26.99-.28,1.51-.02.24-.07.48-.16.71-.15.39-.28.78-.44,1.16-.29.68-.66,1.3-1.32,1.69-.05.04-.1.09-.15.14-.46.43-1.01.7-1.61.91-.27.09-.54.12-.8.2-.08.03-.15.18-.11.26.13.24.24.5.39.73.47.72,1.15,1.18,1.95,1.45.71.24,1.43.2,2.16.11.1-.01.2-.04.3-.09.37-.19.73-.39,1.05-.66.79-.68,1.27-1.55,1.57-2.52.03-.08-.03-.3-.07-.29-.06.01-.12.03-.17.06-.12.07-.22.16-.34.23-.02.02-.08.01-.09,0-.05-.05-.07-.1-.08-.17,0-.07.02-.14.07-.19.41-.48.53-1.04.47-1.65-.02-.14-.03-.27-.06-.41,0-.03-.04-.09-.05-.08-.05.01-.13.03-.16.07-.11.17-.21.35-.22.57-.01.19-.14.31-.29.41-.09.05-.24,0-.24-.09,0-.17-.03-.36.04-.51.18-.47.15-.95.09-1.43-.02-.1-.06-.19-.14-.28-.03-.04-.11-.05-.18-.05-.03,0-.06.04-.07.07-.11.29-.2.59-.24.9-.11.65-.35,1.26-.63,1.86-.19.41-.45.78-.7,1.15-.08.13-.2.19-.35.19-.07,0-.13-.04-.17-.09-.04-.06-.05-.11-.04-.18.04-.1.09-.18.17-.26.61-.66.9-1.46,1.1-2.31.03-.14.04-.27.08-.41.2-.57.12-1.16.1-1.74-.01-.1-.04-.2-.08-.3-.1-.21-.21-.43-.31-.64ZM10.26,20.97c-.07.56.18,1.14.36,1.73.09.31.26.57.52.77.05.04.12.09.18.09.1-.01.2-.04.29-.08.11-.07.13-.17.06-.28-.13-.2-.3-.4-.29-.66,0-.2.01-.41.04-.62,0-.05.07-.11.13-.14.07-.04.14-.01.16.07.11.4.29.78.53,1.12.06.08.15.14.25.16.2.07.41.07.61.02.21-.05.38-.17.51-.34.05-.08.05-.23-.02-.28-.11-.08-.21-.18-.34-.23-.44-.17-.73-.53-1.01-.88-.25-.32-.41-.72-.64-1.06-.12-.2-.13-.4-.01-.59.04-.09.09-.1.17-.04.32.32.56.7.79,1.09.34.59.84,1.01,1.48,1.23.17.07.34.06.51-.02.15-.08.3-.17.44-.27.11-.07.12-.3.02-.36-.18-.1-.36-.2-.54-.31-.24-.15-.42-.36-.52-.64-.03-.08-.05-.15.03-.17.06-.02.13-.01.19.02.17.11.33.24.51.35.35.21.72.24,1.1.08.09-.03.15-.13.23-.2.06-.06.05-.11,0-.18-.1-.1-.21-.18-.34-.22-.35-.15-.71-.28-1.02-.51-.67-.51-1.3-1.05-1.62-1.85-.02-.06-.07-.12-.1-.18-.07-.19-.2-.28-.4-.26h-.73c-.2,0-.42-.01-.63,0-.43.03-.8.18-1.06.56-.14.2-.31.38-.44.58-.36.55-.66,1.14-.72,1.81-.01.1-.03.2-.06.3-.19.85-.12,1.65.38,2.39.02.03.03.06.05.09.14.32.42.45.73.53.07.02.13,0,.18-.05s.08-.1.07-.18c-.12-.36-.24-.72-.39-1.07-.19-.46-.23-.94-.22-1.43.02-.46.17-.88.43-1.26.05-.07.11-.08.18-.03.08.04.11.09.08.18-.15.38-.09.76-.11,1.22ZM8.8,4.21c.08.21.26.32.4.46.17.17.34.34.5.53.1.13.1.26.02.39-.04.07-.11.12-.17.07-.25-.19-.48-.4-.69-.62-.17-.18-.38-.3-.63-.35-.07-.03-.14-.04-.21-.04-.34.05-.68.12-1.01.21-.18.06-.29.19-.3.38-.02.08.02.13.09.16.24.09.48.04.72.03.47-.02.89.14,1.24.45.36.31.71.66,1.04,1.01.3.3.51.66.61,1.07.13.46.32.92.3,1.42,0,.1.02.21.04.31.01.08.16.19.22.17.54-.15,1.02-.44,1.53-.63.81-.31.79-.4,1.13-1.11.11-.22.17-.45.2-.7.02-.2.05-.41.1-.61.06-.24.05-.48-.04-.71-.06-.13-.09-.27-.09-.41,0-.58-.24-1.07-.51-1.56-.1-.18-.23-.34-.37-.49-.11-.13-.25-.24-.36-.36-.38-.42-.85-.58-1.41-.47-.05.01-.08.08-.11.14,0,.04,0,.07.03.1.19.15.38.3.58.44.15.1.26.22.35.38.14.24.28.48.41.72.24.4.33.83.29,1.3,0,.03-.02.06-.05.09-.02.02-.04.04-.07.04-.04,0-.07,0-.09-.03-.18-.14-.17-.37-.26-.55-.11-.21-.26-.41-.35-.63-.13-.33-.32-.61-.58-.85-.42-.38-.94-.58-1.49-.67-.1-.01-.21,0-.31.04-.07.02-.11.07-.13.14-.02.07-.01.14.03.19.07.08.14.15.23.2.11.08.23.14.34.22.05.05.08.11.11.17.04.08.02.14-.06.19-.02.02-.05.03-.08.04-.29-.02-.51-.21-.77-.29-.13-.04-.27-.04-.37.07ZM6.73,21.21c0,.32.05.61.31.84.08.07.11.17.17.26.12.18.28.3.49.36.17.05.33.1.49.15.12.04.28-.14.22-.27-.24-.6-.24-1.22-.16-1.84.08-.48.19-.95.32-1.41.03-.1.03-.2.06-.31.09-.27.22-.51.4-.72.29-.34.56-.7.83-1.06.11-.14.1-.26-.04-.37-.37-.26-.68-.58-.93-.96-.06-.08-.13-.17-.2-.23-.41-.36-.86-.54-1.43-.4-.65.16-1.23.42-1.82.74-.49.27-1.09,1.22-1.28,1.71-.01.04-.02.07-.02.1-.04.34-.05.69.07,1.03,0,.02.04.05.06.05.04,0,.07-.02.09-.05.66-1.29.58-1.03,1.4-1.78.22-.21.5-.37.83-.36.04,0,.07.01.09.03.05.04.04.1-.03.16-.25.19-.49.38-.76.54-.34.21-.54.54-.67.9-.07.19-.14.39-.18.59-.06.24-.04.48.04.72.03.07.07.11.14.13.07.02.14,0,.19-.04.08-.07.15-.15.22-.21s.13-.05.16,0c.02.03.04.07.04.09-.03.17-.07.34-.12.5-.06.2-.07.41-.03.61.04.13.1.26.18.36.06.1.21.12.26.04.16-.27.32-.54.48-.8.01-.02.06,0,.09,0,.03.01.07.04.07.06.06.28-.11.54-.04.81ZM8.41,13.82c0-.18-.02-.35-.02-.53,0-.28-.08-.54-.23-.79-.14-.24-.31-.46-.51-.65-.59-.54-1.26-.96-1.99-1.28-.46-.21-.94-.18-1.42-.1-.07.01-.13.04-.19.07-.42.26-.79.55-1.02,1.01-.04.08-.03.14.05.17.03.02.06.02.09.02.33-.1.66-.21.98-.3.07-.03.13-.03.2,0,.06.04.1.08.13.14,0,.04,0,.06-.03.08-.3.17-.6.33-.91.49-.29.15-.49.38-.61.68-.05.13-.11.26-.17.38-.02.03-.03.06-.03.1.02.07.04.13.07.19.04.06.1.06.18.01.32-.2.64-.42.97-.59.34-.16.71-.25,1.06-.4.53-.22,1.07-.24,1.63-.2.03,0,.06.02.09.05.03.02.05.04.07.07.04.08.02.15-.07.17-.47.09-.95.15-1.41.3-.51-.01-.92.26-1.34.5-.4.23-.69.58-.94.95-.12.16-.16.38-.22.58,0,.07,0,.14.02.2.03.12.24.2.33.11.13-.11.26-.22.38-.35.28-.27.6-.46.97-.56.03-.01.1.08.12.13.02.07,0,.14-.04.19-.2.19-.42.36-.64.52-.25.16-.38.4-.48.66-.08.23-.15.46-.2.69-.08.31-.05.61.08.91.03.08.08.11.17.09.04,0,.06-.02.08-.05.3-.59.68-1.11,1.14-1.58.35-.34.71-.64,1.2-.78.17-.05.32-.11.48-.19.25-.14.52-.17.8-.18.31,0,.62-.02.93-.02.07,0,.2-.14.21-.2,0-.24.01-.48.02-.72ZM6.95,6.03c-.1,0-.2.02-.31.04-.1.01-.2.05-.29.1-.26.18-.5.37-.74.56-.03.03-.04.06-.04.09,0,.03.02.05.05.07.36.1.73.2,1.09.32.34.11.61.31.82.6.03.04,0,.13-.03.18-.04.08-.09.1-.18.06-.25-.12-.49-.25-.73-.38-.74-.39-1.5-.2-1.99.51-.02.03-.03.08-.02.1.04.05.09.11.14.11.34,0,.69-.01,1.04,0,.24,0,.48.02.72.06.4.09.8.21,1.19.34.25.08.41.25.49.5.02.05-.04.13-.07.18-.03.02-.05.03-.09.02-.21-.11-.41-.26-.63-.34-.75-.27-1.54-.33-2.33-.33-.15,0-.27.06-.38.16-.2.19-.41.38-.6.57-.04.05-.07.11-.08.18-.01.02,0,.07.02.08.1.03.2.04.3.05.52-.05,1.04,0,1.54.16.27.09.48.28.72.39.82.4,1.52.94,2.05,1.7.09.1.18.1.27-.01.31-.41.55-.88.9-1.26.07-.08.11-.17.15-.28.11-.43.26-.85.23-1.32-.02-.42-.15-.81-.27-1.2-.14-.44-.47-.76-.71-1.13-.14-.21-.38-.3-.57-.45-.43-.33-.91-.48-1.66-.44h0ZM28.11,16.36c-.64.94-1.46,1.73-2.38,2.42-.22.17-.46.3-.72.4-.09.03-.2,0-.3-.02-.03,0-.08-.04-.08-.06,0-.06-.01-.15.03-.18.07-.07.16-.13.25-.17.65-.29,1.17-.73,1.64-1.26.21-.23.42-.46.61-.7.4-.48.71-1.02.81-1.65.03-.16.06-.33-.11-.48-.1.14-.23.27-.3.42-.26.56-.73.91-1.2,1.27-.31.22-.63.43-.96.61-.11.08-.24.13-.38.16-.41.08-.83.02-1.23.17-.34-.05-.69-.11-1.03-.17-.07-.01-.14-.04-.2-.05-.08-.02-.29.14-.31.23-.1.44-.14.89.02,1.32.08.23.16.45.24.68.03.07.06.13.1.18.33.35.65.72,1.11.92.35.15.7.31,1.09.33.3.17.61.06.91.03.31-.02.61-.11.88-.27.33-.19.67-.36.99-.56.09-.05.17-.12.23-.21.26-.39.4-.8.27-1.28-.03-.08-.09-.12-.15-.09-.32.14-.62.31-.89.53-.08.06-.17.11-.27.17-.05.03-.19-.04-.26-.14-.07-.07-.06-.13.03-.17.11-.08.22-.17.33-.24.7-.46,1.09-1.14,1.33-1.92.05-.12,0-.2-.12-.24h0ZM25.11,25.59c.07-.14.2-.18.32-.22.17-.05.33-.09.51-.11.24-.05.46-.15.66-.3.43-.35.78-.78.99-1.31.05-.13-.07-.28-.21-.29-.22-.03-.39.13-.6.13-.05,0-.09-.08-.13-.13-.01-.04,0-.07.03-.09.24-.13.49-.25.73-.38.16-.09.23-.24.29-.41.01-.03.01-.06,0-.09-.04-.08-.11-.11-.17-.06-.36.29-.79.42-1.21.57-.14.04-.28.06-.41.06-.07.01-.14,0-.21-.02-.06-.03-.1-.07-.11-.14,0-.07.03-.13.08-.17.22-.1.44-.19.67-.27.85-.23,1.35-.8,1.59-1.62,0-.07-.02-.13-.05-.19-.04-.07-.1-.07-.18-.03-.27.16-.55.29-.81.47-.2.14-.42.22-.66.25-.27.04-.53.14-.8.2-.17.05-.34.04-.51-.01-.45-.16-.95-.18-1.39-.41-.09.04-.21.05-.28.12-.41.46-.53,1.03-.57,1.63.14.64.22,1.3.57,1.86.16.27.35.51.54.76.05.05.1.09.17.12.54.31,1.11.57,1.72.7.21.04.41.05.62.04.22,0,.39-.15.51-.32.05-.09.09-.18.13-.28.01-.03.03-.09.02-.1-.05-.04-.12-.1-.16-.08-.33.1-.65.24-.97.34-.28.09-.55.07-.72-.22ZM25.12,32.42c.03-.06.05-.13.06-.19,0-.24.03-.49-.02-.72-.09-.47-.21-.94-.36-1.4-.13-.36-.27-.71-.44-1.05-.09-.19-.2-.36-.33-.52-.46-.53-.96-1-1.61-1.28-.58-.25-1.07-.63-1.52-1.07-.22-.22-.42-.45-.64-.68-.06-.08-.14-.15-.22-.21-.06-.02-.12-.03-.19,0-.02,0-.05.05-.06.08-.15.44,0,.89-.01,1.34-.02.35.09.68.23,1,.1.22.18.45.3.66.31.54.56,1.1,1.04,1.53.39.34.73.73,1.13,1.07.72.6,1.38,1.26,1.9,2.05.05.07.1.09.15.05.03-.03.04-.06.04-.09.01-.1,0-.2-.02-.31-.15-.46-.4-.88-.5-1.35-.02-.1-.11-.18-.16-.27-.26-.46-.66-.8-1-1.19-.09-.1-.19-.19-.22-.34-.02-.09-.02-.11.07-.08.13.05.27.07.38.15.45.32.83.72,1.22,1.12.05.05.09.1.11.17.17.52.5.98.61,1.53,0,.02.04.03.06.04ZM16.45,17.18c.23-.17.51-.33.73-.54.32-.3.51-.67.37-1.12-.09-.34-.16-.68-.2-1.02-.01-.05-.07-.1-.11-.14-.04-.01-.07,0-.1.02-.72.82-1.63,1.13-2.7.99-.1-.01-.21,0-.31,0-.11.01-.2.06-.26.16-.11.18-.2.36-.31.54-.18.28-.31.55-.13.86-.02.41.18.72.39,1.05.38.63.92,1.02,1.55,1.34.42.2.86.26,1.32.16.1-.03.18-.09.25-.17.08-.08.11-.17.09-.28-.02-.08-.12-.14-.24-.14-.2,0-.42,0-.63,0-.31-.02-.51-.19-.65-.45-.01-.03-.01-.06,0-.09.02-.03.04-.05.08-.07.14-.03.28-.01.4.06.39.18.74.08,1.09-.11.03-.02.06-.04.09-.05.28-.17.42-.54.34-.9-.02-.03-.05-.04-.08-.04-.42.14-.81.37-1.25.49-.45.13-.88.15-1.3-.09-.24-.14-.5-.24-.74-.36-.08-.04-.1-.1-.06-.15.02-.03.05-.04.09-.05.24-.03.48-.04.71.07.23.1.46.14.71.11l.86-.06ZM10.74,12.95l.61.06c.26.03.45.17.61.34.08.08.11.17.09.28-.02.07-.15.11-.27.06-.16-.06-.32-.12-.48-.19-.28-.13-.53-.06-.79.07-.22.11-.39.29-.56.45-.17.18-.18.36-.04.56.1.13.24.11.38.08.2-.05.39-.13.59-.17.18-.04.34,0,.48.11.05.05.07.1.07.16-.02.07-.06.12-.13.15-.06.03-.13.05-.19.04-.21-.03-.41.05-.6.11-.28.09-.48.27-.61.53-.07.13-.07.26.01.39.19.31.45.52.82.57.21.03.43,0,.62.06.32.1.61,0,.91-.09.2-.06.38-.17.51-.34.48-.62.76-1.31.6-2.11-.05-.27-.12-.54-.22-.8-.1-.25-.26-.48-.57-.56-.36-.09-.72-.22-1.09-.32-.1-.03-.2-.03-.3.01-.21.1-.42.22-.46.53ZM25.21,47.67c.07-.2.14-.39.2-.58,0-.02-.03-.06-.05-.08s-.06-.03-.07-.02c-.13.12-.24.24-.35.38-.15.19-.25.44-.43.57-.41.32-.72.74-1.12,1.07-.33.26-.6.57-.81.94-.1.18-.23.34-.37.49-.64.73-1.1,1.57-1.55,2.43-.01.02,0,.06.02.09.04.07.09.07.16,0,.06-.07.14-.15.21-.23.41-.46.85-.9,1.31-1.32.06-.05.14-.02.18.05.02.03.03.06.02.08-.06.13-.13.24-.22.35-.11.13-.27.22-.38.35-.61.79-1.21,1.58-1.67,2.48-.02.04-.02.07,0,.1.02.03.04.05.07.07.03.02.07.04.08.03.42-.3.75-.7,1.07-1.1.27-.32.53-.64.79-.96.55-.66,1.08-1.33,1.48-2.11.25-.49.56-.95.7-1.49.03-.1.07-.19.13-.28.24-.42.44-.85.59-1.31ZM11.96,11.83c.19.16.42.23.64.33.35.15.66.37.93.65.09.1.17.21.22.34.16.34.25.71.28,1.09.02.19.15.3.31.38.18.1.38.16.59.16.17,0,.34-.02.52-.04.55-.09.97-.33,1.17-.89.06-.16.14-.31.2-.47.08-.19.06-.29-.11-.45-.09-.08-.21-.09-.27-.02-.12.17-.25.33-.36.51-.14.22-.34.33-.58.4-.08.04-.14.01-.18-.07-.03-.06-.03-.12,0-.18.08-.11.17-.22.27-.32.28-.32.29-.69.19-1.07-.03-.06-.06-.12-.11-.17-.07-.09-.21-.11-.26-.04-.14.19-.28.39-.42.59-.05.07-.2.07-.28.02-.08-.04-.1-.1-.07-.18.07-.19.17-.38.03-.59-.06-.09-.09-.18-.11-.29-.05-.19-.17-.3-.36-.3-.45.01-.9.02-1.34.06-.32.04-.6.16-.84.38-.04.04-.05.12-.07.18ZM30.07,21.31s.08-.02.09-.04c.24-.38.65-.62.85-1.04.05-.11.2-.18.31-.27.03-.01.06-.01.08,0,.03.02.05.05.06.08.04.15,0,.28-.1.39-.49.45-.76,1.08-1.17,1.59-.13.16-.18.37-.27.56,0,.04,0,.06.02.09.04.07.1.07.17,0,.65-.58,1.24-1.2,1.63-2,.09-.19.24-.34.35-.51.2-.33.44-.64.57-.99.2-.55.43-1.09.63-1.64.18-.49.26-1.01.35-1.52.01-.07,0-.14-.02-.2,0-.03-.04-.08-.05-.08-.06.01-.15.02-.17.06-.19.28-.42.56-.56.87-.19.46-.49.83-.83,1.18-.71.73-1.22,1.59-1.71,2.47-.15.27-.23.57-.35.86-.01.02.02.06.03.08.01.06.04.08.09.04ZM25.57,30.54c.01.07.02.14.04.2.13.39.27.78.41,1.17.02.03.04.05.08.06.02,0,.06-.03.06-.05.12-.68.38-1.32.55-1.98.07-.27.17-.53.32-.76.07-.12.11-.25.14-.39.13-.61.31-1.2.48-1.8.03-.1.05-.2.05-.3,0-.07-.04-.13-.09-.17-.06-.03-.13-.04-.19,0-.4.24-.71.54-.78,1.03-.04.24-.11.47-.17.71-.13.65-.37,1.26-.72,1.82-.06.08-.11.17-.16.27-.02.06-.03.13-.03.19ZM29.03,20.5c0-.17-.01-.34-.02-.52,0-.03-.02-.06-.04-.09-.02-.03-.04-.07-.06-.08-.03-.01-.06.01-.09.03-.13.08-.19.19-.2.34-.04.55-.13,1.09-.18,1.64-.05.48-.16.95-.2,1.43-.05.48-.24.93-.38,1.4-.04.16-.09.33-.14.49-.03.08,0,.14.08.17.11.05.2.03.26-.08.03-.06.06-.13.08-.19.21-.52.32-1.06.43-1.59.09-.47.27-.93.27-1.42,0-.52.24-1.01.18-1.54Z"/>
    </g>
  </g>
</svg>