<?xml version="1.0" encoding="UTF-8"?>
<svg id="Layer_2" data-name="Layer 2" xmlns="http://www.w3.org/2000/svg" xmlns:xlink="http://www.w3.org/1999/xlink" viewBox="0 0 60.53 76.73">
  <defs>
    <style>
      .cls-1 {
        clip-path: url(#clippath);
      }

      .cls-2 {
        fill: none;
      }

      .cls-2, .cls-3 {
        stroke-width: 0px;
      }

      .cls-3 {
        fill: #d3d7d6;
      }

      .cls-4 {
        clip-path: url(#clippath-1);
      }

      .cls-5 {
        clip-path: url(#clippath-3);
      }

      .cls-6 {
        clip-path: url(#clippath-2);
      }
    </style>
    <clipPath id="clippath">
      <rect class="cls-2" x="13.7" y="10.41" width="46.82" height="60.82"/>
    </clipPath>
    <clipPath id="clippath-1">
      <rect class="cls-2" x="8.19" width="10.67" height="18.26"/>
    </clipPath>
    <clipPath id="clippath-2">
      <rect class="cls-2" y="22.26" width="26.86" height="22.67"/>
    </clipPath>
    <clipPath id="clippath-3">
      <rect class="cls-2" x="13.7" y="65.23" width="21.42" height="11.49"/>
    </clipPath>
  </defs>
  <g id="Layer_1-2" data-name="Layer 1">
    <g>
      <g class="cls-1">
        <path class="cls-3" d="M60.49,70.7c-6.01-2.8-11.97-5.8-17.41-9.65-5.43-3.9-10.05-8.72-14.61-13.53-2.24-2.43-4.61-4.78-6.46-7.61-1.84-2.84-3.02-6.03-3.99-9.2-1.99-6.34-3.44-12.86-4.29-19.44h.08c1.37,6.47,3.04,12.88,5.04,19.18,1.02,3.14,2.1,6.26,3.83,9.03,1.74,2.76,4.02,5.19,6.14,7.73,2.16,2.51,4.39,4.96,6.83,7.2,2.42,2.26,5.08,4.23,7.83,6.06,5.46,3.71,11.29,6.85,17.04,10.16l-.04.08"/>
      </g>
      <g class="cls-4">
        <path class="cls-3" d="M17.14,16.24c-.53.66-1.23,1.29-2.16,1.38-.94.05-1.76-.54-2.41-1.1-.66-.59-1.24-1.23-1.8-1.89-.58-.67-1.08-1.41-1.48-2.22-.39-.81-.66-1.71-.67-2.65-.02-.94.23-1.83.52-2.66.6-1.64,1.35-3.2,2.24-4.69.21-.37.44-.74.67-1.1l.35-.54c.13-.17.19-.38.43-.55.26-.18.58-.07.76.07.19.14.34.33.46.51.24.35.51.69.74,1.06.98,1.41,1.91,2.89,2.63,4.47.7,1.58,1.27,3.27,1.31,5.05.03.88-.09,1.77-.35,2.6-.28.83-.7,1.6-1.25,2.27ZM17.07,16.18c.54-.66.93-1.44,1.1-2.26.16-.83.16-1.68.03-2.5-.26-1.65-.84-3.24-1.42-4.83-.59-1.58-1.28-3.15-2.2-4.59-.23-.36-.47-.71-.73-1.05-.22-.32-.6-.66-.84-.48-.11.07-.22.29-.33.47l-.31.56c-.2.38-.39.76-.58,1.14-.73,1.54-1.35,3.12-1.89,4.72-.26.8-.44,1.59-.4,2.38s.26,1.56.6,2.29c.33.74.8,1.43,1.3,2.09.53.67,1.02,1.38,1.56,2.01.54.61,1.19,1.2,2.01,1.26.82.03,1.57-.55,2.1-1.2"/>
      </g>
      <path class="cls-3" d="M13.41,23.28c-.74-.94-1.41-1.93-2.08-2.91-.32-.49-.67-.95-1.06-1.32-.39-.36-.88-.58-1.41-.79-.54-.2-1.13-.4-1.68-.7s-1.03-.69-1.49-1.07c-.9-.77-1.88-1.54-3.04-1.56l.11-.27,1.72,1.44c.58.49,1.13,1.06,1.53,1.74.41.67.68,1.37,1.04,1.98.35.61.78,1.08,1.37,1.4.58.31,1.29.54,1.99.79l2.1.77c.7.26,1.4.54,2.08.81.35.14.68.29,1.01.31.16.01.35-.03.54-.04.19-.02.43,0,.57.17l-.06.06c-.3-.19-.64.06-1.05.1-.42.05-.81-.08-1.16-.17-.72-.19-1.45-.37-2.16-.58l-2.15-.62c-.7-.23-1.45-.41-2.17-.81-.74-.39-1.31-1.1-1.66-1.8-.36-.7-.61-1.4-.93-2.03-.64-1.24-1.78-2.26-2.82-3.31l-.3-.3.41.03c1.29.09,2.28.92,3.27,1.55.5.32,1,.63,1.52.84.53.2,1.09.33,1.68.54.57.2,1.19.51,1.66.97.47.46.8,1,1.09,1.53.56,1.05,1.13,2.1,1.62,3.19l-.07.04"/>
      <path class="cls-3" d="M28.14,26.95c1.79-.2,3.58-.41,5.24-.99.82-.29,1.6-.69,2.31-1.18.7-.51,1.31-1.12,1.83-1.81,1.02-1.4,1.73-3.02,2.19-4.72.47-1.71.74-3.48.97-5.26l.22.17c-3.05,1.14-5.89,2.82-8.43,4.84-.64.49-1.24,1.03-1.86,1.56-.6.54-1.2,1.08-1.68,1.69-.49.6-.81,1.26-.86,1.99-.07.73.1,1.51.17,2.38.03.43.03.88-.06,1.34-.1.45-.24.84-.4,1.23-.32.79-.69,1.53-1.05,2.24-.36.73-.69,1.45-.9,2.19-.21.76-.39,1.55-.51,2.34-.48,3.17-.28,6.46.74,9.56l-.08.03c-1.35-2.99-1.81-6.4-1.41-9.7.1-.83.24-1.64.44-2.46.22-.83.56-1.6.92-2.35.34-.74.72-1.46,1.02-2.19.15-.35.28-.74.36-1.08.08-.34.09-.71.07-1.1-.04-.77-.21-1.61-.11-2.51.09-.91.54-1.77,1.1-2.41.57-.65,1.21-1.18,1.84-1.7s1.3-1.01,1.97-1.48c2.7-1.89,5.61-3.42,8.62-4.72l.24-.1-.02.28c-.15,1.79-.27,3.6-.65,5.39-.4,1.78-1.08,3.55-2.24,5.02-1.13,1.48-2.77,2.6-4.55,3.06-1.78.52-3.6.59-5.4.56v-.09"/>
      <path class="cls-3" d="M26.94,28.37c.1-.95-.11-1.85-.47-2.66-.36-.82-.92-1.54-1.51-2.24-.58-.71-1.21-1.43-1.88-2.1s-1.38-1.29-2.12-1.88l.28-.17c.28,1.07.59,2.14.85,3.21.24,1.08.51,2.15.71,3.23.22,1.07.4,2.12.83,3.08.43.93,1.09,1.81,2.09,2.29l-.02.08c-1.14-.19-2.09-1.05-2.68-2.05-.6-1.01-.9-2.14-1.11-3.22-.22-1.08-.38-2.18-.56-3.27-.18-1.09-.29-2.19-.44-3.29l-.07-.52.35.35c.67.67,1.38,1.31,2.13,1.9.77.57,1.54,1.14,2.21,1.85.66.71,1.22,1.56,1.54,2.52.31.94.35,2.01-.04,2.91l-.08-.02"/>
      <path class="cls-3" d="M24.58,35.1c1.03.44,2.11.26,3.2.12,1.08-.14,2.15-.38,3.22-.61,1.07-.23,2.15-.51,3.16-.95,1.01-.45,1.95-1.06,2.8-1.76l.1.42c-1.14-.11-2.24-.41-3.31-.7-1.07-.28-2.13-.51-3.17-.53-1.04-.03-2.08.2-3.04.67-.96.46-1.83,1.15-2.53,2.02l-.07-.04c.46-1.04,1.28-1.93,2.27-2.56.99-.62,2.17-1,3.37-1s2.32.33,3.4.67c1.07.34,2.09.74,3.16,1.01l.55.14-.46.28c-.96.59-1.95,1.12-2.95,1.64-1,.51-2.01,1.02-3.09,1.39-1.08.34-2.21.53-3.35.59-1.09.05-2.39.04-3.31-.71l.05-.07"/>
      <path class="cls-3" d="M36.35,19.22c-.35.95-1.07,1.7-1.88,2.23-.42.26-.9.42-1.3.67-.42.24-.78.55-1.13.89-.69.68-1.4,1.28-2.04,1.93-.68.62-1.29,1.26-1.9,2.04l-.08-.04c.1-1,.66-1.92,1.33-2.65.7-.7,1.53-1.26,2.41-1.67.44-.21.86-.43,1.24-.73.38-.29.69-.67,1.03-1,.71-.63,1.43-1.15,2.24-1.72l.07.05"/>
      <path class="cls-3" d="M23.56,24.49c.41.39.64.76.78,1.18.05.23.05.49.16.71.1.21.29.37.49.51.42.26.79.58,1.08,1.02.26.44.41,1.07.15,1.58h-.08c-.3-.45-.55-.72-.82-1.07-.23-.36-.52-.74-.68-1.23-.1-.24-.2-.46-.36-.65-.16-.19-.4-.33-.56-.53-.29-.42-.4-.95-.23-1.49l.08-.02"/>
      <path class="cls-3" d="M32.61,32.74c-.65.37-1.29.54-1.97.57-.34,0-.7-.08-1.04-.05-.34.03-.66.15-.98.29-.63.3-1.27.49-1.92.66-.66.14-1.26.2-1.97.35l-.05-.07c.42-.63,1.14-.96,1.79-1.16.67-.17,1.35-.27,2.05-.24.35,0,.7,0,1.03-.09.33-.08.65-.28.97-.39.67-.17,1.36-.17,2.07.05v.08"/>
      <g class="cls-6">
        <path class="cls-3" d="M12.82,39.14c-.51-1.66-1.09-3.28-1.79-4.84-.72-1.54-1.56-3.05-2.89-4.04-.66-.49-1.41-.91-2.15-1.38s-1.45-1.01-2.1-1.59c-1.33-1.15-2.48-2.45-3.7-3.68l.26-.15c.65,2.88,1.48,5.76,3.03,8.24.78,1.23,1.68,2.38,2.8,3.28,1.08.92,2.41,1.52,3.73,2.21,1.32.7,2.57,1.39,3.95,1.82.69.23,1.4.42,2.11.63.72.22,1.43.46,2.13.72,2.81,1.03,5.47,2.46,7.86,4.2l-.05.07c-2.58-1.46-5.28-2.65-8.06-3.56-1.39-.46-2.81-.77-4.27-1.2-1.47-.43-2.82-1.19-4.09-1.9s-2.66-1.38-3.82-2.4c-1.15-1.02-2.08-2.25-2.78-3.58-1.43-2.67-2.06-5.6-2.83-8.45l-.15-.55.41.41c1.22,1.22,2.52,2.37,3.88,3.42.68.52,1.38,1.01,2.1,1.45.71.44,1.51.83,2.22,1.41,1.44,1.16,2.34,2.78,2.95,4.42.62,1.63,1.08,3.32,1.36,5.04l-.08.02"/>
      </g>
      <path class="cls-3" d="M14.45,39.74c-1.05-.16-1.97.41-2.7,1.08-.74.68-1.47,1.52-2.36,2.15-.88.64-1.85,1.12-2.84,1.53-.99.41-1.99.77-3.02,1.08v-.3c1.27.32,2.55.57,3.8.61.62,0,1.24-.03,1.82-.18.59-.15,1.15-.41,1.71-.69,1.11-.58,2.15-1.31,3.15-2.13,1-.81,1.99-1.65,2.93-2.55l.07.05c-.71,1.1-1.59,2.1-2.53,3.03-.93.92-1.98,1.8-3.19,2.42-1.19.65-2.65.95-4,.79-1.36-.13-2.6-.63-3.84-1.05l-.52-.18.53-.12c1.02-.23,2.02-.6,2.92-1.13.91-.52,1.74-1.16,2.55-1.79.41-.32.81-.65,1.19-.99.38-.35.78-.71,1.22-1.05.84-.67,2.09-1.13,3.13-.66l-.03.08"/>
      <path class="cls-3" d="M11.56,38.56c-.54-.57-.84-1.3-1.14-1.97-.28-.71-.55-1.3-.98-1.86-.41-.57-.9-1.14-1.47-1.61-.58-.48-1.21-.88-1.82-1.34-.63-.45-1.2-.96-1.7-1.54-.52-.56-.99-1.16-1.42-1.79-.82-1.28-1.48-2.64-1.99-4.07l.08-.04c.98,1.17,1.81,2.4,2.67,3.59.83,1.22,1.7,2.39,2.67,3.5.49.55,1.07,1.03,1.68,1.46.61.43,1.29.81,1.85,1.38.57.57.88,1.39,1.06,2.1.21.72.32,1.45.58,2.15l-.07.05"/>
      <path class="cls-3" d="M18.03,40.7c.14-1.17.51-2.3.17-3.31-.28-1.04-.93-1.99-1.41-3.05-.51-1.04-1-2.09-1.64-3.06-.63-.97-1.36-1.87-2.1-2.76l.53-.22c.22.99.42,1.99.6,2.98.19,1,.37,1.99.5,3,.15,1,.24,2.02.35,3.02.05.49.1.98.24,1.44.13.47.33.92.71,1.25l-.05.07c-.48-.22-.82-.7-1.05-1.17-.23-.48-.38-.98-.5-1.49-.2-.99-.43-1.98-.6-2.98-.18-1-.32-2-.44-3.01-.14-1.01-.26-2.01-.35-3.02l-.11-1.25.64,1.03c.62.98,1.2,1.99,1.84,2.96.63.98,1.34,1.9,1.99,2.87.64.96,1.26,1.99,1.51,3.22.13.6.08,1.28-.1,1.84-.17.57-.41,1.1-.65,1.64l-.08-.02"/>
      <path class="cls-3" d="M16.73,40.28c-.1-1.01-.29-1.9-.48-2.82-.08-.45-.15-.97-.29-1.44-.14-.47-.36-.92-.61-1.35-.51-.86-.91-1.77-1.26-2.7-.32-.94-.57-1.9-.66-2.92l.08-.03c.61.82,1.05,1.71,1.44,2.63.34.92.65,1.86.84,2.85.1.49.23.97.43,1.42.2.46.52.85.72,1.34.34.97.37,2.1-.13,3.04l-.08-.02"/>
      <path class="cls-3" d="M35.28,64.09c-.92-2.09-2.37-3.81-3.92-5.46-1.52-1.68-3.02-3.38-4.89-4.55-1.86-1.19-3.99-1.94-6.19-2.36-2.2-.43-4.48-.49-6.73-.35l.1-.22c1.88,2.57,4.16,4.84,6.68,6.72,1.27.94,2.6,1.78,4.01,2.47,1.4.71,2.89,1.24,4.39,1.73s3.04.96,4.56,1.38c1.52.4,3.03.64,4.56.34.77-.12,1.55-.31,2.34-.45.8-.13,1.6-.22,2.41-.27,1.61-.1,3.22.03,4.8.31l-.02.08c-1.58-.15-3.18-.1-4.74.08-1.58.16-3.07.6-4.67.95-1.61.36-3.35.21-4.91-.21-1.57-.42-3.08-.86-4.63-1.35-3.06-.99-6.04-2.47-8.53-4.53-2.53-2.03-4.6-4.52-6.49-7.09l-.15-.2.26-.02c2.27-.13,4.55-.14,6.83.15,2.27.29,4.55.95,6.52,2.21,1.98,1.27,3.49,3.06,4.94,4.79.72.88,1.44,1.77,2.07,2.72.61.97,1.13,2.01,1.47,3.1l-.08.03"/>
      <path class="cls-3" d="M19.43,73.78c1.59-1.03,3.21-1.93,4.89-2.77.84-.39,1.71-.76,2.53-1.21.82-.45,1.55-1.05,2.42-1.49.9-.47,1.91-.53,2.78-.7.9-.17,1.78-.41,2.63-.7,1.72-.56,3.29-1.49,4.6-2.84l.07.05c-.88,1.71-2.55,2.98-4.36,3.66-.91.34-1.86.53-2.82.64-.97.13-1.87.06-2.72.34-1.73.59-3.21,1.88-4.79,2.89-1.61.96-3.35,1.73-5.19,2.22l-.04-.08"/>
      <g class="cls-5">
        <path class="cls-3" d="M28.27,66.61c1.23-.45,2.52-.74,3.86-.77.67.01,1.36.09,2,.47.32.19.62.49.75.9.13.4.08.8,0,1.15-.89,2.64-2.82,4.72-5.1,6.12-2.29,1.41-4.96,2.13-7.59,2.23-2.65.11-5.25-.24-7.82-.71l-.54-.1.52-.22c1.27-.53,1.96-1.8,2.82-2.94.43-.57.93-1.15,1.59-1.56.68-.44,1.43-.56,2.06-.77,1.29-.4,2.52-1.08,3.72-1.81,1.21-.72,2.42-1.49,3.74-2ZM28.3,66.69c-1.32.5-2.46,1.35-3.58,2.2-1.13.84-2.29,1.73-3.68,2.23-.7.24-1.37.37-1.9.71-.55.33-1.01.82-1.47,1.33-.45.52-.89,1.09-1.4,1.61s-1.12.97-1.83,1.22l-.02-.32c2.52.62,5.16.82,7.71.51,2.55-.32,5.05-1.06,7.17-2.45,2.12-1.35,3.89-3.33,4.86-5.57.19-.55.13-1.05-.34-1.4-.46-.34-1.09-.52-1.71-.59-1.27-.13-2.59.08-3.81.52"/>
      </g>
      <path class="cls-3" d="M34.71,63.84c-1.63-1.2-3.09-2.53-4.57-3.84-.72-.68-1.43-1.38-2.24-1.95-.81-.58-1.7-1.03-2.63-1.38-1.85-.7-3.76-1.29-5.6-2.08-1.78-.77-3.79-1.44-5.31-2.81l.05-.07c1.8.89,3.7,1.31,5.61,2.04,1.83.78,3.7,1.48,5.46,2.49.88.49,1.73,1.05,2.58,1.57.85.53,1.73,1.04,2.55,1.64,1.59,1.24,2.96,2.72,4.17,4.33l-.06.06"/>
      <path class="cls-3" d="M39.83,43.99c1.76-.7,3.26-1.89,4.43-3.33,1.16-1.45,2.06-3.11,2.58-4.88.25-.89.44-1.78.4-2.68s-.22-1.81-.49-2.7c-.55-1.79-1.27-3.55-2.23-5.17h.24c-1.77,2.56-3.44,5.27-4.23,8.25-.4,1.49-.56,3-.44,4.53.09,1.53.35,3.07.43,4.67.04.8.02,1.63-.12,2.4l-.34,2.33c-.18,1.51-.21,3.05-.02,4.57.38,3.04,1.49,6,3.27,8.57l-.07.05c-2.05-2.38-3.45-5.36-3.94-8.52-.27-1.57-.31-3.19-.13-4.78.15-1.55.54-3.08.45-4.59-.04-1.53-.27-3.08-.32-4.67-.08-1.59.16-3.23.66-4.73,1.03-3.04,2.86-5.63,4.56-8.24l.13-.19.12.2c.98,1.64,1.87,3.33,2.55,5.14.33.91.6,1.86.66,2.86.05.99-.1,2-.41,2.93-.61,1.85-1.55,3.6-2.86,5.03-1.3,1.43-2.97,2.57-4.83,3.04l-.03-.08"/>
      <path class="cls-3" d="M39.84,49.8c.16-.65.6-1.16,1.06-1.61.48-.45,1.02-.82,1.6-1.14,1.17-.66,2.53-.89,3.83-.94,1.31-.04,2.6.08,3.88.26s2.55.46,3.78.84l.68.21-.62.26c-1.22.52-2.43,1.06-3.61,1.66-1.19.59-2.27,1.35-3.54,1.89-1.3.54-2.75.5-4.05.33-.64-.08-1.33-.08-1.99-.26-.33-.09-.68-.21-.9-.5-.22-.29-.2-.68-.13-.99ZM39.92,49.82c-.07.31-.07.66.14.9.21.22.53.32.85.35.64.06,1.28-.05,1.97-.08,1.33-.06,2.59-.06,3.8-.44.61-.17,1.22-.42,1.83-.67.61-.25,1.22-.51,1.82-.8,1.19-.57,2.35-1.2,3.51-1.86l.05.47c-1.25-.22-2.51-.39-3.76-.52-1.25-.11-2.52-.18-3.76-.17-1.24.02-2.46.17-3.64.54-.59.2-1.16.46-1.67.82s-.96.84-1.13,1.45"/>
      <path class="cls-3" d="M39.92,45.09c-.36-.82-.87-1.55-1.41-2.23s-1.15-1.32-1.8-1.9c-.65-.56-1.34-1.14-2.06-1.68-.72-.54-1.49-1.01-2.26-1.48l.23-.15c.22,1.1.57,2.17.9,3.23.34,1.06.69,2.12,1.21,3.04.5.95,1.2,1.65,2.15,2.27.91.64,1.92,1.24,2.65,2.15l-.06.06c-.91-.66-1.96-1.06-2.96-1.61-.49-.28-1.02-.57-1.48-.99-.45-.42-.82-.91-1.1-1.44-.56-1.06-.85-2.18-1.11-3.29-.26-1.11-.36-2.26-.48-3.39l-.04-.34.27.2c.72.53,1.5.99,2.3,1.4.8.43,1.62.84,2.35,1.43.72.6,1.32,1.33,1.82,2.11.49.78.88,1.66.98,2.58l-.08.02"/>
      <path class="cls-3" d="M52.66,47.57c-.44.39-1.04.53-1.55.64-.53.11-1.06.2-1.61.22-.54.01-1.09-.05-1.64-.02-.54.04-1.07.16-1.59.3-1.05.32-2.14.42-3.08.72-.97.27-1.94.71-3.01,1.04l-.05-.07c.78-.79,1.68-1.46,2.78-1.84.55-.18,1.13-.24,1.67-.28.55-.05,1.08-.04,1.63-.03s1.09,0,1.62-.1c.53-.1,1.05-.29,1.58-.41.53-.12,1.07-.16,1.61-.18.55-.02,1.06.03,1.6-.06l.04.08"/>
    </g>
  </g>
</svg>