<?xml version="1.0" encoding="UTF-8"?>
<svg id="Layer_2" data-name="Layer 2" xmlns="http://www.w3.org/2000/svg" xmlns:xlink="http://www.w3.org/1999/xlink" viewBox="0 0 51.97 77.25">
  <defs>
    <style>
      .cls-1 {
        clip-path: url(#clippath);
      }

      .cls-2 {
        fill: none;
      }

      .cls-2, .cls-3 {
        stroke-width: 0px;
      }

      .cls-3 {
        fill: #d3d7d6;
      }
    </style>
    <clipPath id="clippath">
      <rect class="cls-2" width="51.97" height="76.96"/>
    </clipPath>
  </defs>
  <g id="Layer_1-2" data-name="Layer 1">
    <g>
      <g class="cls-1">
        <path class="cls-3" d="M44.96,46.07c-.46.6-.89,1.23-1.44,1.77-.11.11-.22.24-.32.36-.24.29-.46.6-.76.84-.1.09-.19.2-.27.31-.41.51-.87.97-1.38,1.39-.27.22-.53.46-.8.69-.54.46-1.15.81-1.72,1.22-.45.31-.9.61-1.34.92-.11.07-.22.16-.32.25-.44.44-.94.81-1.41,1.22-.33.28-.63.59-.95.89-.16.15-.32.29-.48.44-.28.26-.58.49-.84.76-.24.26-.54.46-.8.69-.42.35-.84.69-1.22,1.07-.14.13-.28.26-.43.38-1.03.85-1.95,1.79-2.7,2.91-.15.22-.32.44-.49.65-.49.63-.85,1.32-1.09,2.08-.06.18-.13.36-.18.54-.09.29-.16.57-.19.88-.06.59-.14,1.18-.21,1.78-.09.7-.23,1.39-.42,2.07-.06.23-.11.47-.15.71-.06.46-.17.91-.3,1.35-.32,1.09-.65,2.18-1,3.27-.14.41-.3.82-.48,1.21-.07.15-.16.28-.27.41-.06.06-.13.1-.2.13-.11.05-.29-.04-.33-.16-.05-.16-.04-.32.03-.47.44-.94.71-1.93.99-2.92.22-.75.46-1.51.64-2.27.14-.58.31-1.16.39-1.75.03-.21.09-.42.14-.64.07-.34.14-.69.19-1.04.11-.72.21-1.44.33-2.17.16-.96.37-1.92.49-2.89.13-1.02.34-2.03.38-3.07,0-.24.06-.48.1-.72.07-.46.15-.91.11-1.38,0-.08.01-.17.02-.24.09-1.03.12-2.06.08-3.09,0-.05,0-.11,0-.16.09-.48.04-.97.01-1.46-.05-.95-.18-1.89-.45-2.8-.2-.65-.36-1.31-.49-1.97-.08-.45-.21-.9-.37-1.33-.29-.76-.58-1.52-.95-2.24-.37-.73-.81-1.41-1.33-2.04-.4-.48-.78-.98-1.15-1.48-.4-.54-.84-1.06-1.32-1.54-.43-.42-.82-.85-1.19-1.32-.58-.74-1.22-1.45-1.82-2.19-.07-.08-.14-.17-.19-.26-.45-.65-.91-1.29-1.34-1.94-.23-.33-.43-.69-.59-1.06-.15-.35-.34-.68-.52-1.02-.33-.62-.65-1.24-.88-1.92-.15-.44-.33-.86-.55-1.27-.18-.37-.33-.74-.47-1.13-.32-.89-.63-1.79-.94-2.69-.06-.18-.1-.36-.15-.55-.17-.68-.37-1.36-.49-2.05-.07-.4-.17-.8-.28-1.19-.1-.4-.19-.79-.24-1.19-.11-.67-.26-1.33-.4-1.99-.2-.9-.35-1.81-.51-2.72-.15-.89-.29-1.77-.43-2.65-.02-.16-.05-.32-.1-.48-.13-.33-.18-.68-.22-1.03,0-.06-.02-.11-.03-.16-.21-.79-.4-1.58-.57-2.37-.06-.3-.23-.56-.39-.8-.18-.28-.34-.55-.52-.83-.2-.32-.45-.61-.69-.9s-.49-.57-.81-.79c-.14-.09-.26-.2-.37-.32-.45-.48-.97-.86-1.57-1.14-.08-.04-.15-.08-.21-.13-.54-.4-1.14-.73-1.74-1.04-.22-.11-.42-.24-.66-.33-.31-.12-.57-.31-.78-.57-.21-.25-.46-.46-.57-.78C0,.38.13.11.33.06c.05-.02.1-.03.16-.04.08-.02.17-.02.24-.02.14,0,.27.01.41.03.83.14,1.66.28,2.48.45.35.07.69.16,1.04.16.4,0,.72.2,1.07.36.02.01.05.03.07.04.31.34.7.6.95,1,.12.18.25.35.35.55.46.83.97,1.63,1.39,2.48.12.24.23.49.32.75s.22.49.39.71c.35.48.74.93,1.16,1.35.62.61,1.22,1.23,1.91,1.78.34.39.74.71,1.11,1.07.49.46.96.95,1.47,1.4.58.53,1.11,1.11,1.57,1.74.26.35.52.7.78,1.04.57.77,1.08,1.56,1.53,2.4.3.54.62,1.08.93,1.61.03.07.08.08.15.04.04-.03.07-.07.09-.12.01-.32.02-.65.01-.97-.02-.68.02-1.36.05-2.04.02-.35.05-.7.02-1.05-.01-.22,0-.44.02-.65.03-.6.02-1.19-.04-1.79-.04-.46-.07-.92-.09-1.38-.03-.76-.14-1.51-.27-2.26-.11-.64-.22-1.28-.33-1.92-.08-.57-.23-1.11-.42-1.65-.21-.56-.38-1.14-.55-1.71-.08-.28-.04-.54.1-.79.09-.17.31-.26.48-.19.1.04.2.08.29.14.48.31.93.65,1.32,1.07.25.28.53.54.79.81.26.27.48.59.72.88.86,1.04,1.44,2.23,2.01,3.43.44.94.77,1.91,1.06,2.9.46,1.62,1.01,3.21,1.55,4.8.4,1.16.74,2.33,1.1,3.49.33,1.06.65,2.13,1.04,3.17.16.43.28.88.43,1.32.43,1.34.84,2.69,1.25,4.04.2.67.48,1.32.73,1.98.23.61.44,1.22.57,1.86.11.53.28,1.05.42,1.57.27,1.03.39,2.08.44,3.14,0,.05,0,.11,0,.16-.1.78-.2,1.56-.32,2.34-.06.38-.15.74-.23,1.11-.06.27-.13.53-.19.79-.15.55-.31,1.1-.46,1.65-.17.63-.4,1.24-.68,1.83s-.53,1.19-.8,1.78c-.45.98-.93,1.96-1.38,2.95-.38.84-.69,1.71-.99,2.58-.11.33-.28.66-.34,1-.06.34-.02.7-.04,1.05-.04.76-.05,1.52-.04,2.28.02,1.28-.12,2.55-.31,3.81-.04.27-.09.54-.12.81-.04.3-.06.59-.07.89,0,.04.05.08.08.11,0,.01.05-.01.07-.03.46-.51.8-1.09,1.13-1.69.2-.38.37-.79.57-1.17.52-.99.86-2.05,1.29-3.07.21-.5.36-1.03.54-1.53.35-.97.72-1.93,1.12-2.89.22-.52.43-1.05.6-1.6.25-.77.51-1.54.78-2.31.11-.31.24-.6.38-.9.27-.57.55-1.12.87-1.66.05-.07.09-.14.13-.21.22-.56.58-1.04.92-1.53.32-.47.54-1.01.79-1.51.08-.17.17-.34.27-.5.6-.83,1.19-1.68,1.83-2.49.39-.48.78-.97,1.25-1.39.05-.03.08-.07.12-.11.39-.53.91-.93,1.33-1.43.23-.26.51-.49.77-.73.42-.38.85-.75,1.26-1.15.35-.34.68-.7.99-1.08.41-.51.89-.95,1.35-1.41.44-.44.93-.83,1.31-1.33.47-.38.8-.88,1.26-1.27.26-.23.54-.45.83-.65.38-.26.79-.48,1.17-.75.23-.16.48-.24.74-.32.27-.07.54-.06.8.05.23.07.36.23.39.47.03.22.03.43-.02.65-.16.8-.37,1.58-.62,2.36-.19.56-.36,1.13-.5,1.71-.14.61-.32,1.2-.5,1.8-.04.16-.12.3-.18.46-.36.99-.73,1.98-1.07,2.98-.21.59-.4,1.18-.56,1.79-.21.82-.51,1.6-.83,2.38-.14.35-.31.69-.51,1.02-.61.96-1.09,2.01-1.81,2.9ZM23.68,42.72c0-.05,0-.1-.02-.15-.03-.07-.08-.07-.11-.02-.01.01.02.05.04.06.04.04.08.07.11.1-.03.11,0,.2.1.28.06.05.12.09.19.14,0,.05,0,.1,0,.15,0,.03.02.04.05.05.02.02.04.02.06.01.04-.02.03-.07-.02-.11-.04-.04-.08-.06-.12-.09.03-.11-.02-.2-.1-.27-.06-.05-.13-.09-.19-.14ZM23.57,40.64c.11.08.2.18.26.31.12.24.25.48.38.71.01.02.05.03.07.03.07.02.11-.02.1-.09-.06-.59-.2-1.17-.43-1.73-.11-.27-.23-.55-.3-.84-.08-.38-.18-.74-.31-1.09-.16-.46-.28-.94-.48-1.39-.17-.78-.53-1.48-.86-2.19-.54-1.18-1.1-2.35-1.65-3.54-.08-.17-.14-.35-.2-.53-.02-.05-.02-.1,0-.16.02-.05.05-.09.09-.13.05-.04.11-.02.14.04.06.12.12.24.17.37.26.66.55,1.3.88,1.92.04.07.09.14.15.19.01.01.05.01.07,0,.02,0,.04-.03.04-.05.03-.14,0-.27-.06-.4-.19-.48-.39-.96-.58-1.43-.1-.25-.22-.49-.31-.76-.19-.59-.44-1.17-.72-1.72-.18-.34-.33-.68-.49-1.03-.46-.98-.92-1.97-1.32-2.98-.24-.63-.54-1.24-.79-1.88-.28-.71-.52-1.43-.77-2.15-.27-.74-.52-1.48-.8-2.22-.16-.4-.31-.81-.44-1.22-.24-.74-.55-1.47-.93-2.16-.5-.96-1.03-1.91-1.62-2.82-.01-.03-.02-.05-.02-.08-.02-.07,0-.11.06-.13.05-.01.12-.02.15,0,.24.22.48.44.64.73.24.46.53.89.81,1.32.14.2.25.42.35.65.16.34.28.7.44,1.05.41.83.67,1.71.97,2.58.4,1.13.76,2.27,1.19,3.38.44,1.14.83,2.3,1.36,3.4.34.74.64,1.5,1.02,2.22.07.12.11.24.18.36.16.38.32.74.49,1.11.05.07.1.13.17.17.01.02.06.01.08,0s.04-.03.04-.05c.01-.33-.1-.64-.21-.94-.12-.36-.28-.7-.33-1.09-.02-.1-.06-.21-.1-.31-.23-.58-.47-1.16-.75-1.71-.17-.34-.33-.68-.49-1.03-.02-.04.02-.1.04-.15.04-.06.17-.06.21,0,.08.07.15.16.2.25.24.51.48,1.03.72,1.55.03.05.06.09.1.12.02.02.05.03.07.03.06,0,.09-.04.08-.11-.12-.58-.21-1.18-.43-1.73-.2-.51-.41-1-.64-1.5-.27-.59-.54-1.18-.81-1.78-.02-.02-.02-.05-.01-.08.02-.04.05-.08.09-.11.03-.01.05-.01.07,0,.18.1.24.29.32.46.27.57.51,1.14.77,1.71.08.17.18.33.27.49.01.01.05.01.07,0s.05-.04.05-.05c.02-.46-.04-.92-.17-1.36,0-.03-.02-.05-.03-.08-.29-.61-.48-1.27-.76-1.89-.26-.59-.59-1.16-.91-1.72-.28-.49-.63-.95-.9-1.45-.1-.16-.21-.32-.33-.46-.15-.2-.3-.39-.44-.59-.49-.76-1.13-1.39-1.73-2.04-.17-.18-.34-.35-.52-.52-.41-.39-.84-.77-1.24-1.17-.62-.6-1.2-1.24-1.9-1.77-.05-.03-.09-.07-.13-.1-.51-.56-1.09-1.05-1.57-1.65-.02-.02-.04-.04-.06-.05-.03-.01-.06-.03-.08-.02-.04.03-.1.07-.09.1.05.57.1,1.13.17,1.7.06.48.15.96.14,1.45,0,.11.01.22.03.33.14.99.23,1.99.43,2.98.31,1.54.47,3.11.89,4.64.18,1.07.41,2.13.64,3.19.16.71.31,1.43.53,2.13.24.8.53,1.59.81,2.39.15.43.31.86.49,1.29.29.67.6,1.33.85,2.02.18.49.45.93.68,1.39.43.88.88,1.74,1.44,2.55.51.73.97,1.51,1.56,2.18.68.78,1.34,1.56,1.98,2.36.11.13.22.24.34.35.58.57,1.11,1.18,1.6,1.83.39.52.79,1.03,1.2,1.54.07.1.16.15.28.15.04-.11-.03-.21-.08-.3-.23-.4-.45-.8-.73-1.17-.41-.54-.78-1.11-1.17-1.66-.53-.73-.94-1.52-1.4-2.29-.09-.17-.18-.34-.25-.51-.03-.08-.05-.16-.05-.23,0-.03,0-.05.02-.08.05,0,.12,0,.14.04.15.26.29.52.43.78.19.36.38.72.63,1.04.51.67,1.02,1.34,1.51,2.02.32.44.66.86.91,1.35.12.24.26.48.41.7.06.09.16.14.25.2.03.01.05.01.08,0,.02-.02.03-.05.03-.07-.06-.35-.24-.66-.39-.98-.06-.12-.1-.25-.04-.39h-.03ZM31.07,54.23c-.06.09-.12.17-.17.26-.02.02,0,.05-.01.08.04-.02.09-.03.13-.06.07-.08.1-.18.03-.28.12-.18.27-.35.35-.55.14-.33.34-.62.52-.92.19-.33.35-.67.56-.99.39-.59.79-1.17,1.19-1.76.08-.1.17-.2.27-.3.02-.02.05-.01.08-.02,0,.03.02.06.02.08-.18.36-.38.71-.59,1.06-.45.7-.96,1.38-1.32,2.15-.45.66-.72,1.4-.99,2.13-.08.23-.14.47-.25.69-.32.66-.54,1.36-.78,2.05-.03.07,0,.1.09.08.37-.42.81-.83,1.17-1.31.29-.39.58-.78.88-1.17.13-.17.25-.36.41-.51.32-.3.57-.66.83-1,.24-.32.47-.67.76-.95.33-.32.61-.68.91-1.04.13-.14.26-.28.39-.41.11-.12.22-.24.32-.36.45-.61.94-1.2,1.45-1.76.46-.49.82-1.08,1.3-1.56,1.06-1.41,2.11-2.83,3.09-4.29.07-.09.13-.18.17-.28.14-.36.37-.67.58-.98.29-.43.59-.84.79-1.33.02-.02.03-.04.05-.06.06-.04.11-.04.15,0,.07.09.06-.05.05.06-.04.31-.17.57-.32.83-.13.21-.28.41-.38.63-.13.27-.27.53-.45.77-.43.63-.86,1.25-1.29,1.88-.14.2-.24.42-.38.62-.15.2-.32.37-.47.55-.05.06-.09.14-.15.2-.55.74-1.1,1.48-1.65,2.22-.15.19-.29.4-.46.57-.31.3-.57.66-.85.98-.14.16-.27.34-.42.49-.21.21-.4.44-.58.68-.21.28-.43.57-.68.81-.26.24-.49.51-.7.79-.11.16-.23.3-.36.44-.51.49-.9,1.08-1.33,1.64-.23.3-.44.62-.65.94-.02.03,0,.09,0,.14.03,0,.06,0,.08-.02.08-.08.15-.16.22-.24.26-.28.54-.53.85-.74.09-.05.16-.04.22.05.03.04.05.11.03.15-.06.12-.14.23-.23.33-.16.14-.35.25-.52.39-.38.34-.8.66-1.07,1.11-.01.02,0,.05-.02.08-.01.04,0,.05.05.03.21-.11.41-.26.59-.42.32-.3.65-.58.97-.86.81-.72,1.62-1.44,2.43-2.17.33-.29.65-.58.99-.84.43-.33.88-.63,1.34-.91.64-.37,1.23-.79,1.78-1.27.55-.48,1.14-.92,1.58-1.52.05-.06.11-.11.18-.17.35-.37.72-.73,1.06-1.12.25-.29.46-.6.7-.9.26-.31.55-.6.8-.91.36-.44.69-.91.97-1.41.33-.59.65-1.19.98-1.78.43-.76.78-1.56,1.04-2.39.13-.42.23-.84.4-1.24.12-.3.2-.61.3-.93.14-.49.29-.98.48-1.46.34-.86.69-1.71.9-2.61.03-.13.09-.26.14-.38.08-.23.18-.46.22-.7.19-1.02.53-1.99.84-2.96.18-.57.31-1.16.39-1.75.01-.14.01-.27-.01-.4-.01-.14-.14-.24-.27-.26-.31-.05-.59,0-.85.18-.32.21-.63.43-.95.63-.85.55-1.57,1.25-2.24,1.99-.39.42-.79.83-1.2,1.21-.65.62-1.27,1.27-1.87,1.93-.66.72-1.34,1.41-2.07,2.06-.51.45-.97.94-1.46,1.41-.29.43-.68.78-1.04,1.14-.44.45-.84.93-1.19,1.44-.11.16-.23.3-.34.46-.35.48-.69.97-1.04,1.45-.12.18-.23.37-.31.57-.21.47-.44.93-.7,1.38-.37.6-.77,1.19-1.11,1.8-.43.76-.82,1.53-1.11,2.34-.25.69-.47,1.39-.72,2.07-.28.79-.55,1.59-.88,2.36-.24.55-.41,1.12-.63,1.67-.02.04.02.1.03.16ZM26.05,44.43c.09.07.13.17.1.29-.09.63-.04,1.24.07,1.86.1.53.18,1.07.28,1.6.01.04.06.07.09.1.04-.04.1-.07.1-.11.05-.67.1-1.35.13-2.03.02-.52.02-1.03.01-1.55-.01-.84,0-1.68-.13-2.52-.04-.32-.07-.65-.1-.97-.07-.67-.11-1.35-.12-2.03,0-.16-.03-.32-.05-.48-.11-.86-.27-1.71-.31-2.58-.01-.27-.06-.54-.15-.8-.17-.52-.25-1.05-.33-1.59-.19-1.23-.38-2.47-.68-3.68-.05-.18-.08-.37-.11-.56-.3-1.63-.59-3.26-.9-4.88-.32-1.66-.55-3.32-.69-4.99,0-.08.01-.16.05-.23.02-.04.09-.06.14-.07.01,0,.05.03.06.05.12.33.15.69.2,1.04.1.8.18,1.61.35,2.41.14.64.23,1.28.34,1.92.16.91.31,1.82.47,2.73.07.43.16.85.24,1.28.03.16.1.31.13.47.23,1.33.46,2.67.69,4.01.08.43.11.86.24,1.28.24.79.33,1.59.41,2.41.05.46.09.92.16,1.37.06.38.08.76.1,1.13.05.84.08,1.68.22,2.51.08.46.11.92.11,1.38-.01.65,0,1.3.03,1.95.04.86-.03,1.73-.1,2.6-.06.68-.04,1.35-.04,2.03,0,.03.02.05.04.07.05-.02.11-.03.13-.06.07-.11.12-.24.17-.36.14-.41.28-.82.41-1.23.13-.39.28-.77.4-1.16.15-.52.29-1.04.42-1.57.22-.9.48-1.78.52-2.71,0-.06.02-.11.03-.16.07-.84.24-1.67.18-2.52,0-.03,0-.05.02-.08,0-.08.05-.1.12-.07.03,0,.05.02.06.05.11.26.12.53.1.8-.04.65-.09,1.3-.16,1.94-.13,1.11-.33,2.2-.61,3.28-.17.66-.32,1.32-.57,1.95-.28.71-.48,1.44-.69,2.17-.04.15-.08.3-.04.46.03-.02.06-.02.07-.04.27-.56.53-1.13.79-1.69.32-.69.64-1.38.95-2.07.34-.76.7-1.53,1.04-2.29.14-.3.25-.6.35-.91.19-.59.35-1.2.54-1.79.18-.55.31-1.1.41-1.66.05-.29.09-.59.16-.88.13-.61.17-1.23.23-1.85.03-.38.02-.76-.05-1.14-.04-.27-.08-.54-.1-.81-.04-.48-.12-.97-.25-1.44-.19-.71-.37-1.42-.56-2.13-.13-.44-.27-.88-.44-1.31-.14-.35-.27-.71-.39-1.07-.19-.59-.39-1.18-.56-1.78-.29-.99-.63-1.96-.94-2.95-.09-.28-.17-.57-.27-.85-.38-1.05-.71-2.11-1.04-3.17-.08-.26-.18-.51-.24-.78-.2-.79-.42-1.57-.72-2.32-.08-.2-.15-.41-.21-.61-.11-.36-.22-.73-.34-1.09-.17-.52-.37-1.02-.54-1.54-.28-.85-.51-1.71-.78-2.57-.3-.93-.54-1.88-1.01-2.74-.03-.05-.04-.1-.06-.15-.48-1.07-1.08-2.07-1.74-3.03-.09-.14-.19-.27-.3-.39-.51-.56-1.02-1.13-1.54-1.68-.31-.34-.68-.61-1.11-.8-.09-.04-.24.07-.23.17.01.14.03.27.06.4.08.26.18.52.26.77.19.57.38,1.14.55,1.7.06.15.09.31.1.47,0,.28.07.54.11.8.1.59.19,1.18.33,1.76.03.16.05.32.06.48.06.7.09,1.41.17,2.1.06.62.09,1.24.08,1.87,0,1.84-.11,3.69-.07,5.53.01.71.03,1.41.1,2.11.07.76.15,1.52.27,2.27.17,1.02.31,2.04.47,3.06.06.4.11.8.17,1.21.04.3.04.59.09.89.16.85.34,1.7.52,2.55.03.13.08.26.12.39.25.86.51,1.72.74,2.58.3,1.1.55,2.21.94,3.28.03.07.05.16.07.23.15.55.27,1.11.44,1.65.2.65.41,1.29.56,1.95.25,1.11.59,2.2.85,3.31.01.02.02.05.04.07.03.06.08.08.14.03.08-.07.14-.16.21-.24h-.02ZM3.35,2.38c.05-.03.1-.05.14-.09.13-.15.28-.15.44-.06.18.11.36.23.54.36.44.35.87.72,1.29,1.1.46.42.86.89,1.27,1.36.08.08.14.17.18.27.12.32.38.53.56.79.02.03.09.03.14.05.01-.03.02-.05.02-.08-.06-.3-.15-.59-.34-.81-.36-.41-.63-.89-1.05-1.24-.04-.04-.06-.08-.07-.14,0-.05.02-.09.04-.14,0-.01.06,0,.08,0,.19.07.31.21.43.36.14.17.27.34.46.45.05.01.09.01.14,0,.01-.03.02-.05,0-.07-.22-.43-.43-.88-.68-1.29-.23-.37-.48-.72-.76-1.05-.44-.54-.97-.93-1.71-.98-.46-.04-.91-.11-1.36-.23-.55-.15-1.11-.21-1.68-.32-.16-.03-.32-.04-.48-.03-.04,0-.09.05-.13.09-.01.03-.01.05,0,.07.22.39.51.69.95.83.13.04.24.11.36.18.19.1.39.2.58.29.22.1.41.27.64.34ZM27.35,51.2c.04-.05.03-.08-.02-.06-.01,0-.02.04-.02.05h.04Z"/>
      </g>
      <path class="cls-3" d="M27.15,26.86c.05.06.09.13.13.19.32.75.64,1.49.89,2.27.01.03.02.05.03.08.09.59.3,1.15.49,1.71.02.08.04.16.06.24.33,1.73.63,3.46.85,5.2.02.16.03.32.03.49.01.35.01.7.07,1.05.02.11.01.22,0,.32,0,.09-.05.15-.14.18-.1.02-.16-.02-.19-.11-.03-.07-.05-.15-.06-.23-.04-.27-.07-.54-.08-.81,0-.41-.04-.81-.11-1.21-.02-.08-.03-.16-.03-.24.02-.54-.13-1.07-.18-1.6,0-.06-.01-.11-.02-.16-.1-.51-.27-.99-.31-1.51-.05-.52-.21-1.01-.31-1.51-.05-.27-.15-.52-.22-.78-.24-.83-.45-1.67-.74-2.49-.11-.33-.23-.67-.34-.99,0-.03.01-.05.03-.06.05,0,.11-.01.16-.01Z"/>
      <path class="cls-3" d="M21.03,6.74s.06.03.07.05c.03.07.06.15.09.23.2.61.4,1.23.59,1.85.06.21.11.42.15.63.08.4.18.79.3,1.18.15.52.26,1.05.32,1.58.08.62.17,1.23.22,1.85,0,.08-.02.16-.05.23,0,.02-.04.03-.06.03-.03,0-.05-.01-.07-.03-.03-.01-.04-.03-.06-.06-.04-.1-.07-.2-.09-.31-.05-.79-.26-1.55-.37-2.32-.02-.13-.05-.27-.08-.4-.35-1.39-.61-2.81-1.1-4.16-.04-.1-.07-.21,0-.31.02-.04.08-.04.13-.06Z"/>
      <path class="cls-3" d="M23.22,17.9s-.04.02-.07.03c-.03,0-.05-.01-.06-.03-.03-.02-.04-.04-.05-.06-.18-.52-.27-1.04-.29-1.58,0-.04.05-.09.09-.12.06-.04.18.02.19.1.08.51.26.99.25,1.51-.01.05-.03.1-.06.15Z"/>
      <path class="cls-3" d="M26.07,44.43s-.05-.09-.05-.14c0-.05.06-.07.09-.1.02.01.04.02.04.04,0,.03,0,.05-.01.08-.03.04-.06.08-.09.13h.02Z"/>
      <path class="cls-3" d="M48.56,31.41c.1-.22.19-.44.3-.66.02-.03.09-.05.14-.06.06,0,.16.11.15.17-.01.05-.02.1-.04.15-.37.63-.66,1.3-1.11,1.88-.03.04-.06.09-.08.14-.2.54-.54,1-.84,1.47-.07.11-.14.23-.19.36-.15.35-.38.65-.6.96-.04.06-.1.06-.13.01s-.04-.09-.04-.15c.01-.06.03-.1.06-.15.33-.58.67-1.17,1.01-1.75.05-.07.08-.14.11-.21.1-.35.32-.63.52-.92.27-.4.54-.8.76-1.24Z"/>
      <path class="cls-3" d="M44.71,38.06c.07-.07.13-.14.19-.19.02-.02.04-.02.07-.02.06.03.09.07.07.13-.3.63-.61,1.25-.92,1.88-.01.03-.03.05-.06.06-.05.02-.1.02-.15.01-.05-.02-.08-.06-.09-.11-.02-.05-.02-.1,0-.16.3-.54.6-1.08.89-1.6Z"/>
      <path class="cls-3" d="M23.2,39.76c-.23-.24-.41-.51-.35-.87h-.03c.17.17.27.38.35.58.05.1.05.19,0,.29h.03Z"/>
      <path class="cls-3" d="M23.59,40.63c-.19-.14-.3-.31-.2-.55h-.03c.17.16.26.33.2.56h.03Z"/>
      <path class="cls-3" d="M22.65,38.56c-.09-.08-.16-.19-.19-.32,0-.03-.01-.07,0-.07.06-.04.1-.03.13.04.06.11.11.23.04.35h.02Z"/>
      <path class="cls-3" d="M22.63,38.56c.12.08.21.18.19.33h.03c-.11-.08-.21-.18-.2-.33h-.03Z"/>
      <path class="cls-3" d="M23.18,39.76c.11.08.22.16.19.32h.03c-.13-.08-.22-.17-.19-.33h-.03Z"/>
    </g>
  </g>
</svg>