<?xml version="1.0" encoding="UTF-8"?>
<svg id="Layer_2" data-name="Layer 2" xmlns="http://www.w3.org/2000/svg" xmlns:xlink="http://www.w3.org/1999/xlink" viewBox="0 0 193 129.06">
  <defs>
    <style>
      .cls-1 {
        clip-path: url(#clippath);
      }

      .cls-2 {
        fill: none;
      }

      .cls-2, .cls-3 {
        stroke-width: 0px;
      }

      .cls-4 {
        clip-path: url(#clippath-1);
      }

      .cls-5 {
        clip-path: url(#clippath-2);
      }

      .cls-3 {
        fill: #609d9f;
        fill-rule: evenodd;
      }
    </style>
    <clipPath id="clippath">
      <rect class="cls-2" x="147.69" width="45.21" height="39.78"/>
    </clipPath>
    <clipPath id="clippath-1">
      <rect class="cls-2" x="17.38" y="91.34" width="145.91" height="37.49"/>
    </clipPath>
    <clipPath id="clippath-2">
      <rect class="cls-2" y="63.34" width="29.95" height="24"/>
    </clipPath>
  </defs>
  <g id="Layer_1-2" data-name="Layer 1">
    <g>
      <path class="cls-3" d="M135.39,108.46c-.84,0-1.63-.53-1.91-1.37-.35-1.05.21-2.18,1.24-2.54.03-.02.09-.05.14-.08.19-.11.46-.28.83-.41,9.67-3.86,17.88-10.95,23.08-19.97.28-.48.52-.88.73-1.24.14-.24.29-.47.41-.7-.24-.14-.52-.29-.78-.44-.34-.19-.72-.4-1.15-.64l-3.27-1.89-27.63-15.95c-.97-.55-1.3-1.78-.74-2.75s1.79-1.3,2.75-.74l27.64,15.95,3.27,1.89c.4.24.78.44,1.09.61,1.62.91,2.69,1.51,3.04,2.82.35,1.3-.26,2.33-1.19,3.89-.22.35-.44.74-.71,1.2-5.66,9.82-14.58,17.53-25.12,21.71-.03.02-.05.03-.07.03-.03.01-.09.05-.14.08-.2.13-.51.3-.91.44-.17.08-.39.11-.6.11ZM112.15,96.91c-1.01,0-1.89-.77-2-1.79-.05-.47-.14-.96-.21-1.48-.1-.64-.21-1.3-.29-2.01-.89-6.32-.54-12.81,1.04-19.31.27-1.08,1.36-1.73,2.43-1.47,1.08.27,1.73,1.35,1.47,2.43-1.47,6.02-1.8,12.01-.97,17.82,0,.02.02.05.02.09.06.61.16,1.21.25,1.81.09.54.17,1.1.24,1.68.13,1.1-.68,2.1-1.77,2.22h-.2"/>
      <path class="cls-3" d="M145.94,73.79c-.34,0-.69-.09-1.01-.28-.96-.55-1.29-1.78-.72-2.75l21.35-36.93c.55-.96,1.78-1.29,2.75-.72.96.55,1.29,1.78.72,2.75l-21.35,36.93c-.38.64-1.06,1.01-1.74,1.01ZM136.52,68.39c.69,0,1.37-.36,1.74-1.01l21.35-36.93c.56-.97.23-2.2-.73-2.75-.97-.57-2.2-.24-2.75.72l-21.35,36.93c-.56.97-.24,2.2.73,2.75.31.19.67.28,1.01.28"/>
      <path class="cls-3" d="M138.31,85.08c-1.6,0-3.21-.43-4.66-1.24l-1.37-.74s-.03-.01-.04-.02c-2.16-1.23-3.69-3.24-4.33-5.66s-.3-4.9.95-7.02l3.63-6.4c.55-.96,1.77-1.3,2.74-.75.96.55,1.3,1.77.75,2.74l-3.64,6.4s-.01.03-.01.03c-.7,1.19-.9,2.6-.53,3.97.36,1.36,1.22,2.49,2.42,3.18l1.36.74s.03.02.04.03c2.58,1.47,5.73.64,7.19-1.89,0,0,0-.01.01-.01l3.65-6.28c.55-.95,1.78-1.28,2.75-.73.95.55,1.28,1.78.73,2.75l-3.65,6.28c-1.24,2.16-3.24,3.71-5.63,4.33-.78.19-1.57.29-2.36.29"/>
      <g class="cls-1">
        <path class="cls-3" d="M175.43,39.63c-2.53,0-5.05-.64-7.24-1.88-.02,0-.02-.02-.03-.02l-13.17-7.65c-3.23-1.76-5.61-4.81-6.72-8.6-.02-.03-.02-.05-.03-.08-.95-3.82-.43-7.65,1.47-10.8l4.63-8.13c.63-1.15,1.72-1.99,3.02-2.31,1.29-.34,2.67-.13,3.79.56l29.34,16.93c2.32,1.28,3.2,4.36,1.91,6.73-.01.01-.01.03-.03.04l-4.65,8.04c-1.89,3.24-4.97,5.61-8.72,6.71-.03.01-.05.01-.07.02-1.13.28-2.32.43-3.51.43ZM170.18,34.24c2.34,1.32,5.16,1.69,7.78,1.05,1.93-.56,4.58-1.87,6.33-4.84l4.63-8.01c.22-.43.05-1.07-.34-1.28-.02-.01-.03-.01-.04-.03l-29.4-16.95s-.05-.03-.07-.05c-.27-.16-.53-.13-.67-.09-.23.06-.42.19-.51.36,0,.01-.01.03-.01.04l-4.65,8.17s-.02.04-.02.05c-1.34,2.21-1.72,4.96-1.03,7.72.58,1.94,1.87,4.58,4.8,6.17.02.01.04.03.05.03l13.15,7.66ZM175.33,33.73c.74,0,1.48-.11,2.19-.35,2.15-.53,3.94-1.87,5.07-3.81l3.27-5.53c.28-.46.35-1.02.21-1.53-.14-.52-.48-.97-.94-1.23l-24.37-14.07c-.95-.55-2.17-.23-2.74.71l-3.26,5.54c-1.08,1.85-1.39,4.11-.86,6.37.02.06.03.13.05.19.72,2.17,2.11,3.96,3.91,5,.01,0,.01.02.03.02l13.3,7.53c1.31.77,2.73,1.16,4.15,1.16ZM159.88,21.55l13.3,7.53s.02.01.03.01c1.03.6,2.2.77,3.13.45.06-.03.13-.04.19-.05,1.11-.26,2.02-.93,2.61-1.95l2.24-3.79-20.89-12.06-2.24,3.82c-.54.92-.69,2.1-.42,3.33.39,1.2,1.14,2.19,2.06,2.71"/>
      </g>
      <path class="cls-3" d="M150.46,86.48c-.33,0-.69-.09-1-.28-.96-.57-1.28-1.79-.73-2.75l4.4-7.54c.56-.95,1.8-1.28,2.75-.73.95.57,1.28,1.78.73,2.75l-4.4,7.54c-.39.66-1.06,1.01-1.75,1.01"/>
      <g class="cls-4">
        <path class="cls-3" d="M160.89,129.06H19.7c-1.1,0-2.01-.91-2.01-2.01,0-4.37,1.67-8.47,4.71-11.54,3.05-3.09,7.14-4.79,11.49-4.79,1.61,0,3.13.21,4.53.63,1.23-2.14,2.95-3.97,5.05-5.38,2.73-1.82,5.88-2.79,9.13-2.79,1.45,0,2.78.16,4.04.51.71-3.06,2.31-5.85,4.62-8.03,2.95-2.78,6.85-4.29,10.94-4.29,4.66,0,9.05,1.99,12.07,5.42,1.89-.93,3.95-1.41,6.02-1.41,3.43,0,6.7,1.28,9.23,3.55,2.52-3.71,6.81-6.06,11.49-6.06,6.23,0,11.56,4.09,13.21,9.86,1.24-.29,2.49-.44,3.74-.44,6.18,0,11.81,3.53,14.56,8.95,1.38-.36,2.77-.54,4.16-.54,8.93,0,16.2,7.32,16.2,16.33,0,1.1-.9,2.01-2.01,2.01ZM21.88,125.04h136.84c-.95-5.84-5.98-10.3-12.02-10.3-1.52,0-3.05.29-4.56.87-.51.19-1.07.18-1.56-.05-.49-.22-.87-.64-1.06-1.14-1.76-4.85-6.41-8.1-11.56-8.1-1.52,0-3.05.29-4.56.87-.58.22-1.23.16-1.77-.17-.53-.32-.88-.88-.96-1.51-.53-4.92-4.68-8.63-9.68-8.63-4.11,0-7.79,2.5-9.17,6.23-.26.7-.88,1.19-1.61,1.29-.74.1-1.47-.22-1.9-.83-1.85-2.61-4.86-4.17-8.03-4.17-1.9,0-3.78.58-5.41,1.67-.92.6-2.15.38-2.77-.53-2.22-3.23-5.93-5.16-9.9-5.16-6.37,0-11.51,4.81-11.93,11.19-.05.67-.43,1.27-1.01,1.61-.58.34-1.3.35-1.9.05-1.41-.7-2.96-1.04-4.75-1.04-4.89,0-9.45,2.99-11.34,7.45-.21.51-.61.89-1.13,1.09-.51.2-1.07.18-1.57-.05-1.36-.63-2.94-.94-4.69-.94-6.04,0-11.07,4.46-12.02,10.3"/>
      </g>
      <path class="cls-3" d="M36.79,70.9c-.11,0-.23-.01-.34-.02-6.51-1.13-10.63-3.96-12.22-8.39-1.73-4.8-.35-11.19,4.1-18.97,3.19-5.56,6.79-9.79,6.94-9.96.38-.45.94-.7,1.53-.7s1.15.27,1.53.7c.15.18,3.73,4.41,6.91,9.98,4.43,7.79,5.8,14.18,4.07,18.97-1.59,4.44-5.69,7.25-12.16,8.38-.14,0-.26.01-.36.01ZM36.79,38.08c-1.31,1.71-3.24,4.4-5,7.47-3.77,6.59-5.08,11.98-3.78,15.56,1.06,2.92,4.01,4.84,8.78,5.73,4.74-.89,7.67-2.81,8.73-5.71,1.29-3.58,0-8.97-3.76-15.58-1.76-3.08-3.68-5.77-4.97-7.47"/>
      <g class="cls-5">
        <path class="cls-3" d="M18.01,86.66c-.54,0-1.09-.05-1.65-.15-4.18-.76-8.19-4.37-11.92-10.75-2.64-4.53-4.16-8.78-4.22-8.97-.2-.55-.14-1.17.15-1.68.3-.51.8-.86,1.38-.96.19-.04,4.64-.83,9.86-.79,7.38.05,12.51,1.73,15.25,4.98,2.55,3.03,2.89,7.17,1,12.3-.07.21-.2.42-.34.59-3.01,3.63-6.2,5.44-9.52,5.44ZM4.92,67.75c2.22,5.22,6.92,13.87,12.17,14.81,2.3.41,4.7-.81,7.14-3.63,1.23-3.52,1.08-6.19-.42-7.99-3.44-4.08-13.26-3.85-18.89-3.19Z"/>
      </g>
      <path class="cls-3" d="M52.84,93.31c-3.36,0-6.62-1.86-9.68-5.55-.15-.18-.27-.38-.34-.59-1.91-5.21-1.57-9.41,1.02-12.48,2.79-3.31,8.01-5.02,15.54-5.06,5.34-.04,9.88.78,10.06.81.58.1,1.08.46,1.38.97.29.52.35,1.12.15,1.68-.06.19-1.62,4.54-4.32,9.15-3.8,6.51-7.89,10.19-12.15,10.94-.55.09-1.1.14-1.66.14ZM46.47,85.46c2.5,2.9,4.96,4.17,7.32,3.74,2.99-.53,6.23-3.63,9.36-8.95,1.35-2.31,2.41-4.6,3.11-6.2-1.74-.2-4.24-.43-6.92-.41-6.17.05-10.46,1.31-12.42,3.65-1.56,1.83-1.71,4.58-.45,8.18"/>
      <path class="cls-3" d="M36.79,114.34c-1.1,0-2.01-.9-2.01-2.01v-60.52c0-1.1.91-2.01,2.01-2.01s2.01.91,2.01,2.01v60.52c0,1.11-.9,2.01-2.01,2.01"/>
      <path class="cls-3" d="M36.79,93.77c-1.1,0-2.01-.91-2.01-2.01,0-1.31.92-2.47,3.41-4.31,1.42-1.06,3.39-2.35,5.85-3.84,4.15-2.52,8.34-4.78,8.38-4.8.98-.53,2.2-.17,2.72.81.53.98.17,2.2-.81,2.73-.04.03-3.68,1.98-7.47,4.26-6.32,3.78-7.79,5.27-8.1,5.64-.23.88-1.02,1.52-1.96,1.52Z"/>
      <path class="cls-3" d="M36.79,89.12c-.59,0-1.18-.27-1.58-.77-4.32-5.48-18.79-12.95-18.93-13.03-.99-.5-1.38-1.72-.86-2.7.5-.99,1.72-1.38,2.7-.86.63.32,15.4,7.94,20.26,14.1.69.86.54,2.14-.33,2.82-.36.29-.81.43-1.24.43"/>
      <path class="cls-3" d="M95.19,48.55c-.11,0-.22-.02-.34-.03-7.5-1.29-12.23-4.54-14.07-9.62-2.01-5.55-.4-12.96,4.79-22.05,3.71-6.53,7.93-11.48,8.1-11.69.38-.45.94-.7,1.53-.7s1.15.26,1.54.7c.18.21,4.38,5.16,8.1,11.69,5.18,9.08,6.78,16.49,4.79,22.05-1.83,5.08-6.57,8.33-14.07,9.62-.14.01-.25.03-.36.03ZM95.19,9.68c-1.53,1.98-3.97,5.34-6.17,9.21-4.48,7.88-6.02,14.32-4.46,18.64,1.28,3.55,4.86,5.9,10.63,6.96,5.77-1.07,9.34-3.41,10.63-6.96,1.56-4.32.03-10.77-4.46-18.64-2.2-3.87-4.64-7.22-6.17-9.21"/>
      <path class="cls-3" d="M73.15,67.05c-.6,0-1.22-.05-1.83-.16-4.81-.85-9.43-5.04-13.77-12.46-3.09-5.29-4.87-10.28-4.95-10.49-.2-.55-.14-1.17.15-1.68.29-.52.8-.87,1.38-.97.21-.04,5.42-.97,11.52-.93,8.55.06,14.49,1.98,17.64,5.72,2.9,3.45,3.28,8.19,1.1,14.08-.08.21-.19.42-.34.59-3.45,4.19-7.13,6.3-10.91,6.3ZM57.3,44.89c.79,1.89,2.07,4.71,3.76,7.56,3.64,6.23,7.44,9.85,10.96,10.47,2.84.51,5.77-1.01,8.72-4.47,1.51-4.29,1.33-7.58-.53-9.79-2.31-2.75-7.34-4.23-14.52-4.3-3.3-.03-6.37.27-8.39.52Z"/>
      <path class="cls-3" d="M114.17,74.9c-3.84,0-7.57-2.12-11.09-6.34-.15-.17-.27-.38-.34-.59-2.22-6-1.85-10.83,1.09-14.35,3.2-3.82,9.26-5.78,18-5.85,6.24-.05,11.57.91,11.79.94.57.1,1.08.46,1.38.96.3.52.35,1.14.15,1.68-.08.22-1.9,5.29-5.05,10.68-4.41,7.55-9.13,11.82-14.04,12.68-.63.13-1.26.19-1.89.19ZM106.39,66.23c3.03,3.53,6.04,5.05,8.97,4.53,3.63-.65,7.51-4.36,11.24-10.71,1.72-2.94,3.04-5.83,3.86-7.75-2.07-.25-5.24-.55-8.66-.53-7.39.06-12.54,1.59-14.9,4.42-1.91,2.27-2.09,5.65-.52,10.04"/>
      <path class="cls-3" d="M95.19,100.55c-1.1,0-2.01-.9-2.01-2.01V26.44c0-1.1.91-2.01,2.01-2.01s2.01.91,2.01,2.01v72.1c0,1.11-.91,2.01-2.01,2.01"/>
      <path class="cls-3" d="M95.19,75.55c-1.1,0-2.01-.91-2.01-2.01,0-1.43,1.08-2.8,3.84-4.89,1.67-1.26,3.98-2.78,6.86-4.51,4.86-2.93,9.79-5.54,9.84-5.56.98-.52,2.19-.15,2.71.84.52.98.15,2.2-.84,2.71-.04.03-4.4,2.34-8.91,5.01-7.7,4.59-9.24,6.34-9.52,6.75-.17.94-.98,1.66-1.97,1.66"/>
      <path class="cls-3" d="M95.19,69.9c-.59,0-1.18-.27-1.57-.76-5.08-6.37-22.3-15.32-22.46-15.43-.98-.52-1.37-1.72-.87-2.71.52-.98,1.72-1.36,2.71-.86.74.38,18.15,9.45,23.77,16.48.69.87.55,2.14-.32,2.83-.39.31-.82.45-1.27.45"/>
    </g>
  </g>
</svg>