<?xml version="1.0" encoding="UTF-8"?>
<svg id="Layer_2" data-name="Layer 2" xmlns="http://www.w3.org/2000/svg" xmlns:xlink="http://www.w3.org/1999/xlink" viewBox="0 0 104.19 105.95">
  <defs>
    <style>
      .cls-1 {
        clip-path: url(#clippath);
      }

      .cls-2 {
        fill: none;
      }

      .cls-2, .cls-3 {
        stroke-width: 0px;
      }

      .cls-4 {
        clip-path: url(#clippath-1);
      }

      .cls-5 {
        clip-path: url(#clippath-4);
      }

      .cls-6 {
        clip-path: url(#clippath-3);
      }

      .cls-7 {
        clip-path: url(#clippath-2);
      }

      .cls-3 {
        fill: #225b55;
      }
    </style>
    <clipPath id="clippath">
      <rect class="cls-2" x="7.35" y="10.42" width="89.33" height="95.53"/>
    </clipPath>
    <clipPath id="clippath-1">
      <rect class="cls-2" x="96.69" y="45.08" width="7.27" height="8"/>
    </clipPath>
    <clipPath id="clippath-2">
      <rect class="cls-2" y="45.08" width="7.35" height="8"/>
    </clipPath>
    <clipPath id="clippath-3">
      <rect class="cls-2" x="52.69" width="4" height="7.75"/>
    </clipPath>
    <clipPath id="clippath-4">
      <rect class="cls-2" x="44.69" width="4" height="7.75"/>
    </clipPath>
  </defs>
  <g id="Layer_1-2" data-name="Layer 1">
    <g>
      <g class="cls-1">
        <path class="cls-3" d="M96.15,51.53c-.58,1.85-1.88,3.1-3.51,4.02-3.39,1.89-7.07,2.2-10.86,1.91-4.44-.35-8.8,0-12.96,1.79-2.19.94-4.42,2.74-5.41,4.51.93-.16,1.79-.3,2.64-.45,2.09-.38,4.02.18,5.85,1.11,1.23.62,2.45,1.29,3.64,1.99,3.44,2.05,7.05,2.73,11,1.68,2.21-.59,4.57-.51,6.81-1.13-.6.7-1.38,1.15-2.2,1.32-2.8.56-5.59,1.17-8.47,1.27-3.34.1-6.43-.73-9.42-2.08-.67-.31-1.35-.6-2.04-.86-4.43-1.68-9.87.12-12.45,4.11-2.01,3.11-2.66,6.48-2.02,10.14.76,4.37,1.44,8.76,1.68,13.19.03.55.28.98.58,1.41,1.39,1.96,3.25,3.36,5.38,4.44,3.04,1.54,6.34,2.22,9.66,2.86.84.16,1.69.31,2.52.51-5.68.18-11.23-.34-16.42-2.93-.82-.41-1.66-.61-2.61-.38-.74.19-.73.44-.28.93,1.41,1.53,3.07,2.74,4.86,3.78.35.21.72.41,1.13.65-.35.23-.63.09-.91.02-2.9-.72-5.55-1.96-7.56-4.21-1.71-1.92-4.03-1.57-5.55.02-2.33,2.43-5.32,3.71-8.61,4.37,2.37-1.47,4.74-2.93,6.6-5.18-.72-.45-1.44-.62-2.2-.38-.64.2-1.29.42-1.89.72-4.95,2.42-10.27,2.66-15.63,2.61,2.85-.53,5.7-1.02,8.46-1.9,1.85-.59,3.62-1.34,5.27-2.37,2.75-1.72,4.64-3.91,4.65-7.44.01-3.42.84-6.76,1.47-10.1.85-4.55.06-8.68-2.99-12.18-2.8-3.2-7.96-4.15-11.83-2.41-2.17.97-4.31,2.04-6.69,2.41-3.41.53-6.8.29-10.16-.45-1.74-.39-3.56-.52-5.05-1.86.41-.15.73.01,1.03.09,2.9.74,5.9.94,8.84,1.46,2.78.48,5.32-.47,7.73-1.79,1.46-.81,2.91-1.66,4.39-2.42,2.33-1.19,4.76-1.5,7.29-.71.35.11.71.29,1.18.2-1.61-2.65-4.01-4.15-6.81-5.13-3.75-1.3-7.61-1.49-11.52-1.21-3.84.29-7.57-.04-11.05-1.89-1.76-.93-3.14-2.19-3.76-4.16.46.43.91.86,1.38,1.27,2.35,2.04,5.16,2.77,8.2,2.9,2.26.09,4.48-.27,6.71-.54,4.47-.53,8.93-.41,13.31.74.73.19.93.08.73-.67-2.07-8.02-6.81-13.48-14.97-15.68-2.06-.56-4.21-.45-6.32-.69-2.31-.26-4.56-.77-6.51-2.14-.39-.28-.82-.53-1.04-1.06.56.07.98.36,1.43.59,2.15,1.11,4.44,1.66,6.86,1.69,2.7.03,5.41.07,8.04.78,3.38.91,6.23,2.71,8.75,5.09,3.04,2.88,5.19,6.37,6.91,10.15,1.7,3.74,3.64,7.32,6.67,10.18.19.18.36.37.55.54.04.04.11.03.25.07.24-1.64-.05-3.26-.17-4.86-.36-4.73-1.35-9.32-3.15-13.75-2.03-5-5.4-8.84-9.73-11.95-3.99-2.87-8.44-4.88-12.78-7.11-.65-.33-1.26-.74-1.85-1.22.91-.14,1.72.22,2.54.44.87.23,1.72.49,2.58.77s1.71.58,2.55.89c.84.31,1.66.64,2.66,1.03-1.35-4.01-2.23-7.89-.74-11.88.26,1.54.18,3.1.51,4.64.98,4.58,3.21,8.48,6.89,11.29,5.03,3.83,8.97,8.45,11.73,14.11.04.08.11.15.3.39.08-1.52.2-2.88.21-4.23.05-4.72-.68-9.29-2.8-13.56-1.26-2.54-2.46-5.09-3.02-7.9-.61-3.04-1.69-5.92-2.99-8.73-.27-.57-.54-1.13-.85-1.8.66.14.94.54,1.26.88,2.08,2.18,3.26,4.86,3.97,7.72.73,2.95,2.23,5.46,4.08,7.79.7.88,1.45,1.73,2.11,2.64.38.53.53.4.88-.04,2.73-3.41,4.79-7.1,5.56-11.48.41-2.3,1.48-4.37,3.03-6.17.43-.51.89-.98,1.54-1.42-.1.7-.44,1.17-.68,1.68-1.28,2.75-2.22,5.6-2.73,8.6-.43,2.53-1.35,4.86-2.64,7.09-2.3,3.97-3.46,8.28-3.43,12.89.02,1.98,0,3.97.22,6.01.21-.37.43-.74.64-1.11,2.73-5.09,6.36-9.39,10.96-12.92,4.07-3.13,6.66-7.28,7.65-12.35.26-1.34.26-2.73.38-4.14.73,1.05.88,2.19.7,5.88-.1,2.05-.83,3.94-1.58,5.96,3.45-1.11,6.67-2.54,10.35-3.17-.53.74-1.16.97-1.74,1.26-3.52,1.72-7.1,3.32-10.39,5.49-4.44,2.93-8.51,6.27-11.06,11.09-2.13,4.03-3.25,8.38-3.93,12.84-.41,2.73-.73,5.47-.58,8.44,1.47-1.43,2.78-2.82,3.85-4.41,1.3-1.92,2.31-4.01,3.27-6.11,1.85-4.08,4.19-7.83,7.55-10.85,3.64-3.28,7.88-5.13,12.81-5.33,2.28-.09,4.57.01,6.82-.52,1.64-.38,3.13-1.12,4.7-1.7-.46.69-1.14,1.11-1.85,1.48-2.37,1.21-4.94,1.59-7.56,1.7-9,.39-16.38,6.25-18.83,14.95q-.61,2.17,1.53,1.71c4.74-1.03,9.49-1.05,14.27-.23,2.74.46,5.52.41,8.24-.23,2.36-.55,4.28-1.88,5.98-3.59Z"/>
      </g>
      <path class="cls-3" d="M78.24,58.77c1.28.03,2.5.27,3.67.74.39.16.71.4.2.81-2.91,2.39-6.14,3.4-9.86,2.35-.19-.05-.36-.14-.54-.21-.49-.19-.53-.42-.16-.82,1.81-1.95,4.05-2.86,6.68-2.86Z"/>
      <path class="cls-3" d="M25.99,58.8c2.42,0,4.54.74,6.23,2.54.68.73.66.83-.31,1.18-2.97,1.08-5.75.58-8.36-1.09-.32-.21-.64-.44-.93-.69-.24-.2-.66-.35-.6-.69.06-.41.5-.55.86-.68,1-.38,2.03-.61,3.11-.58Z"/>
      <path class="cls-3" d="M40.86,23.61c1.86,1.79,2.82,3.87,3.06,6.27.13,1.27.14,2.56-.28,3.82-.23.68-.49.71-.99.3-1.96-1.65-2.78-3.82-2.7-6.31.04-1.33.23-2.68.92-4.07Z"/>
      <path class="cls-3" d="M80.84,48.42c.16,0,.32-.02.48,0,.46.08,1.13-.21,1.34.25.26.55-.35.96-.69,1.37-2.08,2.55-4.72,3.55-7.96,2.81-.98-.22-1.04-.38-.42-1.17,1.84-2.34,4.32-3.32,7.25-3.27Z"/>
      <path class="cls-3" d="M48.97,14.22c2.11,1.54,3.05,3.63,3.44,6.01.17,1.05.13,2.13,0,3.18-.1.86-.32.96-1.04.46-1.94-1.35-2.79-3.31-2.96-5.59-.1-1.35.05-2.68.56-4.06Z"/>
      <path class="cls-3" d="M23.49,48.44c2.99-.04,5.41,1.07,7.16,3.57.4.57.24.73-.35.87-3.24.78-6.78-.74-8.42-3.63-.33-.58-.2-.83.46-.82.39,0,.77,0,1.16,0Z"/>
      <path class="cls-3" d="M60.17,30.98c-.08-2.32.72-4.14,2.22-5.69.48-.49.8-.66,1.14.18,1.16,2.9.53,6.11-1.61,7.94-.9.77-1.15.7-1.47-.4-.21-.71-.3-1.44-.27-2.04Z"/>
      <path class="cls-3" d="M62.14,19.18c.34-1.7,1.32-2.98,2.64-3.99,1.46-1.13,3.21-1.56,5.03-1.71.38-.03.7-.06.49.55-1.07,3.1-4.88,5.55-8.15,5.16Z"/>
      <g class="cls-4">
        <path class="cls-3" d="M98.67,51.75c-1.28.02-1.31.01-.98-1.23.83-3.14,3.46-4.53,6.1-4.95.29-.05.43.08.4.38-.3,2.92-2.6,5.86-5.52,5.8Z"/>
      </g>
      <path class="cls-3" d="M37.67,11.7c-2.28-.01-5.02-1.88-5.85-3.91-.19-.47-.12-.65.42-.76,2.64-.55,5.91.86,7.22,3.17.49.85.43,1.02-.54,1.31-.43.13-.87.22-1.25.18Z"/>
      <path class="cls-3" d="M92.51,43.68c-1.91,2.81-5.68,3.84-8.56,2.33-.94-.49-.92-.59-.14-1.31,2.29-2.1,6.36-2.05,8.69-1.02Z"/>
      <path class="cls-3" d="M34.49,13.53c3.37.16,6.1,1.97,7.09,4.72.39,1.08.29,1.2-.88,1.03-3.15-.46-5.29-2.24-6.6-5.09-.29-.62-.23-.68.39-.65Z"/>
      <path class="cls-3" d="M81.52,17.81c.89,3.26-1.13,6.72-4.38,7.55-.53.14-.67,0-.71-.52-.23-2.89,2.19-6.26,5.09-7.03Z"/>
      <path class="cls-3" d="M17.33,46.69c-2.06-.07-3.78-.81-5.14-2.33-.24-.27-.67-.66.03-.85,2.89-.78,5.7-.93,8.19,1.18.57.48.63.84-.08,1.18-.96.45-1.95.81-3,.82Z"/>
      <g class="cls-7">
        <path class="cls-3" d="M5.68,51.89c-3.18-.12-5.42-2.91-5.64-5.78-.03-.4.08-.56.55-.49,2.92.42,5.23,2.62,5.74,5.43.14.74-.07.94-.65.84Z"/>
      </g>
      <path class="cls-3" d="M70.46,7.01c.51.03,1.31-.22,1.57.25.28.52-.29,1.12-.63,1.63-1.44,2.14-3.79,3.08-6.28,2.6-.76-.14-.86-.48-.57-1.13.94-2.05,2.68-2.93,4.79-3.27.35-.06.71-.05,1.11-.08Z"/>
      <path class="cls-3" d="M26.47,36.61c.04.54-.33.35-.63.29-1.69-.39-3.09-1.24-4.09-2.67-.8-1.15-1.32-2.41-1.45-3.82-.04-.43.02-.61.5-.5,2.7.6,5.51,3.85,5.66,6.55,0,.04,0,.07.02.15Z"/>
      <path class="cls-3" d="M80.85,32.13c-.13,2.93-2.19,5.12-4.98,5.42-.46.05-.61-.07-.63-.55-.08-2.48,2.26-5.31,4.72-5.72.82-.14,1.05.19.89.85Z"/>
      <path class="cls-3" d="M27.39,24.16c.06,1.21-.1,1.33-1.36.82-2.48-.99-3.82-3.35-3.44-6,.1-.76.4-.89,1.07-.56,2.33,1.14,3.69,2.91,3.73,5.73Z"/>
      <path class="cls-3" d="M37.58,24.42c.02.92-.24,1.77-.63,2.59-.23.51-.51.55-.96.24-1.68-1.18-2.02-2.88-1.85-4.77.07-.8.35-1.56.61-2.32.18-.54.42-.52.81-.22,1.47,1.14,2,2.69,2.03,4.47Z"/>
      <path class="cls-3" d="M98.03,37.82c.24,0,.28,0,.31,0,.7.06,1.74-.21,1.94.57.16.62-.79,1.07-1.39,1.41-2.01,1.16-4.17,1.38-6.4.85-.39-.09-.95-.19-1.02-.6-.06-.37.49-.52.8-.72,1.81-1.23,3.88-1.4,5.76-1.5Z"/>
      <path class="cls-3" d="M75.55,46.11c.71,0,1.4.11,2.07.36.56.21.71.45.19.92-.89.82-1.93,1.42-3.08,1.69-1.53.36-3.08.56-4.67.33-.65-.1-.59-.28-.25-.69,1.49-1.79,3.44-2.59,5.74-2.61Z"/>
      <path class="cls-3" d="M84.96,22.3c0-2.34.76-4.09,2.52-5.35.29-.2.59-.49.8.08.85,2.32.4,5.4-2.08,6.74-.9.48-.98.45-1.13-.54-.06-.38-.08-.76-.1-.93Z"/>
      <path class="cls-3" d="M66.71,24.65c0-1.74.65-3.18,1.97-4.32.46-.4.75-.53.98.22.64,2.14.88,4.22-.69,6.1-.35.42-.77.96-1.31.86-.51-.09-.55-.79-.73-1.26-.2-.53-.2-1.07-.22-1.61Z"/>
      <path class="cls-3" d="M88.85,28.22c.37,2.77.04,5.32-2.17,7.3-.43.39-1.01.86-1.51.63-.44-.2-.21-.93-.19-1.43.15-2.82,1.88-4.72,3.86-6.49Z"/>
      <path class="cls-3" d="M15.33,19.17c.02-.28,0-.68.1-1.04.13-.47.05-1.19.57-1.33.42-.11.83.41,1.17.73,1.72,1.68,2.14,3.71,1.61,6.01-.14.59-.44.49-.82.3-1.83-.97-2.66-2.52-2.64-4.66Z"/>
      <path class="cls-3" d="M32.26,49.48c-2.14-.06-4.11-.59-5.82-1.95-.45-.36-.6-.6.05-.92,2.35-1.18,6.39-.09,7.8,2.11.29.45.07.58-.3.63-.57.07-1.15.09-1.73.14Z"/>
      <path class="cls-3" d="M12.65,39.98c-2.45,1.58-6.86.95-8.65-1.14-.45-.52-.19-.71.31-.86,1.15-.36,2.3-.05,3.44.03,1.82.13,3.4.84,4.9,1.97Z"/>
      <path class="cls-3" d="M13.33,48.72c3.01.79,5.92,1.32,7.55,4.25.4.71.02.76-.47.77-1.96.04-3.59-.81-5.05-2.03-.89-.75-1.57-1.67-2.03-2.99Z"/>
      <path class="cls-3" d="M90.61,48.8c-.76,2.84-4.43,5.28-7.13,4.86-.48-.07-.52-.21-.3-.6.67-1.22,1.55-2.2,2.83-2.8,1.43-.67,2.93-1.09,4.6-1.45Z"/>
      <path class="cls-3" d="M7.32,58.76c-2-.02-3.63-1.1-4.81-2.96-.35-.55-.24-.81.46-.91,2.61-.34,4.81.7,6.03,2.84.39.68.24.9-.46.94-.32.02-.64.05-1.22.09Z"/>
      <path class="cls-3" d="M90.61,26.58c-1.48,0-2.66-.33-3.68-1.16-.24-.19-.51-.31-.09-.61,2.19-1.58,4.96-1.8,7.11-.3.53.37.39.58-.04.9-1.04.78-2.19,1.2-3.31,1.17Z"/>
      <path class="cls-3" d="M17.49,25.1c-2.16,1.83-5.15,1.96-7.22.41-.86-.64-.86-.74.05-1.26,1.74-.98,3.54-1.03,5.34-.18.6.29,1.17.65,1.83,1.03Z"/>
      <path class="cls-3" d="M96.36,58.74c-.53-.1-1.27.15-1.46-.32-.22-.51.29-1.06.64-1.51,1.19-1.55,3.86-2.4,5.76-1.92.67.17.35.48.2.76-1.14,1.99-2.88,2.96-5.13,2.99Z"/>
      <path class="cls-3" d="M26.17,15.56c-2.25-.04-4.58-2.16-4.81-4.4-.03-.29-.11-.62.38-.55,2.39.34,4.6,1.53,5.25,3.88.29,1.03.26,1.08-.82,1.06Z"/>
      <path class="cls-3" d="M10.52,48.86s0,.07,0,.1c-.06.52.23,1.3-.25,1.49-.56.23-1.09-.38-1.53-.79-1.66-1.59-2.05-3.55-1.67-5.73.13-.73.53-.57.95-.29,1.85,1.26,2.52,3.07,2.49,5.22Z"/>
      <path class="cls-3" d="M30.61,11.65c0,.48-.04.96-.18,1.43-.38,1.34-.64,1.43-1.68.54-1.5-1.28-1.91-4.43-.82-6.05.33-.49.59-.23.84,0,1.2,1.09,1.83,2.44,1.83,4.07Z"/>
      <path class="cls-3" d="M76.84,9.83c.03,1.84-.53,3.17-1.85,4.14-.44.32-.69.31-.97-.2-1.05-1.88-.27-5.11,1.53-6.33.39-.27.63-.24.8.2.31.78.53,1.58.5,2.19Z"/>
      <path class="cls-3" d="M93.79,48.45c-.04-1.97.74-3.55,2.33-4.71.46-.34.72-.35.9.31.56,2.14-.19,4.74-1.76,5.97-.33.26-.72.63-1.1.48-.41-.15-.34-.69-.36-1.09-.03-.32,0-.65,0-.96Z"/>
      <path class="cls-3" d="M77.85,15.55c-.7.13-.81-.29-.65-.91.59-2.26,2.3-3.28,4.37-3.84.33-.09.78-.42,1.07-.07.24.3,0,.75-.1,1.1-.63,2.15-2.56,3.7-4.69,3.72Z"/>
      <path class="cls-3" d="M59.4,51.83c-.06-2.42,1.22-3.96,2.72-5.38.32-.3.52-.22.52.23-.04,2.57-.32,5.07-2.07,7.15-.36.43-.58.54-.82-.11-.26-.68-.36-1.36-.34-1.89Z"/>
      <path class="cls-3" d="M41.82,46.17c2.44,1.59,3.47,4.69,2.58,7.31-.23.67-.47.77-.95.22-.66-.77-1.1-1.65-1.32-2.64-.36-1.61-.47-3.24-.31-4.89Z"/>
      <path class="cls-3" d="M20.72,63.41c1.77.09,3.41.53,4.53,2.08.59.83.53.98-.44,1.16-1.88.34-3.5-.18-4.84-1.54-.38-.39-.94-.84-.69-1.38.22-.48.92-.25,1.44-.33Z"/>
      <path class="cls-3" d="M54.6,19.28c-.04-1.41.43-2.64,1.34-3.7.24-.29.67-.65.84.02.55,2.2.87,4.41-.61,6.44-.42.57-.64.57-.95-.07-.42-.85-.6-1.75-.62-2.69Z"/>
      <path class="cls-3" d="M52.63,12.59c.17-2.4,1.28-4.12,3.25-5.32.32-.2.64-.38.77.21.42,1.89-1.3,4.97-3.12,5.59-.54.18-1.05.36-.9-.48Z"/>
      <path class="cls-3" d="M87.42,58.92c2.86-.73,5.53-.8,7.92,1.17-1.87,1.59-6.22.95-7.92-1.17Z"/>
      <path class="cls-3" d="M12.83,28.24c1.99,1.92,3.45,3.8,3.13,6.57-.09.81-.38.72-.9.44-.94-.49-1.49-1.3-1.84-2.26-.55-1.48-.47-3-.38-4.76Z"/>
      <path class="cls-3" d="M68.3,39.43c.04,1.84-.37,3.56-1.46,5.08-.35.48-.55.5-.83-.07-1.01-2.03-.35-4.96,1.47-6.37.19-.15.4-.42.66-.31.27.13.14.46.16.7.03.32,0,.64,0,.96Z"/>
      <path class="cls-3" d="M16.64,58.9c-1.98,2.1-5.75,2.67-7.91,1.21,2.38-2.06,5.05-1.85,7.91-1.21Z"/>
      <path class="cls-3" d="M95.52,71.6c-1.3-.04-2.38-.26-3.31-.98-.49-.38-.53-.67.07-.98,1.98-1.01,3.92-1.02,5.83.21.59.38.55.65-.01,1.02-.84.56-1.77.69-2.58.73Z"/>
      <path class="cls-3" d="M80.01,66.68c-.52-.08-1.37.14-1.56-.36-.22-.6.46-1.15.94-1.55,1.41-1.17,3.1-1.45,4.87-1.29.85.07.49.58.23.93-1.1,1.49-2.58,2.26-4.48,2.27Z"/>
      <g class="cls-6">
        <path class="cls-3" d="M55.9.01c.08,2.6-.08,4.94-2.15,6.69-.53.45-.81.52-.95-.33-.39-2.39.63-4.61,3.09-6.36Z"/>
      </g>
      <path class="cls-3" d="M38.54,42.23c.02.68-.11,1.43-.44,2.15-.24.54-.53.56-.9.08-.9-1.17-1.18-2.55-1.33-3.96-.07-.67-.02-1.35-.03-2.03-.01-.73.29-.74.81-.38,1.11.76,1.88,2.37,1.88,4.14Z"/>
      <path class="cls-3" d="M8.64,71.59c-1.17-.03-2.14-.18-2.98-.8-.41-.3-.43-.54,0-.89,1.49-1.23,4.53-1.31,6.07-.17.46.34.28.57-.03.82-.94.77-2.04,1.04-3.06,1.04Z"/>
      <path class="cls-3" d="M88.45,66.61c-.39-.12-.95.17-1.14-.22-.18-.36.22-.77.45-1.1.66-.94,1.61-1.44,2.68-1.73.8-.22,1.62-.38,2.43-.55.23-.05.54-.22.69.05.13.22-.05.49-.19.71-1.14,1.83-2.81,2.72-4.93,2.84Z"/>
      <path class="cls-3" d="M20.05,39.97c1.49.07,2.93.42,4.14,1.44.44.37.45.6-.05.92-1.6,1.01-5.32.04-6.21-1.63-.17-.32-.21-.54.26-.57.61-.04,1.21-.1,1.86-.16Z"/>
      <path class="cls-3" d="M16.75,66.33c-2.66.67-5.47-.81-6.35-3.33,3.47.21,5.78,1.15,6.35,3.33Z"/>
      <path class="cls-3" d="M81.9,42.67c-.68-.03-1.92.07-2.07-.68-.15-.81,1.02-1.23,1.81-1.55,1.41-.57,2.9-.43,4.36-.3.76.07.37.49.16.79-.73,1.01-2.33,1.68-4.27,1.74Z"/>
      <path class="cls-3" d="M92.4,33.93c.13-2.24,1.29-3.69,3.16-4.67.3-.16.5-.26.63.2.48,1.76-1.17,4.58-2.95,5.09-.69.2-1,.08-.83-.62Z"/>
      <path class="cls-3" d="M19.58,71.81c.08,0,.28-.03.47,0,.33.05.82-.18.96.15.16.35-.21.71-.47.97-1.5,1.47-3.28,2.03-5.35,1.57-.63-.14-.67-.42-.26-.9,1.21-1.39,2.75-1.9,4.65-1.81Z"/>
      <path class="cls-3" d="M58.43,9.11c-.04-1.14.2-2.11.8-2.99.3-.44.57-.55.94-.02,1.18,1.73,1.04,4.28-.34,5.79-.34.37-.53.45-.78-.09-.41-.89-.69-1.79-.62-2.69Z"/>
      <path class="cls-3" d="M11.46,33.66c.02,1.08-.15,1.19-1.15.71-1.58-.74-2.85-3.09-2.6-4.8.06-.41.19-.55.63-.39,1.68.6,3.1,2.61,3.13,4.47Z"/>
      <g class="cls-5">
        <path class="cls-3" d="M48.32,6.92c-2.07-.97-3.28-3.76-2.57-5.84.15-.43.38-.45.72-.23,1.79,1.13,2.7,4.14,1.85,6.08Z"/>
      </g>
      <path class="cls-3" d="M51.04,12.06c-1.03-.84-1.58-1.83-1.67-3.04-.08-1.16-.15-2.32.11-3.46.06-.24.07-.57.35-.63.24-.05.38.22.5.4,1.44,2.07,1.85,4.26.7,6.73Z"/>
      <path class="cls-3" d="M84.68,71.81c1.79-.1,3.15.51,4.3,1.66.58.58.41.86-.33,1.06-1.73.47-4.22-.38-5.16-1.82-.15-.23-.45-.46-.25-.77.15-.23.47-.11.72-.14.29-.02.58,0,.72,0Z"/>
      <path class="cls-3" d="M46.47,15.01c-1.73-1.87-1.76-4.66-.17-6.46.44-.49.65-.34.88.16.71,1.54.35,3.07-.05,4.6-.15.55-.41,1.06-.66,1.71Z"/>
      <path class="cls-3" d="M4.61,60.09c1.63.35,3.05.77,4.16,1.86.6.59,1.28,1.63.89,2.16-.41.55-1.56.15-2.3-.24-1.48-.79-2.43-1.97-2.74-3.77Z"/>
      <path class="cls-3" d="M32.68,69.68c-.77,2.51-3.18,3.62-5.55,3.23-.47-.08-.58-.31-.32-.72.53-.86,1.33-1.38,2.24-1.73.54-.21,1.1-.35,1.66-.47.62-.13,1.25-.2,1.97-.31Z"/>
      <path class="cls-3" d="M99.1,60.04c.3,2.21-2.22,4.63-4.31,4.24-.43-.08-.43-.3-.36-.6.24-.97.74-1.76,1.6-2.31.95-.61,2.04-.87,3.07-1.33Z"/>
      <path class="cls-3" d="M32.9,36.7c-.04.92-.17,1.77-.54,2.57-.29.61-.56.58-.97.11-1.04-1.2-1.08-2.55-.67-3.99.12-.43.24-.86.4-1.29.08-.22,0-.58.36-.6.28-.02.45.22.61.43.66.82.77,1.81.82,2.77Z"/>
      <path class="cls-3" d="M76.03,72.97c-1.85-.07-3.28-.91-4.24-2.53-.11-.19-.3-.41-.18-.62.13-.24.41-.11.61-.08,1.39.23,2.79.45,3.99,1.28.16.11.31.22.45.35.38.35.93.79.78,1.23-.17.48-.89.32-1.41.36Z"/>
      <path class="cls-3" d="M71.19,37.03c-.01-1.27.19-2.35.94-3.27.14-.18.31-.39.54-.35.3.04.22.34.26.55.29,1.3.82,2.58.4,3.96-.22.74-.49,1.76-1.24,1.74-.58-.01-.71-1.09-.83-1.79-.05-.31-.05-.64-.06-.84Z"/>
      <path class="cls-3" d="M64.61,4.26c0,1.41-.23,2.73-1.4,3.72-.33.29-.49.28-.68-.14-.66-1.46-.37-3.68.67-4.8.28-.3.6-.7,1.04-.55.42.14.33.63.37.99.02.26,0,.52,0,.77Z"/>
      <path class="cls-3" d="M41.8,6.18c-.03.18-.06.54-.14.88-.08.36.02.9-.39.98-.36.08-.63-.39-.88-.66-1.27-1.37-1.14-3.06-1.02-4.72.04-.53.45-.33.71-.13,1.17.86,1.66,2.07,1.71,3.66Z"/>
      <path class="cls-3" d="M44.53,7.83c.04.86-.2,1.61-.68,2.29-.26.37-.5.51-.84.02-.9-1.28-.82-3.4.16-4.6.34-.41.52-.24.71.06.43.69.73,1.43.66,2.23Z"/>
      <path class="cls-3" d="M4.48,30.72c.73.03,1.03.47,1.11,1.1.05.36-.21.44-.49.39-.63-.11-1.03-.5-1.13-1.13-.06-.38.29-.33.51-.36Z"/>
      <path class="cls-3" d="M98.97,32.15c-.57.07-.76.02-.74-.35.03-.68.37-1.05,1.03-1.14.32-.04.6.05.56.44-.06.66-.5.98-.85,1.04Z"/>
    </g>
  </g>
</svg>