<?xml version="1.0" encoding="UTF-8"?>
<svg id="Layer_2" data-name="Layer 2" xmlns="http://www.w3.org/2000/svg" xmlns:xlink="http://www.w3.org/1999/xlink" viewBox="0 0 104.95 107.96">
  <defs>
    <style>
      .cls-1 {
        fill: #306a56;
      }

      .cls-1, .cls-2 {
        stroke-width: 0px;
      }

      .cls-3 {
        clip-path: url(#clippath);
      }

      .cls-2 {
        fill: none;
      }
    </style>
    <clipPath id="clippath">
      <rect class="cls-2" width="104.95" height="107.95"/>
    </clipPath>
  </defs>
  <g id="Layer_1-2" data-name="Layer 1">
    <g>
      <g class="cls-3">
        <path class="cls-1" d="M94.2,52.22c-.86,1.19-1.91,2.19-3.26,3.1,1.49.19,2.84.45,4.1,1.03.14.06.26.08.36-.07.98-1.32,2.39-1.23,3.76-1.03,1.94.29,3.59,1.29,5.42,2.33-2.09.7-4,1.43-6.09,1.18-1.18-.14-2.22-.6-2.89-1.66-.17-.28-.39-.34-.67-.4-2.14-.41-4.25-.21-6.35.22-3.71.77-7.24.19-10.67-1.31-1.08-.47-2.14-.97-3.18-1.53-7.18-3.85-12.65.84-14.46,5.78-1.97,5.34-.61,11.34,3.37,14.82,2.47,2.16,5.44,3.1,8.61,3.4,3.31.32,6.52.92,9.6,2.26,2.83,1.22,5.75.97,8.63.01,1.09-.36,2.16-.79,3.3-.97,1.21-.2,2.4-.15,3.52.43.36.19.7.42.98.93-.86-.22-1.54-.55-2.29-.62-1.47-.14-2.83.28-4.16.83-1.97.81-3.97,1.56-6.15,1.58-.67.01-1.34,0-2.03,0-.03.29.24.39.42.54,2.31,1.98,5.02,2.91,8.03,2.97,1.82.04,3.65-.07,5.44.34,1.65.38,2.98,1.26,3.97,2.64.17.23.44.45.23.83-.08-.04-.17-.05-.22-.1-1.79-1.97-4.07-2.55-6.64-2.36-2.16.16-4.31.18-6.47-.14,1.71,1.25,3.63,1.49,5.75,1.07-.21.59-.67.62-1.03.7-2.14.53-4.1.04-5.93-1.13-1.71-1.09-3.26-2.39-4.83-3.65-1.44-1.16-3.03-2.01-4.87-2.34-.53-.1-1.04-.09-1.69-.07,1.15,1.9,2.31,3.57,4.38,4.38,1.39.53,2.76,1.11,3.79,2.26.24.27.51.54.71.83.15.2.54.44.28.68-.27.26-.48-.16-.67-.31-1.33-1.06-2.81-1.85-4.45-2.28-1.82-.48-3.33-1.42-4.54-2.87-.91-1.08-1.96-2.01-3.23-2.65-.87-.45-1.78-.66-2.76-.51-.68.11-.9.43-.68,1.11.88,2.64,2.63,4.4,5.28,5.22,1.07.33,2.17.57,3.26.8,2.12.44,4.03,1.29,5.77,2.59,1.83,1.36,3.85,2.3,6.21,2.2,1.16-.04,2.24-.38,3.34-.76-.88,1.14-2.08,1.64-3.47,1.76-2.24.2-4.23-.61-6.15-1.65-1.84-.99-3.64-2.11-5.76-2.47-.58-.1-1.16-.16-1.82-.25.28.53.75.69,1.16.88,2.62,1.18,4.83,2.89,6.81,4.97,2.63,2.78,4.46,3.08,7.98,1.58.04-.02.1.02.27.05-.92,1.06-2.09,1.44-3.34,1.57-1.92.21-3.59-.42-5.03-1.69-.59-.52-1.14-1.08-1.69-1.64-1.13-1.11-2.42-2.01-3.84-2.69-1.33-.63-2.67-1.24-3.96-1.98.7,1.75,1.67,3.26,3.36,4.2.86.47,1.73.93,2.55,1.47.61.41,1.2.89,1.2,1.81-1.15-1.43-2.91-1.59-4.41-2.26-1.24-.55-2.24-1.39-2.94-2.55-1.52-2.54-3.33-4.84-5.57-6.8-.93-.82-1.59-1.89-2.22-2.94-1-1.67-2.26-3.06-4.03-3.94-.62-.31-1.13-.8-1.69-1.31-.57,1.8-.42,3.4.74,4.82.32.39.64.8,1.04,1.1,1.88,1.38,3.26,3.11,4.07,5.32.39,1.07,1.31,1.64,2.36,1.99,1.19.4,2.27.96,3.03,2.02.2.28.44.56.43.93-.27.07-.38-.07-.49-.18-.89-.85-1.95-1.42-3.16-1.66-1.45-.28-2.48-1.07-3.17-2.38-.39-.74-.84-1.45-1.38-2.17.39,1.2-.14,2.29-.29,3.42-.18,1.37.54,2.52,1.94,3.24,1.28.67,2.68.96,4.05,1.35,1.37.4,2.76.76,4.06,1.36,2.56,1.19,4.41,2.97,4.81,5.91.13.97.03,1.93-.64,2.89-.16-.44.03-.71.05-.99.13-1.49-.24-2.83-1.15-4.03-1.58-2.08-5.31-3.8-7.84-3.53,1.84,1.9,3.29,3.9,2.48,6.7-.04-3.15-1.99-4.97-4.44-6.47-.95-.58-1.87-1.23-2.8-1.86-.89-.61-1.62-1.38-2.18-2.43-.69,1.1-1.53,1.97-2.13,3.02-.69,1.22-.62,2.35.25,3.43.42.53.86,1.03,1.29,1.56.84,1.04,1.47,2.18,1.63,3.54.07.61.02,1.2-.53,1.92.31-2.53-1.05-4.02-2.56-5.43-2.54-2.38-2.7-3.66-.82-6.57.17-.26.34-.51.52-.77,1.81-2.8,1.82-5.15-.1-7.88-1.68-2.38-3.12-4.85-3.94-7.66-.19-.64-.36-1.28-.61-1.91-.63,1.99-.88,4.01-.73,6.08.14,2.01.68,3.91,1.59,5.71,1.23,2.41,1.43,4.86.31,7.36-.71,1.57-.73,3.2-.57,4.87.17,1.86-.09,3.64-1.14,5.23-.13.19-.26.37-.4.54-.99,1.21-1.59,1.2-2.59-.04-1.48-1.84-1.68-3.99-1.4-6.21.18-1.4.15-2.78-.48-4.04-1.39-2.79-1.08-5.45.33-8.12,2-3.79,1.95-7.74.89-11.79-.28.11-.27.35-.32.55-.85,3.3-2.27,6.32-4.29,9.06-.56.74-.98,1.56-1.28,2.45-.6,1.81-.45,3.53.55,5.17.54.89,1.13,1.74,1.61,2.66.86,1.62.69,2.88-.53,4.24-.43.48-.9.92-1.36,1.38-1.35,1.34-2.44,2.8-2.1,4.9-.46-.15-.49-.49-.53-.82-.16-1.25.2-2.38.86-3.43.55-.89,1.28-1.63,1.92-2.44,1.02-1.29,1.1-2.31.18-3.69-.61-.91-1.31-1.75-2.04-2.7-1.42,2.36-3.84,3.44-5.97,4.9-2.26,1.55-3.05,2.98-3.23,5.79-.45-.32-.45-.77-.45-1.19.02-1.97.92-3.54,2.24-4.92.17-.18.36-.35.54-.53.02-.02.01-.05.02-.07-1.54-.33-4.58.68-6.48,2.16-2.04,1.57-2.81,3.63-2.42,6.18-.76-.99-.77-2.11-.56-3.23.46-2.42,2.02-4.01,4.11-5.13,1.67-.9,3.51-1.32,5.31-1.83,1.08-.3,2.17-.56,3.19-1.05,1.89-.9,2.55-2.35,1.95-4.34-.23-.76-.29-1.51-.3-2.33-.39.67-.79,1.33-1.15,2.01-.66,1.27-1.63,2.09-3.06,2.4-1.35.29-2.56.9-3.54,2.06-.18-.53.09-.81.28-1.08.67-.99,1.65-1.63,2.76-1.97,1.49-.45,2.44-1.39,2.93-2.86.52-1.56,1.51-2.79,2.83-3.78.52-.38.99-.82,1.45-1.28,1.48-1.49,1.92-3.23,1.17-5.32-1.86,1.49-4.11,2.43-5.32,4.64-1.01,1.83-2.36,3.4-3.91,4.81-1.46,1.33-2.61,2.93-3.6,4.63-1.11,1.91-2.65,3.22-4.77,3.87-1.2.36-2.39.75-3.32,1.98-.05-.8.24-1.12.55-1.43.72-.74,1.63-1.19,2.55-1.6,1.71-.78,2.94-2.03,3.8-3.66.1-.2.2-.4.29-.61.04-.09.05-.2.12-.47-2.63,1.61-5.54,2.44-7.68,4.6-.89.89-1.75,1.82-2.84,2.48-2.05,1.24-4.16,1.4-6.32.33-.43-.21-.83-.47-1.06-.92.27-.2.42.05.6.14,2.35,1.11,4.57.95,6.58-.77.74-.64,1.44-1.33,2.12-2.04,1.32-1.37,2.8-2.49,4.53-3.29.76-.34,1.49-.74,2.13-1.32-1.41-.06-2.74.21-4.03.74-1.19.49-2.29,1.17-3.42,1.79-1.97,1.08-4.02,1.86-6.32,1.65-1.46-.14-2.61-.72-3.37-1.81.68.22,1.26.46,1.85.6,2.54.62,4.93.04,6.93-1.48,2.64-2,5.59-2.97,8.77-3.57,3.21-.59,5.36-2.5,6.54-5.55.25-.64.1-.9-.54-1.06-1.11-.28-2.11,0-3.08.49-1.17.59-2.17,1.4-2.99,2.42-1.27,1.56-2.84,2.58-4.78,3.09-1.62.43-3.06,1.22-4.36,2.29-.18.15-.32.41-.64.33-.15-.29.09-.46.22-.66,1.03-1.53,2.51-2.46,4.21-3.05,2.21-.77,3.52-2.46,4.67-4.46-1.33-.15-2.46.23-3.58.65-1.58.59-2.88,1.62-4.14,2.69-1.24,1.05-2.54,2.03-3.93,2.89-1.78,1.08-3.68,1.45-5.72.95-.36-.09-.77-.16-1.09-.68,2.18.34,4.17.17,5.95-1.14-.48.05-.96.09-1.44.15-1.85.21-3.7.08-5.55.02-2.23-.08-4.22.43-5.77,2.18-.1.12-.22.27-.48.18.28-.89.89-1.52,1.57-2.08,1.67-1.38,3.69-1.52,5.72-1.58,1.93-.05,3.87.05,5.75-.55,1.87-.59,3.55-1.48,5.06-3.01-1.08-.02-2.02.09-2.95-.02-1.48-.18-2.91-.57-4.28-1.17-2.35-1.04-4.72-1.84-7.33-.51.41-.89,1.49-1.44,2.77-1.52,1.28-.08,2.5.21,3.7.63,1.11.39,2.22.79,3.38,1.02,2.02.39,4.07.4,5.96-.42,3.52-1.53,7.22-2.14,10.98-2.61,3.86-.48,7.22-2.03,9.57-5.3,3.8-5.29,3.1-12.84-1.57-17.3-2.9-2.76-6.75-3.39-10.52-1.69-1.86.84-3.64,1.85-5.57,2.56-3.54,1.3-7.13,1.3-10.76.49-1.35-.3-2.73-.23-4.11-.09-.54.05-.94.25-1.31.74-.99,1.32-2.47,1.56-4.01,1.47-1.63-.09-3.15-.64-4.87-1.21,2.44-1.28,4.61-2.74,7.41-2.4.6.08,1.21.24,1.57.7.34.43.6.42,1.05.24,1.1-.43,2.27-.58,3.68-.8-1.38-.84-2.32-1.9-3.33-2.9-.19-.18-.33-.09-.52,0-1.11.52-2.09.18-2.94-.57-1.21-1.08-1.99-2.47-2.8-4.08,1.84.49,3.59.7,5.06,1.75.72.51,1.19,1.18,1.15,2.12,0,.22-.04.41.21.57,1.01.65,1.98,1.36,3,2.01,3.13,1.98,6.4,1.68,9.7.52,1.54-.54,2.96-1.34,4.33-2.22,1.81-1.16,3.71-2.08,5.8-2.59.13-.03.25-.1.5-.21-3.36-.82-5.89-2.68-8.02-5.16-.17-.2-.36-.32-.65-.31-2.78.03-5.26-.98-7.68-2.2-2.09-1.06-4.28-1.81-6.66-1.84-.26,0-.56-.1-.75.22-1.07,1.8-2.83,2.26-4.73,2.43-1.12.1-2.24.02-3.51-.08,1.14-1.59,2.2-3.09,3.86-3.99,1.59-.86,3.3-.52,4.46.83.18.22.35.22.58.18,2.55-.5,4.95.14,7.32.99,1.72.62,3.46,1.14,5.27,1.39.38.05.76.11,1.15.02-3.11-5.61-7.68-8.91-14.14-9.35-.51-.04-.8.01-1.01.63-.42,1.25-1.52,1.73-2.76,1.88-1.98.23-3.72-.53-5.63-1.34,2.16-1.26,4.23-2.7,6.7-2.04,1.38.36,2.66.34,3.99.3,1.08-.04,2.15.14,3.4.27-1.17-1.11-2.08-2.19-2.79-3.52.28-.03.35.13.44.23,1.21,1.52,2.68,2.73,4.4,3.59,3.6,1.82,6.38,4.51,8.71,7.75,1.88,2.61,4.23,4.7,7.14,6.13.72.35,1.5.55,2.5.78-1.48-1.53-2.32-3.19-2.99-4.95-1.35.66-2.54.27-3.43-1.14-.82-1.29-1.27-2.72-1.66-4.24,1.58,1.01,3.43,1.64,4.62,3.15.74.94,1.06,2.18,1.83,3.17,1.5,1.92,3.25,3.46,5.55,4.34,3.01,1.15,5.81,2.63,8.09,5.2.34-1.86.24-3.57-.05-5.28-.83-4.87-3.54-8.64-6.99-11.98-2.78-2.69-5.83-4.91-9.72-5.69-.1-.02-.2-.04-.4-.08.63,1.29,1.2,2.5,1.45,3.83.16.9.02,1.73-.44,2.51-.53.9-1.28.97-1.98.19-.66-.72-.93-1.58-.77-2.56.21-1.23.66-2.38,1.29-3.44.3-.51.16-.64-.36-.74-1.94-.39-3.94-.53-5.79-1.33-.15-.07-.31-.13-.48-.19,1.03-.68,3.45-1.21,4.45-.99,1.02.22,1.32.81.86,1.84.66.03,1.28.05,1.9.09.61.04,1.22.1,2.01.18-1.63-1.77-3.1-3.66-4.4-5.68-.83-1.3-1.67-2.59-2.68-3.76-1.96-2.25-4.39-3.7-7.32-4.31-.11-.02-.21-.06-.32-.1-.04-.02-.06-.07-.1-.11,1.68-.55,5.14.8,8.67,3.43-.2-1.54-.36-3.02-.13-4.52.6,3.38,1.8,6.48,3.9,9.2,2.09,2.7,4.64,4.89,7.52,6.97-.38-1.82-.82-3.47-.82-5.3.41.38.4.82.47,1.2.63,3.07,2.16,5.53,4.72,7.39,2.47,1.79,4.81,3.76,6.93,6.18.08-2.17-.23-4.13-.83-6.05-1.32-4.23-3.96-7.55-7.15-10.52-2.45-2.29-5.02-4.4-8.27-5.48-1.63-.54-3.3-.83-5.01-.99,3.36-.71,6.41.29,9.42,1.79.02-.48-.23-.77-.36-1.09-.71-1.69-.98-3.44-.86-5.26.02-.31.12-.58-.31-.74-2.01-.71-2.97-2.28-3.35-4.27-.23-1.18-.32-2.38-.19-3.71,1.62,1.11,3.24,2.04,4.4,3.56.88,1.15,1.14,3.24-.03,4.51-.17.18-.11.36-.08.55.67,3.37,2.13,6.31,4.71,8.62,1.21,1.09,2.48,2.1,3.71,3.17,1.91,1.65,3.74,3.37,5.28,5.59.42-2.33.17-4.42-.71-6.44-.74-1.7-1.69-3.29-2.64-4.88-1.53-2.57-2.16-5.27-1.32-8.21.14-.48.27-.96.67-1.52-.08.54-.12.94-.19,1.32-.41,2.32.07,4.47,1.31,6.44,1.1,1.75,2.3,3.44,3.56,5.32.37-1.61.49-3.07.34-4.53-.4-3.77-2.26-6.93-4.26-10.03-.13-.21-.29-.4-.6-.38-1.71.16-2.74-.83-3.46-2.18-.73-1.39-1.11-2.92-1.4-4.57,1.45.75,2.83,1.42,4.02,2.41,1.12.94,1.62,2.14,1.32,3.59-.07.32-.02.53.2.74,2.34,2.39,4.16,5.13,5.39,8.24.01.02.05.02.13.05,1.09-3.18,2.96-5.88,5.34-8.22.23-.22.2-.4.13-.66-.45-1.84.24-3.24,1.76-4.27,1.06-.72,2.2-1.3,3.51-1.86-.41,1.91-.76,3.73-1.82,5.29-.67.99-1.64,1.53-2.86,1.45-.33-.03-.52.06-.69.32-2.46,3.88-4.59,7.86-4.14,12.68.06.58.14,1.16.24,1.97,1.89-3.17,4.52-5.68,5.07-9.35.17-1.14-.13-2.22-.19-3.34.74,1.31,1.02,2.73.89,4.23-.16,1.68-.74,3.21-1.57,4.66-1.06,1.85-2.16,3.67-2.95,5.66-.75,1.91-.87,3.86-.63,5.91.09-.04.19-.06.22-.1,2.03-2.73,4.56-4.94,7.21-7.03,2.41-1.91,4.52-4.05,5.57-7.02.24-.68.44-1.39.61-2.09.17-.69.24-1.29-.28-2-.87-1.19-.53-3.1.57-4.36,1.13-1.3,2.58-2.2,4.07-3.29.12,2.14.06,4.09-.93,5.91-.53.97-1.35,1.64-2.36,2.05-.31.13-.51.2-.46.64.24,2.23-.22,4.34-1.32,6.53,3.14-1.45,6.2-2.57,9.58-1.82-7.81.47-12.88,5.34-17.4,10.97-2.77,3.45-4.02,7.5-4.02,11.95.36,0,.47-.26.63-.43,1.77-1.85,3.6-3.63,5.69-5.1,2.9-2.05,4.88-4.67,5.52-8.21.05-.24.05-.51.29-.73.13.59.04,1.15-.05,1.7-.09.55-.19,1.1-.31,1.65-.12.57-.27,1.13-.44,1.89,5.74-4.15,10.44-8.8,11.43-16.11.23,1.45.1,2.88-.13,4.3.37.03.51-.26.71-.42,2.34-1.98,5.05-2.96,8.09-3.04.19,0,.36.05.52-.16.8-1.07,1.95-1.15,3.12-.98,1.51.22,2.88.86,4.33,1.72-1.84.86-3.48,1.86-5.51,1.65-1.03-.11-1.83-.61-2.09-1.66-.14-.52-.41-.34-.69-.29-3.45.69-6.24,2.41-8.29,5.29-1.55,2.17-2.83,4.52-4.57,6.55-.51.6-1.03,1.19-1.65,1.9l3.88-.21c-.42-1.06-.03-1.7,1.15-1.86,1.48-.2,2.77.49,4.29.94-1.45.56-2.73.99-4.09,1.2-2.24.34-4.46.82-6.58,1.65-3.01,1.16-5.32,3.29-7.56,5.49-3.25,3.2-5.57,6.94-6.3,11.53-.27,1.64-.41,3.29-.06,4.94.06-.01.13,0,.16-.03,2.11-2.31,4.71-3.86,7.65-4.88,3.16-1.09,5.29-3.39,7.08-6.06.09-.15.15-.3.18-.47.14-1,.74-1.69,1.55-2.19,1.2-.75,2.43-1.44,3.7-2.08-.67,1.83-.95,3.85-2.67,5.11-.74.55-1.56.79-2.41.05-.77,1.79-1.52,3.51-2.92,4.97.72.06,1.24-.19,1.76-.41,2.88-1.23,5.17-3.22,7.13-5.61.87-1.06,1.68-2.18,2.57-3.22,1.47-1.71,3.15-3.19,5.13-4.31,2.28-1.28,4.56-2.53,6.17-4.7-.52,1.29-1.35,2.33-2.44,3.36.74-.08,1.36-.16,1.99-.19.61-.04,1.24-.09,1.85-.02,1.17.15,2.29.28,3.4-.33.54-.3,1.2-.17,1.82-.06,1.74.32,3.24,1.17,4.8,2.16-1.79.74-3.45,1.46-5.34,1.31-1.64-.13-2.38-.69-2.9-2.27-.17-.51-.57-.26-.84-.25-3.84.15-7.21,1.48-10.11,4.01-1.73,1.51-2.94,3.42-4.29,5.35,1.41.1,2.66-.22,3.88-.57,1.56-.44,3.1-.97,4.65-1.45,1.73-.54,3.49-.8,5.3-.4.2.05.36.12.57-.14,1.05-1.32,2.48-1.69,4.05-1.09.53.2,1.01.48,1.44.85,1.09.93,1.99,2.04,2.85,3.36-2.36.15-4.61.29-6.73-.79-.48-.24-.94-.59-1.16-1.07-.32-.69-.83-.76-1.48-.72-2.03.1-3.89.78-5.69,1.65-2.18,1.04-4.34,2.21-6.8,2.29-1.48.05-2.44.66-3.4,1.69-1.79,1.93-4.05,3.15-6.58,3.88.13.35.43.26.65.32,1.93.57,3.69,1.48,5.41,2.49,2.2,1.3,4.45,2.47,7.02,2.92,2.9.5,5.57.07,7.98-1.7.58-.43,1.17-.86,1.78-1.28.18-.13.33-.42.64-.23l-.02-.03ZM52.19,88.59c-.7.97-1.18,1.91-1.66,2.86-.64,1.28-.74,2.59-.18,3.89.78,1.81.76,3.61.3,5.5-.62,2.56-.27,4.96,1.56,7.04,1.67-1.91,2.31-4.11,1.72-6.51-.56-2.26-.59-4.4.33-6.56.38-.9.26-1.87-.13-2.79-.49-1.19-1.17-2.28-1.95-3.44Z"/>
      </g>
      <path class="cls-1" d="M79.95,63.24c-1.92-.33-3.67-.6-5.3-1.27-1.64-.67-2.79-1.81-3.26-3.59-.21-.77.1-1.1.77-1.28,1.89-.49,3.49.02,4.82,1.4,1.28,1.33,2.09,2.95,2.96,4.73Z"/>
      <path class="cls-1" d="M24.67,63.32c.82-1.75,1.61-3.32,2.78-4.66,1.26-1.44,2.8-2.1,4.72-1.59.94.25,1.11.49.85,1.44-.43,1.61-1.48,2.74-2.98,3.42-1.67.76-3.48.97-5.38,1.4Z"/>
      <path class="cls-1" d="M24.46,29.7c.98,1.67,2.33,2.96,2.65,4.83.18,1.1-.16,2.05-.9,2.85-.44.48-.94.58-1.5.24-1.02-.61-1.68-1.45-1.74-2.69-.09-1.86.67-3.47,1.5-5.24Z"/>
      <path class="cls-1" d="M99.68,64.2c-2.18-.56-4.21-.94-6.05-1.94-.83-.45-1.45-1.13-1.86-1.99-.23-.5-.18-.8.34-1.07,1.45-.72,2.83-.67,4.1.33,1.53,1.2,2.44,2.86,3.47,4.68Z"/>
      <path class="cls-1" d="M5.03,64.12c1.07-1.9,1.92-3.76,3.72-4.9,1.24-.79,2.54-.72,3.83-.08.46.23.58.49.34.99-.55,1.11-1.45,1.82-2.54,2.33-1.65.77-3.4,1.21-5.35,1.65Z"/>
      <path class="cls-1" d="M34.24,33.77c1.49,1.05,2.79,2.07,3.73,3.45.79,1.14.97,2.35.32,3.65-.26.53-.59.67-1.15.46-1.14-.42-2.01-1.14-2.46-2.26-.67-1.65-.66-3.38-.45-5.3Z"/>
      <path class="cls-1" d="M85.57,23.57c.7,1.51,1.36,2.8,1.63,4.24.28,1.55-.27,2.79-1.52,3.73-.58.43-1.07.36-1.54-.17-.78-.88-1.09-1.88-.76-3.03.47-1.65,1.39-3.09,2.2-4.79Z"/>
      <path class="cls-1" d="M79.99,29.74c.79,1.68,1.56,3.23,1.58,5.03.02,1.2-.61,2.08-1.51,2.77-.56.44-1.11.2-1.58-.24-1.05-1.01-1.3-2.6-.53-4.12.58-1.15,1.31-2.21,2.03-3.43Z"/>
      <path class="cls-1" d="M19.03,23.54c.85,1.74,1.83,3.28,2.24,5.06.24,1.05-.07,1.99-.8,2.78-.47.51-.98.6-1.55.17-1.26-.94-1.79-2.17-1.48-3.73.29-1.46.91-2.8,1.59-4.28Z"/>
      <path class="cls-1" d="M70.45,33.71c.1,1.9.19,3.57-.34,5.2-.42,1.27-1.3,2.04-2.57,2.41-.51.15-.8,0-1.03-.44-.64-1.24-.45-2.44.23-3.58.89-1.46,2.24-2.44,3.71-3.59Z"/>
      <path class="cls-1" d="M7.32,22.11c1.44.89,2.8,1.62,3.89,2.73.82.83,1.33,1.79,1.19,3.01-.08.73-.45,1.11-1.19,1.13-1.22.03-2.07-.61-2.69-1.57-1.02-1.56-1.25-3.32-1.19-5.3Z"/>
      <path class="cls-1" d="M97.15,22.87c-.06,1.39-.22,2.68-.77,3.9-.45.99-1.14,1.72-2.17,2.09-1.22.44-2.03-.12-2.07-1.39-.03-.96.35-1.73.97-2.42,1.02-1.15,2.32-1.94,3.61-2.69.71-.41.28.38.42.51Z"/>
      <path class="cls-1" d="M9.56,15.88c1.65-.86,3.15-1.66,4.89-1.78.86-.06,1.67.09,2.38.62.77.57.85,1.19.19,1.9-1.03,1.1-2.34,1.09-3.66.81-1.29-.28-2.47-.86-3.8-1.55Z"/>
      <path class="cls-1" d="M31.94,18.08c1.4,1.01,2.68,1.84,3.7,3.01.67.76.93,1.64.82,2.64-.13,1.07-.72,1.47-1.74,1.12-1.25-.43-1.94-1.37-2.29-2.59-.36-1.3-.42-2.64-.49-4.18Z"/>
      <path class="cls-1" d="M40.47,39.1c1.49,1.04,2.86,1.92,3.92,3.17.76.9,1.15,1.91.84,3.11-.15.59-.41.84-1.07.64-1.32-.41-2.25-1.24-2.8-2.47-.6-1.35-.81-2.79-.89-4.45Z"/>
      <path class="cls-1" d="M64.2,39.11c-.16,1.49-.33,2.85-.82,4.14-.57,1.49-1.66,2.42-3.18,2.87-.49.15-.75.05-.88-.53-.26-1.16.02-2.18.73-3.07,1.11-1.39,2.59-2.35,4.15-3.41Z"/>
      <path class="cls-1" d="M72.51,18.15c-.04,1.7-.14,3.23-.68,4.68-.42,1.15-1.24,1.9-2.49,2.14-.56.1-.91-.11-1.11-.63-.47-1.17-.19-2.2.58-3.13,1-1.19,2.26-2.07,3.69-3.06Z"/>
      <path class="cls-1" d="M12.42,23.13c.71-1.41,1.35-2.61,2.33-3.6.8-.8,1.72-1.36,2.93-1.03.37.11.56-.1.8-.29.63-.52,1.21-1.12,2.23-1.3-.46.82-.88,1.42-1.69,1.61-.42.1-.58.26-.53.79.12,1.2-.62,2.01-1.59,2.55-1.33.75-2.83.97-4.48,1.27Z"/>
      <path class="cls-1" d="M92.17,23c-1.63-.15-3.04-.42-4.35-1.06-1.4-.68-1.81-1.45-1.63-2.99.06-.47-.35-.32-.48-.36-.88-.26-1.4-.83-1.76-1.76.94.28,1.63.78,2.27,1.35.27.24.51.4.89.33,1-.19,1.8.23,2.52.86,1.09.96,1.75,2.22,2.55,3.61Z"/>
      <path class="cls-1" d="M95.47,46.91c-2.04-.64-3.98-1.03-5.42-2.55-.14-.14-.26-.29-.36-.46-.36-.59-.67-1.24-.15-1.85.54-.64,1.3-.59,2.01-.3.38.15.72.42,1.04.69,1.34,1.16,2.13,2.69,2.89,4.48Z"/>
      <path class="cls-1" d="M9.17,46.77c.75-1.8,1.61-3.47,3.16-4.67.96-.75,2.1-.78,2.66-.13.52.61.26,1.7-.6,2.54-.92.9-3.56,2.06-5.22,2.26Z"/>
      <path class="cls-1" d="M94.22,52.26c-.24-1.71.7-2.67,2.13-3.29,1.21-.53,2.48-.84,3.98-1.06-.95,1.64-1.65,3.24-3.17,4.27-.97.66-1.96.64-2.96.05l.02.03Z"/>
      <path class="cls-1" d="M65.86,22.91c.17,1.56.16,2.93.02,4.28-.14,1.29-.86,2.22-2.02,2.79-.8.4-1.17.23-1.4-.64-.24-.88-.06-1.71.4-2.49.81-1.39,1.91-2.53,3.01-3.94Z"/>
      <path class="cls-1" d="M65.94,7.03c-.66,1.42-1.26,2.68-2.15,3.76-.55.66-1.19,1.18-2.11,1.19-1.03.02-1.59-.67-1.38-1.7.17-.82.68-1.39,1.39-1.8,1.27-.73,2.69-1.04,4.26-1.46Z"/>
      <path class="cls-1" d="M27.14,6.88c.36,1.53.64,2.95.58,4.41-.02.45-.11.89-.3,1.3-.41.9-1.16,1.32-1.93,1.09-.7-.21-1.19-1.08-1.08-1.96.07-.53.24-1.03.48-1.51.59-1.17,1.33-2.24,2.24-3.33Z"/>
      <path class="cls-1" d="M38.77,23.09c1.13,1.26,2.23,2.49,3.02,3.96.42.78.52,1.59.18,2.43-.22.55-.56.78-1.17.49-1.05-.48-1.71-1.26-1.95-2.37-.33-1.48-.16-2.99-.07-4.51Z"/>
      <path class="cls-1" d="M77.4,6.91c1.04,1.32,1.9,2.63,2.45,4.1.06.16.1.32.14.48.2.96-.34,2.02-1.16,2.27-.64.19-1.57-.44-1.9-1.33-.31-.84-.24-1.7-.12-2.57.14-.96.31-1.91.58-2.95Z"/>
      <path class="cls-1" d="M87.81,9.34c-.65,1.51-1.11,2.85-2.04,3.97-.53.64-1.17,1.12-2.04,1.17-.94.05-1.52-.6-1.37-1.54.11-.73.53-1.29,1.1-1.72,1.24-.95,2.71-1.36,4.35-1.88Z"/>
      <path class="cls-1" d="M38.79,6.93c1.49.46,2.84.82,4.05,1.53.61.35,1.13.81,1.39,1.51.21.59.26,1.16-.2,1.65-.47.49-1.07.43-1.65.26-.67-.2-1.15-.67-1.56-1.21-.82-1.1-1.42-2.33-2.03-3.73Z"/>
      <path class="cls-1" d="M74.47,30.04c.84,1.45,1.48,2.77,1.61,4.28.07.84-.22,1.54-.79,2.14-.65.66-1.26.62-1.84-.12-.68-.86-.61-1.84-.39-2.81.26-1.18.83-2.24,1.41-3.48Z"/>
      <path class="cls-1" d="M16.7,9.26c1.57.6,3.02,1.02,4.26,1.89.59.41,1.04.94,1.18,1.67.23,1.15-.53,1.86-1.66,1.59-.54-.13-.97-.42-1.35-.8-1.17-1.18-1.74-2.68-2.43-4.35Z"/>
      <path class="cls-1" d="M18.63,48.02c1.65-.92,3.16-1.68,4.95-1.55.94.07,2.42.93,2.42,1.44,0,.53-1.44,1.38-2.41,1.43-1.74.1-3.3-.45-4.95-1.32Z"/>
      <path class="cls-1" d="M85.77,48.13c-1.63.75-3.12,1.27-4.75,1.21-.17,0-.33-.01-.5-.04-.9-.15-2.02-.97-1.99-1.45.03-.47,1.23-1.29,2.08-1.36,1.88-.17,3.46.64,5.16,1.64Z"/>
      <path class="cls-1" d="M14.99,60.36c1.89-.89,3.56-2.39,5.88-1.97.62.11,1.33.28,1.44.95.11.7-.6.99-1.13,1.29-.69.38-1.45.39-2.2.38-1.36-.02-2.69-.23-3.98-.65Z"/>
      <path class="cls-1" d="M59.45,17.42c.18,1.63.31,2.98.27,4.35-.03,1.17-.53,2.1-1.53,2.72-.79.49-1.43.16-1.52-.77-.07-.77.17-1.49.46-2.19.58-1.39,1.39-2.65,2.31-4.12Z"/>
      <path class="cls-1" d="M45.23,17.66c.99,1.67,2.24,3.19,2.73,5.14.09.36.15.72.06,1.08-.18.76-.79,1.03-1.45.64-1.14-.68-1.63-1.76-1.66-3.03-.04-1.26-.01-2.52-.01-3.78l.34-.06Z"/>
      <path class="cls-1" d="M89.59,60.41c-1.88.48-3.55.72-5.27.52-.67-.08-1.3-.35-1.77-.87-.5-.55-.44-.98.21-1.35.71-.4,1.48-.53,2.27-.36,1.61.33,2.99,1.16,4.56,2.07Z"/>
      <path class="cls-1" d="M51.79.22c.01,1.59.08,2.93-.2,4.26-.15.69-.41,1.34-.97,1.82-.34.29-.73.57-1.21.35-.44-.21-.63-.6-.68-1.08-.09-.84.14-1.6.57-2.32.65-1.06,1.54-1.9,2.5-3.03Z"/>
      <path class="cls-1" d="M30.19,9.27c1.01,1.09,1.81,2.13,2.35,3.34.11.26.19.53.22.8.11,1.05-.3,1.77-1.08,1.91-.67.11-1.57-.54-1.78-1.39-.37-1.54,0-3.03.29-4.67Z"/>
      <path class="cls-1" d="M52.82.34c.84.94,1.67,1.8,2.34,2.8.52.77.81,1.6.65,2.53-.08.46-.3.86-.77,1.02-.43.14-.76-.11-1.05-.38-.8-.69-1.08-1.64-1.15-2.62-.07-1.08-.02-2.17-.02-3.35Z"/>
      <path class="cls-1" d="M93.6,35.53c-.94.95-1.79,1.71-2.78,2.29-.49.28-1,.5-1.56.56-.67.07-1.29-.08-1.55-.72-.27-.68.07-1.26.61-1.69.19-.15.43-.29.66-.34,1.49-.35,2.98-.34,4.63-.09Z"/>
      <path class="cls-1" d="M10.95,35.54c1.58-.22,2.99-.26,4.41.03.05.02.1.03.16.05,1.04.32,1.67,1.17,1.45,1.94-.21.74-1.13,1.03-2.22.64-1.44-.52-2.6-1.46-3.8-2.67Z"/>
      <path class="cls-1" d="M91.35,50.71c-.95,1.04-1.71,2.25-2.94,3.03-.61.39-1.26.61-1.98.38-1.05-.35-1.26-1.34-.44-2.07.32-.29.68-.51,1.09-.6,1.39-.33,2.77-.63,4.16-.94.04.07.08.14.12.21Z"/>
      <path class="cls-1" d="M74.33,9.29c.33,1.61.55,2.98.34,4.38-.02.17-.07.33-.13.48-.32.78-1.18,1.32-1.84,1.16-.67-.17-1.06-1.04-.86-1.95.17-.78.57-1.45,1.02-2.09.43-.61.89-1.2,1.46-1.97Z"/>
      <path class="cls-1" d="M13.2,50.45c1.83.38,3.44.54,4.91,1.24.91.44,1.26,1.17.96,1.79-.3.61-1.25.91-2.07.61-.84-.3-1.49-.88-2.06-1.53-.55-.62-1.05-1.28-1.74-2.11Z"/>
      <path class="cls-1" d="M19.65,52.26c1.47-.73,2.9-1.51,4.52-1.8,1.05-.19,2.35.31,2.48.95.1.54-.95,1.34-2.02,1.47-1.69.2-3.33-.24-4.97-.62Z"/>
      <path class="cls-1" d="M84.79,52.22c-1.42.36-2.81.66-4.24.71-.82.03-1.54-.21-2.18-.72-.68-.56-.64-1.06.16-1.47.45-.23.96-.37,1.46-.31,1.74.2,3.28.99,4.81,1.79Z"/>
      <path class="cls-1" d="M60.69,29.4c-.07,1.69-.08,3.13-.69,4.47-.28.6-.7,1.08-1.28,1.4-.71.39-1.17.17-1.33-.63-.11-.54,0-1.06.26-1.54.72-1.37,1.82-2.42,3.04-3.71Z"/>
      <path class="cls-1" d="M57.49,8.32c.47,1.4.95,2.59,1.06,3.89.06.74-.03,1.45-.47,2.09-.37.53-.79.56-1.26.13-.46-.42-.64-.97-.67-1.58-.08-1.6.53-3.01,1.34-4.53Z"/>
      <path class="cls-1" d="M43.78,29.56c1.07,1.09,2.02,1.94,2.77,2.99.44.61.65,1.3.52,2.05-.12.71-.56.93-1.21.61-.9-.43-1.35-1.22-1.64-2.12-.34-1.07-.35-2.19-.44-3.54Z"/>
      <path class="cls-1" d="M47.14,8.45c.7,1.23,1.18,2.39,1.39,3.64.1.65.07,1.3-.28,1.88-.22.36-.46.73-.96.71-.5-.02-.71-.4-.89-.79-.38-.84-.29-1.71-.09-2.56.21-.92.52-1.83.83-2.88Z"/>
      <path class="cls-1" d="M83.59,22.95c-1.39,1.05-2.42,2.16-3.89,2.66-.83.28-1.58.05-1.81-.54-.27-.67.16-1.49.99-1.79,1.45-.52,2.95-.4,4.71-.33Z"/>
      <path class="cls-1" d="M21.35,23.01c1.31-.13,2.59-.22,3.84.15.22.06.43.14.63.23.76.38,1.14,1.09.9,1.68-.25.61-1,.88-1.81.58-1.42-.54-2.44-1.65-3.56-2.65Z"/>
      <path class="cls-1" d="M41.05,12.56c.84,1.32,1.56,2.48,1.88,3.84.1.44.14.89.03,1.33-.08.34-.23.65-.62.72-.37.07-.66-.1-.87-.39-.45-.6-.7-1.29-.76-2.02-.08-1.13.05-2.23.34-3.49Z"/>
      <path class="cls-1" d="M63.58,12.58c.3,1.3.5,2.57.32,3.86-.09.68-.29,1.32-.82,1.79-.5.45-1,.3-1.24-.33-.14-.35-.15-.72-.1-1.08.23-1.57,1.04-2.9,1.84-4.23Z"/>
      <path class="cls-1" d="M52.51,7.02c.4,1.25.67,2.36.67,3.52,0,.63-.14,1.22-.49,1.75-.34.52-.7.5-1.02-.03-.45-.76-.49-1.59-.35-2.44.16-.97.61-1.83,1.19-2.8Z"/>
      <path class="cls-1" d="M88.69,24.63c.9,1.18,1.76,2.08,2.09,3.32.18.7-.21,2.07-.52,1.97-.68-.2-1.07-.77-1.28-1.43-.38-1.18-.32-2.4-.29-3.86Z"/>
      <path class="cls-1" d="M15.85,24.94c.06,1.17.16,2.34-.21,3.47-.22.68-.71,1.57-1.32,1.41-.6-.16-.54-1.19-.4-1.87.26-1.22,1.11-2.09,1.93-3.01Z"/>
      <path class="cls-1" d="M80.21,20.96c.8-1.21,1.65-2.09,3.01-2.28.3-.04.68-.16.86.11.16.24-.1.52-.23.77-.77,1.46-2.13,1.41-3.64,1.4Z"/>
      <path class="cls-1" d="M20.36,18.77c1.63-.23,2.97.49,3.94,2.1-1.88.35-3.2-.33-3.94-2.1Z"/>
    </g>
  </g>
</svg>