<?xml version="1.0" encoding="UTF-8"?>
<svg id="Layer_2" data-name="Layer 2" xmlns="http://www.w3.org/2000/svg" xmlns:xlink="http://www.w3.org/1999/xlink" viewBox="0 0 104.95 107.96">
  <defs>
    <style>
      .cls-1 {
        clip-path: url(#clippath);
      }

      .cls-2 {
        fill: none;
      }

      .cls-2, .cls-3 {
        stroke-width: 0px;
      }

      .cls-4 {
        clip-path: url(#clippath-1);
      }

      .cls-5 {
        clip-path: url(#clippath-2);
      }

      .cls-3 {
        fill: #225b55;
      }
    </style>
    <clipPath id="clippath">
      <rect class="cls-2" width="104.95" height="107.95"/>
    </clipPath>
    <clipPath id="clippath-1">
      <rect class="cls-2" x="48.07" width="4" height="7.75"/>
    </clipPath>
    <clipPath id="clippath-2">
      <rect class="cls-2" x="52.07" width="4" height="7.75"/>
    </clipPath>
  </defs>
  <g id="Layer_1-2" data-name="Layer 1">
    <g>
      <g class="cls-1">
        <path class="cls-3" d="M94.2,52.22c-.86,1.2-1.91,2.19-3.26,3.1,1.48.19,2.83.45,4.1,1.03.14.06.25.08.36-.07.98-1.32,2.39-1.23,3.76-1.03,1.94.29,3.6,1.29,5.43,2.32-2.09.7-4,1.44-6.1,1.18-1.18-.15-2.22-.61-2.88-1.66-.18-.28-.39-.34-.68-.39-2.14-.41-4.25-.21-6.34.22-3.71.77-7.25.19-10.67-1.3-1.07-.47-2.14-.98-3.17-1.54-7.18-3.84-12.65.84-14.47,5.78-1.97,5.33-.6,11.34,3.38,14.82,2.47,2.16,5.44,3.09,8.61,3.4,3.31.32,6.52.92,9.6,2.26,2.83,1.23,5.75.97,8.63.01,1.09-.36,2.16-.79,3.3-.97,1.22-.2,2.41-.15,3.52.44.37.19.71.41.98.92-.86-.21-1.54-.55-2.3-.61-1.47-.14-2.83.28-4.16.83-1.97.82-3.97,1.56-6.15,1.59-.67.01-1.34,0-2.03,0-.03.29.24.39.42.54,2.31,1.98,5.01,2.91,8.03,2.97,1.82.04,3.65-.07,5.44.34,1.65.38,2.98,1.26,3.97,2.64.16.23.43.45.23.83-.08-.04-.17-.05-.22-.1-1.8-1.96-4.07-2.55-6.64-2.36-2.16.16-4.31.18-6.47-.14,1.71,1.26,3.63,1.5,5.75,1.07-.21.59-.67.62-1.03.71-2.15.52-4.1.04-5.93-1.14-1.7-1.09-3.26-2.39-4.82-3.65-1.44-1.16-3.03-2.01-4.87-2.34-.53-.09-1.04-.08-1.69-.07,1.15,1.9,2.31,3.57,4.39,4.38,1.39.54,2.76,1.11,3.79,2.26.24.27.5.53.71.83.15.21.53.44.28.69-.27.26-.48-.16-.67-.31-1.33-1.06-2.81-1.84-4.46-2.28-1.81-.48-3.32-1.42-4.54-2.87-.9-1.08-1.96-2-3.23-2.65-.87-.44-1.78-.66-2.76-.51-.68.1-.91.43-.68,1.1.88,2.64,2.63,4.4,5.28,5.22,1.07.33,2.17.57,3.26.8,2.13.44,4.03,1.29,5.78,2.59,1.83,1.37,3.85,2.3,6.21,2.21,1.16-.05,2.24-.38,3.34-.76-.88,1.14-2.08,1.64-3.47,1.76-2.25.2-4.23-.61-6.16-1.65-1.84-1-3.64-2.12-5.76-2.47-.58-.1-1.16-.16-1.82-.24.28.53.75.68,1.16.87,2.61,1.19,4.83,2.89,6.8,4.98,2.63,2.78,4.46,3.07,7.98,1.58.04-.02.1.02.28.05-.92,1.06-2.09,1.44-3.34,1.58-1.93.21-3.59-.42-5.03-1.69-.59-.52-1.14-1.08-1.7-1.64-1.13-1.12-2.41-2.01-3.84-2.69-1.33-.64-2.67-1.24-3.97-1.99.7,1.76,1.67,3.26,3.37,4.2.86.47,1.73.93,2.55,1.47.61.41,1.2.9,1.2,1.81-1.15-1.43-2.91-1.59-4.41-2.26-1.24-.55-2.24-1.39-2.94-2.55-1.52-2.55-3.33-4.84-5.57-6.81-.94-.82-1.59-1.89-2.22-2.94-1.01-1.67-2.26-3.06-4.03-3.94-.63-.3-1.13-.8-1.69-1.31-.57,1.8-.42,3.4.74,4.82.31.39.64.81,1.03,1.1,1.89,1.38,3.26,3.11,4.07,5.33.39,1.07,1.31,1.64,2.36,1.98,1.19.4,2.28.97,3.03,2.02.2.28.45.55.43.93-.27.08-.38-.07-.49-.18-.9-.85-1.95-1.42-3.16-1.66-1.46-.29-2.48-1.07-3.17-2.38-.39-.74-.84-1.45-1.38-2.17.39,1.2-.15,2.29-.29,3.42-.18,1.37.53,2.52,1.93,3.24,1.28.66,2.69.96,4.06,1.35,1.37.39,2.76.76,4.06,1.35,2.56,1.19,4.41,2.97,4.81,5.92.13.97.02,1.93-.64,2.88-.17-.44.02-.71.05-.99.13-1.49-.25-2.83-1.15-4.03-1.57-2.08-5.31-3.79-7.84-3.53,1.84,1.9,3.29,3.9,2.48,6.71-.05-3.15-1.99-4.97-4.44-6.47-.95-.59-1.88-1.23-2.8-1.86-.89-.61-1.62-1.38-2.18-2.44-.69,1.1-1.53,1.97-2.13,3.02-.69,1.22-.63,2.35.25,3.44.42.52.86,1.03,1.29,1.55.84,1.04,1.47,2.19,1.63,3.54.07.61.02,1.2-.53,1.92.31-2.53-1.06-4.02-2.56-5.43-2.53-2.38-2.69-3.66-.82-6.57.17-.26.34-.51.51-.77,1.81-2.79,1.83-5.15-.1-7.88-1.68-2.38-3.13-4.85-3.94-7.66-.19-.64-.36-1.28-.62-1.91-.63,1.99-.88,4.01-.73,6.08.15,2.01.68,3.92,1.59,5.71,1.23,2.41,1.44,4.87.31,7.37-.71,1.57-.72,3.2-.57,4.86.17,1.86-.09,3.64-1.14,5.23-.12.19-.26.37-.4.54-1,1.21-1.59,1.2-2.59-.04-1.49-1.84-1.68-3.99-1.4-6.21.18-1.4.15-2.78-.48-4.03-1.39-2.79-1.08-5.46.33-8.13,2-3.79,1.96-7.74.89-11.79-.28.11-.27.35-.32.55-.85,3.29-2.27,6.32-4.3,9.05-.56.75-.98,1.56-1.28,2.45-.59,1.81-.45,3.53.55,5.17.54.89,1.13,1.75,1.61,2.66.86,1.61.7,2.87-.52,4.24-.43.48-.9.92-1.36,1.38-1.35,1.34-2.44,2.79-2.1,4.9-.47-.15-.49-.49-.53-.82-.16-1.26.2-2.38.85-3.43.55-.89,1.29-1.63,1.93-2.44,1.02-1.3,1.09-2.32.18-3.69-.6-.91-1.31-1.74-2.04-2.7-1.41,2.36-3.84,3.44-5.97,4.9-2.25,1.54-3.05,2.98-3.23,5.79-.44-.32-.44-.77-.44-1.19.02-1.97.91-3.54,2.24-4.92.17-.18.36-.35.54-.53.02-.02,0-.05.01-.08-1.54-.33-4.57.68-6.48,2.16-2.03,1.57-2.81,3.63-2.41,6.18-.76-.99-.77-2.11-.56-3.22.45-2.42,2.02-4.01,4.1-5.14,1.67-.9,3.51-1.32,5.31-1.83,1.08-.3,2.17-.56,3.19-1.05,1.89-.91,2.55-2.35,1.94-4.35-.23-.76-.29-1.5-.3-2.33-.39.67-.8,1.33-1.15,2.02-.66,1.27-1.63,2.09-3.06,2.39-1.35.29-2.56.91-3.54,2.07-.19-.54.08-.81.27-1.08.68-.99,1.65-1.63,2.76-1.96,1.49-.46,2.44-1.39,2.93-2.86.52-1.56,1.51-2.8,2.83-3.78.52-.39.99-.83,1.44-1.29,1.48-1.49,1.93-3.23,1.17-5.32-1.86,1.49-4.11,2.43-5.32,4.64-1.01,1.83-2.36,3.4-3.91,4.81-1.46,1.33-2.62,2.93-3.6,4.63-1.11,1.91-2.66,3.22-4.78,3.86-1.19.36-2.38.75-3.32,1.98-.06-.8.24-1.12.55-1.44.71-.74,1.63-1.19,2.55-1.6,1.71-.77,2.93-2.03,3.8-3.66.1-.2.2-.4.29-.6.04-.1.05-.21.12-.48-2.63,1.61-5.54,2.44-7.68,4.6-.89.89-1.74,1.82-2.84,2.48-2.05,1.24-4.16,1.41-6.32.33-.43-.21-.83-.47-1.06-.92.27-.2.43.05.6.14,2.35,1.11,4.57.95,6.58-.77.74-.64,1.44-1.33,2.12-2.04,1.32-1.37,2.8-2.49,4.53-3.29.75-.35,1.48-.74,2.13-1.32-1.4-.06-2.74.2-4.03.74-1.19.5-2.3,1.17-3.43,1.79-1.97,1.08-4.01,1.86-6.32,1.65-1.46-.14-2.6-.71-3.36-1.81.67.22,1.25.45,1.85.6,2.54.61,4.93.03,6.93-1.48,2.64-2,5.6-2.98,8.78-3.57,3.21-.6,5.36-2.51,6.54-5.55.25-.65.1-.9-.54-1.06-1.11-.28-2.11,0-3.08.48-1.17.59-2.17,1.4-2.99,2.42-1.27,1.56-2.84,2.58-4.79,3.09-1.61.43-3.06,1.22-4.35,2.29-.18.15-.32.41-.64.33-.16-.3.09-.47.22-.66,1.03-1.53,2.51-2.46,4.21-3.05,2.21-.77,3.51-2.46,4.67-4.45-1.33-.16-2.47.22-3.59.65-1.57.59-2.87,1.62-4.14,2.69-1.24,1.05-2.54,2.03-3.93,2.89-1.78,1.08-3.69,1.45-5.72.95-.36-.09-.77-.16-1.09-.68,2.18.33,4.17.16,5.95-1.14-.47.05-.95.09-1.43.14-1.85.21-3.7.08-5.55.02-2.23-.08-4.23.44-5.77,2.18-.1.11-.22.26-.48.17.28-.89.89-1.52,1.57-2.08,1.67-1.38,3.69-1.52,5.71-1.57,1.93-.05,3.87.05,5.76-.55,1.87-.59,3.55-1.48,5.05-3.01-1.08-.03-2.02.09-2.94-.02-1.48-.18-2.91-.57-4.28-1.17-2.35-1.04-4.72-1.84-7.33-.51.41-.89,1.49-1.44,2.77-1.52,1.29-.08,2.51.21,3.7.63,1.11.39,2.22.79,3.38,1.02,2.03.39,4.07.4,5.96-.42,3.52-1.52,7.21-2.14,10.98-2.61,3.85-.48,7.22-2.02,9.57-5.3,3.8-5.29,3.1-12.84-1.58-17.3-2.9-2.76-6.74-3.39-10.52-1.69-1.86.84-3.64,1.85-5.56,2.56-3.55,1.31-7.13,1.3-10.77.5-1.35-.3-2.73-.23-4.1-.1-.54.06-.94.26-1.31.74-.98,1.32-2.47,1.56-4,1.47-1.63-.09-3.16-.64-4.88-1.21,2.44-1.27,4.62-2.74,7.41-2.39.6.07,1.21.23,1.58.7.34.43.6.41,1.04.24,1.1-.44,2.28-.58,3.68-.8-1.39-.84-2.32-1.91-3.33-2.9-.19-.19-.33-.09-.52,0-1.11.52-2.09.18-2.94-.57-1.21-1.08-1.98-2.47-2.8-4.09,1.84.5,3.59.71,5.06,1.75.72.51,1.19,1.19,1.15,2.12-.01.22-.05.41.21.57,1.01.65,1.98,1.36,3,2.01,3.13,1.98,6.4,1.68,9.7.52,1.54-.54,2.95-1.34,4.33-2.22,1.81-1.15,3.71-2.08,5.8-2.59.13-.03.24-.1.49-.21-3.35-.81-5.89-2.67-8.01-5.16-.18-.21-.37-.32-.65-.32-2.78.03-5.26-.97-7.68-2.2-2.09-1.06-4.28-1.81-6.66-1.84-.26,0-.56-.1-.75.22-1.07,1.79-2.83,2.26-4.73,2.43-1.11.1-2.23.02-3.51-.08,1.14-1.59,2.21-3.09,3.86-3.99,1.58-.86,3.29-.52,4.45.83.19.22.35.22.58.18,2.56-.51,4.95.14,7.32.99,1.71.61,3.45,1.14,5.27,1.39.38.05.76.11,1.15.02-3.11-5.6-7.69-8.9-14.15-9.35-.51-.03-.8.01-1.01.63-.42,1.25-1.52,1.73-2.76,1.88-1.97.22-3.72-.54-5.63-1.34,2.17-1.26,4.24-2.7,6.71-2.05,1.38.37,2.65.35,3.99.3,1.08-.04,2.15.14,3.4.27-1.17-1.11-2.08-2.18-2.79-3.52.28-.03.35.13.44.23,1.21,1.52,2.68,2.73,4.4,3.6,3.6,1.81,6.38,4.51,8.7,7.74,1.88,2.61,4.23,4.7,7.14,6.13.72.36,1.5.55,2.5.78-1.48-1.53-2.32-3.19-2.99-4.95-1.35.66-2.54.27-3.43-1.13-.81-1.29-1.27-2.73-1.65-4.24,1.58,1.01,3.43,1.64,4.62,3.15.74.95,1.06,2.18,1.83,3.17,1.51,1.93,3.26,3.46,5.56,4.34,3.01,1.15,5.81,2.63,8.09,5.2.33-1.86.23-3.57-.05-5.28-.83-4.88-3.54-8.65-6.99-11.99-2.78-2.69-5.83-4.91-9.72-5.69-.1-.02-.2-.04-.4-.08.63,1.29,1.2,2.49,1.44,3.82.17.9.02,1.74-.44,2.52-.53.89-1.28.96-1.98.19-.66-.73-.93-1.58-.77-2.57.21-1.23.66-2.38,1.29-3.44.3-.51.17-.64-.35-.74-1.94-.39-3.95-.53-5.79-1.33-.16-.07-.31-.13-.48-.19,1.03-.68,3.45-1.21,4.45-.99,1.02.22,1.32.81.86,1.84.65.03,1.28.05,1.9.09.61.04,1.21.11,2.01.18-1.64-1.76-3.1-3.66-4.4-5.68-.84-1.29-1.67-2.59-2.69-3.76-1.96-2.24-4.39-3.7-7.32-4.31-.11-.02-.22-.05-.32-.09-.04-.02-.07-.08-.1-.11,1.68-.55,5.14.81,8.67,3.43-.2-1.54-.36-3.02-.12-4.52.6,3.38,1.8,6.48,3.9,9.2,2.09,2.71,4.65,4.9,7.52,6.97-.38-1.82-.82-3.47-.83-5.3.41.38.4.82.48,1.2.63,3.07,2.16,5.53,4.72,7.39,2.47,1.79,4.8,3.76,6.93,6.18.08-2.17-.23-4.13-.83-6.05-1.32-4.23-3.97-7.55-7.15-10.52-2.45-2.29-5.02-4.39-8.27-5.48-1.63-.55-3.31-.83-5.01-.99,3.36-.72,6.41.29,9.41,1.78.02-.48-.22-.77-.36-1.09-.71-1.68-.98-3.44-.87-5.26.02-.31.13-.58-.31-.73-2.01-.72-2.96-2.28-3.35-4.28-.23-1.18-.32-2.37-.2-3.71,1.63,1.11,3.25,2.03,4.41,3.56.88,1.15,1.14,3.24-.03,4.51-.17.18-.12.36-.08.55.67,3.36,2.13,6.31,4.71,8.62,1.21,1.08,2.48,2.1,3.71,3.16,1.91,1.65,3.74,3.37,5.29,5.59.42-2.33.17-4.42-.71-6.44-.74-1.7-1.69-3.29-2.64-4.88-1.53-2.57-2.17-5.27-1.32-8.21.14-.48.27-.96.67-1.52-.07.54-.12.93-.19,1.32-.41,2.32.07,4.48,1.31,6.44,1.1,1.76,2.3,3.44,3.56,5.32.38-1.61.49-3.07.34-4.52-.4-3.77-2.26-6.94-4.26-10.04-.14-.2-.29-.4-.6-.37-1.71.16-2.74-.83-3.46-2.19-.73-1.39-1.11-2.92-1.41-4.57,1.45.75,2.83,1.42,4.02,2.42,1.11.94,1.61,2.13,1.31,3.59-.07.32-.02.53.2.75,2.34,2.39,4.16,5.12,5.39,8.24,0,.02.05.02.13.05,1.1-3.18,2.96-5.87,5.34-8.22.23-.23.19-.4.13-.66-.45-1.84.24-3.24,1.76-4.27,1.06-.72,2.2-1.31,3.51-1.86-.4,1.91-.76,3.72-1.81,5.29-.67.99-1.64,1.54-2.86,1.45-.33-.02-.53.07-.69.32-2.46,3.88-4.6,7.86-4.14,12.69.05.58.14,1.16.23,1.96,1.89-3.17,4.52-5.68,5.07-9.35.17-1.14-.13-2.22-.18-3.34.74,1.32,1.02,2.73.88,4.23-.16,1.68-.74,3.21-1.57,4.66-1.06,1.85-2.17,3.67-2.95,5.66-.75,1.91-.87,3.86-.63,5.91.09-.05.18-.06.22-.11,2.03-2.73,4.56-4.93,7.21-7.03,2.41-1.9,4.51-4.05,5.57-7.02.24-.68.43-1.39.61-2.09.18-.69.24-1.29-.28-2-.87-1.18-.53-3.1.57-4.36,1.13-1.3,2.58-2.2,4.07-3.28.12,2.14.06,4.09-.93,5.9-.54.97-1.36,1.64-2.37,2.06-.31.13-.51.2-.46.63.24,2.23-.22,4.35-1.31,6.53,3.14-1.45,6.2-2.58,9.58-1.83-7.81.47-12.89,5.34-17.4,10.97-2.76,3.44-4.02,7.49-4.02,11.95.36,0,.47-.27.64-.44,1.76-1.85,3.6-3.63,5.69-5.1,2.9-2.05,4.88-4.67,5.52-8.21.04-.24.05-.51.29-.73.13.59.04,1.15-.05,1.7-.08.55-.19,1.1-.31,1.65-.12.57-.26,1.14-.44,1.89,5.74-4.15,10.44-8.8,11.43-16.11.23,1.45.1,2.88-.13,4.31.36.03.51-.26.7-.42,2.34-1.97,5.05-2.96,8.1-3.04.19,0,.36.05.52-.16.8-1.07,1.95-1.15,3.11-.98,1.52.22,2.88.86,4.34,1.72-1.84.86-3.49,1.86-5.52,1.65-1.03-.11-1.82-.61-2.09-1.66-.13-.51-.41-.34-.69-.29-3.45.69-6.24,2.42-8.29,5.29-1.54,2.17-2.83,4.52-4.57,6.55-.51.59-1.03,1.18-1.65,1.89l3.87-.21c-.42-1.06-.03-1.7,1.15-1.86,1.48-.2,2.76.49,4.29.94-1.45.57-2.73.99-4.1,1.2-2.24.34-4.45.82-6.58,1.64-3.01,1.17-5.33,3.29-7.57,5.49-3.25,3.2-5.57,6.94-6.3,11.53-.26,1.64-.41,3.28-.05,4.93.06,0,.13,0,.16-.02,2.11-2.31,4.71-3.86,7.65-4.88,3.16-1.09,5.28-3.39,7.08-6.07.09-.14.15-.3.17-.46.14-1.01.74-1.69,1.55-2.19,1.2-.76,2.44-1.45,3.71-2.08-.67,1.83-.95,3.84-2.67,5.11-.74.55-1.56.79-2.41.04-.76,1.79-1.52,3.51-2.92,4.97.72.06,1.24-.2,1.76-.42,2.87-1.23,5.16-3.22,7.13-5.61.88-1.06,1.68-2.18,2.58-3.22,1.47-1.71,3.15-3.19,5.13-4.3,2.27-1.28,4.56-2.53,6.17-4.7-.53,1.28-1.35,2.33-2.45,3.35.74-.07,1.36-.16,1.99-.19.62-.04,1.24-.09,1.85-.01,1.17.15,2.29.28,3.4-.34.54-.3,1.21-.17,1.82-.06,1.74.31,3.23,1.17,4.8,2.16-1.79.74-3.46,1.46-5.34,1.31-1.64-.13-2.38-.69-2.9-2.27-.17-.51-.57-.27-.84-.26-3.83.15-7.2,1.49-10.11,4.01-1.73,1.51-2.93,3.42-4.29,5.36,1.41.1,2.66-.23,3.88-.57,1.56-.44,3.1-.97,4.65-1.45,1.73-.54,3.49-.8,5.31-.4.2.04.36.11.56-.14,1.05-1.32,2.48-1.68,4.05-1.09.53.2,1.01.48,1.44.85,1.1.93,1.99,2.03,2.85,3.35-2.36.16-4.61.3-6.72-.79-.48-.24-.94-.58-1.16-1.07-.32-.69-.83-.76-1.49-.72-2.03.1-3.89.78-5.69,1.65-2.18,1.04-4.34,2.22-6.8,2.29-1.48.04-2.45.66-3.4,1.69-1.79,1.93-4.06,3.15-6.59,3.88.13.35.43.26.65.33,1.92.56,3.68,1.48,5.4,2.49,2.2,1.29,4.45,2.47,7.02,2.92,2.91.51,5.58.07,7.98-1.7.59-.43,1.18-.86,1.78-1.28.19-.13.34-.42.65-.23l-.02-.03ZM52.18,88.59c-.7.97-1.18,1.91-1.65,2.86-.64,1.28-.74,2.59-.18,3.9.77,1.81.76,3.61.3,5.49-.62,2.56-.26,4.97,1.56,7.04,1.67-1.91,2.32-4.11,1.72-6.51-.56-2.26-.58-4.4.33-6.56.38-.9.26-1.87-.13-2.79-.49-1.19-1.17-2.28-1.95-3.44Z"/>
      </g>
      <path class="cls-3" d="M79.95,63.24c-1.92-.33-3.66-.6-5.3-1.28s-2.79-1.81-3.26-3.58c-.2-.78.1-1.1.78-1.28,1.89-.5,3.49.02,4.82,1.4,1.27,1.33,2.09,2.95,2.96,4.74Z"/>
      <path class="cls-3" d="M24.67,63.32c.81-1.76,1.61-3.32,2.78-4.66,1.26-1.44,2.8-2.11,4.72-1.6.95.25,1.11.49.86,1.44-.43,1.61-1.48,2.73-2.98,3.42-1.67.76-3.48.97-5.38,1.4Z"/>
      <path class="cls-3" d="M24.46,29.7c.97,1.67,2.33,2.96,2.64,4.84.19,1.09-.16,2.04-.9,2.85-.44.47-.94.58-1.51.24-1.02-.61-1.68-1.45-1.74-2.69-.09-1.86.67-3.47,1.51-5.24Z"/>
      <path class="cls-3" d="M99.68,64.2c-2.17-.56-4.21-.94-6.05-1.94-.83-.45-1.44-1.13-1.86-1.99-.24-.5-.19-.8.34-1.07,1.44-.73,2.83-.67,4.09.32,1.53,1.2,2.44,2.87,3.47,4.68Z"/>
      <path class="cls-3" d="M5.03,64.13c1.07-1.91,1.92-3.76,3.72-4.9,1.24-.79,2.53-.72,3.83-.08.46.23.58.49.34.99-.55,1.11-1.45,1.82-2.54,2.33-1.65.77-3.39,1.21-5.34,1.66Z"/>
      <path class="cls-3" d="M34.24,33.77c1.49,1.05,2.79,2.07,3.73,3.45.78,1.14.97,2.36.32,3.65-.27.52-.6.67-1.16.46-1.14-.42-2.01-1.14-2.46-2.26-.67-1.66-.65-3.39-.44-5.3Z"/>
      <path class="cls-3" d="M85.57,23.58c.7,1.51,1.36,2.8,1.63,4.24.28,1.56-.26,2.79-1.52,3.73-.58.44-1.07.36-1.54-.17-.78-.88-1.09-1.88-.77-3.03.47-1.65,1.39-3.09,2.2-4.78Z"/>
      <path class="cls-3" d="M79.99,29.74c.79,1.69,1.56,3.23,1.58,5.03.01,1.2-.61,2.08-1.51,2.78-.57.44-1.11.2-1.58-.24-1.05-1.01-1.3-2.6-.53-4.13.58-1.14,1.3-2.21,2.03-3.43Z"/>
      <path class="cls-3" d="M19.03,23.55c.85,1.74,1.82,3.28,2.23,5.05.24,1.05-.07,1.99-.8,2.79-.47.51-.98.6-1.56.17-1.26-.94-1.78-2.18-1.47-3.74.29-1.46.91-2.8,1.59-4.27Z"/>
      <path class="cls-3" d="M70.45,33.71c.1,1.89.19,3.57-.34,5.2-.41,1.27-1.3,2.03-2.57,2.41-.51.15-.8-.01-1.02-.44-.64-1.24-.46-2.44.23-3.58.89-1.46,2.24-2.44,3.71-3.58Z"/>
      <path class="cls-3" d="M7.32,22.11c1.44.9,2.8,1.62,3.89,2.73.82.83,1.33,1.79,1.19,3.01-.08.73-.44,1.11-1.19,1.14-1.22.03-2.07-.62-2.7-1.58-1.02-1.56-1.24-3.32-1.19-5.3Z"/>
      <path class="cls-3" d="M97.14,22.87c-.05,1.39-.22,2.69-.77,3.91-.45.98-1.14,1.72-2.17,2.09-1.21.44-2.03-.12-2.07-1.39-.03-.96.36-1.73.97-2.42,1.02-1.15,2.31-1.94,3.61-2.69.71-.41.28.38.42.5Z"/>
      <path class="cls-3" d="M9.56,15.88c1.65-.86,3.15-1.66,4.89-1.78.86-.06,1.67.09,2.38.62.77.58.85,1.19.19,1.9-1.03,1.1-2.34,1.09-3.67.81-1.29-.28-2.47-.86-3.79-1.55Z"/>
      <path class="cls-3" d="M31.94,18.08c1.4,1.01,2.68,1.84,3.7,3.01.66.76.93,1.64.81,2.64-.13,1.08-.72,1.47-1.74,1.12-1.25-.42-1.94-1.37-2.29-2.59-.37-1.3-.42-2.64-.49-4.18Z"/>
      <path class="cls-3" d="M40.47,39.1c1.5,1.04,2.86,1.91,3.93,3.17.76.9,1.15,1.91.84,3.11-.15.6-.41.85-1.07.64-1.32-.41-2.25-1.24-2.8-2.47-.6-1.35-.81-2.78-.89-4.44Z"/>
      <path class="cls-3" d="M64.19,39.12c-.16,1.49-.33,2.84-.82,4.13-.57,1.49-1.66,2.42-3.18,2.87-.49.15-.76.05-.88-.52-.26-1.17.02-2.19.73-3.08,1.11-1.39,2.59-2.35,4.15-3.4Z"/>
      <path class="cls-3" d="M72.51,18.15c-.04,1.7-.14,3.23-.68,4.68-.43,1.15-1.24,1.9-2.49,2.13-.57.1-.91-.11-1.11-.63-.46-1.17-.19-2.2.58-3.12,1-1.19,2.26-2.08,3.7-3.06Z"/>
      <path class="cls-3" d="M12.42,23.13c.7-1.4,1.35-2.61,2.33-3.6.8-.81,1.72-1.37,2.93-1.03.38.1.57-.1.81-.3.63-.51,1.21-1.12,2.23-1.3-.46.82-.89,1.42-1.69,1.61-.43.1-.59.26-.53.79.12,1.2-.62,2.01-1.59,2.55-1.33.75-2.83.97-4.48,1.27Z"/>
      <path class="cls-3" d="M92.17,23.01c-1.63-.15-3.04-.43-4.35-1.06-1.4-.68-1.82-1.45-1.63-2.99.06-.47-.35-.32-.48-.36-.88-.26-1.4-.82-1.75-1.76.94.28,1.63.78,2.27,1.36.26.24.51.4.89.33,1-.18,1.8.23,2.52.87,1.09.96,1.76,2.22,2.55,3.61Z"/>
      <path class="cls-3" d="M95.47,46.91c-2.04-.64-3.99-1.04-5.43-2.55-.14-.14-.26-.3-.36-.46-.36-.59-.67-1.24-.15-1.86.54-.64,1.3-.59,2.01-.3.38.16.72.42,1.04.69,1.34,1.17,2.12,2.69,2.89,4.48Z"/>
      <path class="cls-3" d="M9.17,46.77c.75-1.8,1.61-3.46,3.15-4.67.96-.75,2.11-.78,2.66-.12.52.61.26,1.7-.59,2.53-.92.9-3.56,2.06-5.22,2.26Z"/>
      <path class="cls-3" d="M94.22,52.26c-.24-1.71.7-2.67,2.13-3.29,1.21-.53,2.47-.84,3.98-1.06-.95,1.64-1.65,3.24-3.17,4.27-.97.65-1.97.63-2.97.05l.03.03Z"/>
      <path class="cls-3" d="M65.86,22.91c.17,1.56.17,2.93.02,4.29-.14,1.29-.86,2.21-2.02,2.79-.81.4-1.17.24-1.41-.64-.23-.88-.05-1.71.4-2.49.8-1.39,1.91-2.53,3-3.94Z"/>
      <path class="cls-3" d="M65.93,7.03c-.65,1.42-1.26,2.68-2.15,3.76-.54.66-1.19,1.19-2.11,1.2-1.04.01-1.59-.68-1.38-1.7.17-.83.68-1.4,1.39-1.8,1.27-.73,2.69-1.04,4.26-1.46Z"/>
      <path class="cls-3" d="M27.13,6.88c.36,1.53.64,2.95.58,4.41-.02.45-.11.89-.3,1.3-.41.9-1.16,1.32-1.92,1.09-.71-.21-1.2-1.08-1.08-1.96.07-.53.24-1.04.48-1.52.59-1.17,1.33-2.24,2.24-3.33Z"/>
      <path class="cls-3" d="M38.77,23.09c1.13,1.27,2.23,2.49,3.02,3.96.42.78.52,1.59.18,2.43-.23.54-.56.78-1.18.49-1.04-.48-1.71-1.26-1.95-2.36-.32-1.49-.15-2.99-.06-4.52Z"/>
      <path class="cls-3" d="M77.4,6.91c1.04,1.33,1.9,2.63,2.45,4.1.06.16.1.32.14.48.21.96-.33,2.02-1.15,2.27-.65.2-1.57-.44-1.9-1.33-.31-.84-.24-1.7-.12-2.57.14-.96.31-1.91.59-2.95Z"/>
      <path class="cls-3" d="M87.81,9.34c-.65,1.51-1.11,2.86-2.04,3.97-.53.64-1.18,1.12-2.05,1.17-.94.06-1.51-.6-1.36-1.54.11-.73.53-1.29,1.1-1.72,1.23-.95,2.71-1.36,4.35-1.88Z"/>
      <path class="cls-3" d="M38.78,6.94c1.49.46,2.84.82,4.05,1.53.62.36,1.13.81,1.39,1.52.22.58.26,1.16-.2,1.64-.47.49-1.07.43-1.64.26-.67-.2-1.15-.67-1.56-1.21-.82-1.1-1.42-2.33-2.03-3.73Z"/>
      <path class="cls-3" d="M74.47,30.04c.83,1.45,1.48,2.77,1.61,4.28.07.84-.22,1.55-.8,2.14-.65.67-1.25.62-1.83-.11-.68-.86-.61-1.84-.4-2.81.27-1.18.83-2.24,1.42-3.49Z"/>
      <path class="cls-3" d="M16.7,9.27c1.57.6,3.02,1.02,4.26,1.89.59.41,1.04.94,1.19,1.67.22,1.15-.53,1.86-1.66,1.59-.54-.13-.97-.42-1.35-.8-1.16-1.18-1.74-2.68-2.43-4.34Z"/>
      <path class="cls-3" d="M18.62,48.03c1.65-.93,3.16-1.69,4.95-1.56.94.07,2.42.93,2.42,1.44,0,.53-1.44,1.38-2.42,1.44-1.73.1-3.3-.45-4.95-1.32Z"/>
      <path class="cls-3" d="M85.77,48.13c-1.63.74-3.11,1.26-4.74,1.21-.17,0-.33-.02-.5-.04-.91-.15-2.03-.97-1.99-1.45.03-.47,1.24-1.29,2.08-1.36,1.88-.17,3.46.64,5.16,1.64Z"/>
      <path class="cls-3" d="M14.98,60.36c1.89-.89,3.56-2.39,5.88-1.97.62.11,1.33.29,1.44.95.11.7-.59.99-1.13,1.29-.68.38-1.45.4-2.2.38-1.36-.02-2.69-.23-3.98-.65Z"/>
      <path class="cls-3" d="M59.44,17.42c.18,1.63.31,2.99.27,4.35-.03,1.17-.53,2.1-1.53,2.73-.79.49-1.44.15-1.52-.77-.07-.78.17-1.49.46-2.19.58-1.39,1.38-2.65,2.31-4.12Z"/>
      <path class="cls-3" d="M45.23,17.66c.99,1.67,2.24,3.2,2.72,5.15.09.36.15.72.06,1.08-.18.76-.79,1.03-1.45.64-1.15-.68-1.63-1.75-1.67-3.03-.04-1.26,0-2.52,0-3.78l.34-.06Z"/>
      <path class="cls-3" d="M89.59,60.41c-1.88.48-3.56.71-5.27.51-.67-.08-1.3-.35-1.77-.87-.51-.55-.45-.98.21-1.35.7-.4,1.48-.53,2.27-.36,1.61.33,2.99,1.16,4.56,2.07Z"/>
      <g class="cls-4">
        <path class="cls-3" d="M51.78.22c.02,1.59.08,2.93-.2,4.25-.15.7-.41,1.35-.97,1.82-.34.29-.72.58-1.21.35-.45-.2-.63-.6-.68-1.08-.09-.84.14-1.6.57-2.32.64-1.06,1.54-1.9,2.49-3.02Z"/>
      </g>
      <path class="cls-3" d="M30.19,9.27c1.01,1.1,1.81,2.13,2.35,3.34.11.26.18.53.21.81.12,1.05-.3,1.77-1.08,1.9-.67.11-1.57-.54-1.78-1.39-.37-1.54-.01-3.03.29-4.67Z"/>
      <g class="cls-5">
        <path class="cls-3" d="M52.82.34c.83.95,1.67,1.8,2.33,2.8.52.77.81,1.6.65,2.53-.08.46-.3.86-.77,1.02-.42.14-.75-.12-1.05-.38-.8-.69-1.07-1.64-1.15-2.62-.08-1.08-.02-2.17-.02-3.35Z"/>
      </g>
      <path class="cls-3" d="M93.6,35.53c-.94.96-1.79,1.71-2.79,2.29-.48.28-.99.51-1.56.57-.66.07-1.29-.08-1.55-.73-.27-.67.08-1.26.61-1.69.19-.16.43-.29.67-.34,1.48-.35,2.98-.33,4.63-.09Z"/>
      <path class="cls-3" d="M10.94,35.54c1.59-.22,3-.26,4.41.03.05.02.11.03.16.05,1.04.32,1.67,1.17,1.45,1.94-.22.75-1.13,1.03-2.22.64-1.45-.52-2.61-1.46-3.8-2.66Z"/>
      <path class="cls-3" d="M91.34,50.71c-.94,1.04-1.71,2.26-2.94,3.03-.61.39-1.26.62-1.98.38-1.05-.35-1.26-1.33-.44-2.07.31-.29.68-.51,1.09-.6,1.38-.33,2.77-.63,4.15-.94.04.07.08.14.12.21Z"/>
      <path class="cls-3" d="M74.33,9.29c.33,1.61.55,2.98.34,4.39-.03.16-.07.32-.13.48-.32.79-1.18,1.33-1.84,1.16-.67-.17-1.06-1.04-.85-1.95.17-.78.57-1.45,1.02-2.09.43-.61.89-1.2,1.46-1.97Z"/>
      <path class="cls-3" d="M13.2,50.45c1.83.37,3.44.53,4.91,1.24.91.43,1.27,1.17.96,1.79-.29.61-1.25.9-2.07.61-.84-.3-1.48-.88-2.06-1.53-.55-.61-1.05-1.28-1.73-2.11Z"/>
      <path class="cls-3" d="M19.65,52.26c1.47-.73,2.9-1.51,4.52-1.79,1.05-.19,2.35.31,2.48.94.1.54-.95,1.34-2.02,1.47-1.7.2-3.33-.24-4.97-.62Z"/>
      <path class="cls-3" d="M84.79,52.23c-1.42.36-2.81.66-4.25.7-.82.03-1.54-.2-2.17-.72-.68-.56-.64-1.06.16-1.47.45-.23.96-.36,1.46-.31,1.74.2,3.27.99,4.81,1.79Z"/>
      <path class="cls-3" d="M60.69,29.4c-.07,1.69-.08,3.13-.69,4.48-.27.6-.69,1.07-1.28,1.4-.71.39-1.17.17-1.33-.63-.11-.55.01-1.07.26-1.54.72-1.36,1.82-2.42,3.04-3.71Z"/>
      <path class="cls-3" d="M57.49,8.33c.46,1.4.95,2.59,1.06,3.88.06.74-.03,1.45-.47,2.09-.38.53-.79.57-1.26.14-.46-.43-.64-.97-.67-1.58-.08-1.6.53-3,1.34-4.52Z"/>
      <path class="cls-3" d="M43.78,29.56c1.07,1.08,2.02,1.94,2.77,2.99.44.61.65,1.3.52,2.05-.13.71-.56.93-1.21.61-.89-.44-1.35-1.22-1.64-2.13-.34-1.07-.35-2.19-.44-3.53Z"/>
      <path class="cls-3" d="M47.13,8.46c.7,1.23,1.18,2.39,1.39,3.64.1.65.07,1.29-.28,1.87-.21.36-.46.73-.96.71-.5-.02-.71-.4-.88-.79-.38-.83-.29-1.71-.09-2.56.22-.92.52-1.82.83-2.88Z"/>
      <path class="cls-3" d="M83.58,22.95c-1.39,1.06-2.42,2.17-3.89,2.66-.83.28-1.58.05-1.82-.54-.27-.67.16-1.49.99-1.79,1.45-.52,2.95-.41,4.71-.34Z"/>
      <path class="cls-3" d="M21.35,23.01c1.31-.13,2.59-.22,3.84.15.21.06.42.14.63.24.77.37,1.15,1.09.9,1.68-.25.61-1,.89-1.81.58-1.43-.54-2.44-1.65-3.56-2.65Z"/>
      <path class="cls-3" d="M41.05,12.56c.84,1.32,1.56,2.48,1.88,3.84.1.44.14.89.03,1.33-.08.34-.23.65-.62.72-.38.07-.66-.1-.88-.39-.45-.59-.69-1.28-.75-2.02-.09-1.13.05-2.23.34-3.49Z"/>
      <path class="cls-3" d="M63.58,12.58c.29,1.3.5,2.57.32,3.86-.09.68-.29,1.32-.82,1.79-.51.44-1,.29-1.24-.34-.13-.35-.15-.72-.09-1.08.22-1.57,1.04-2.9,1.84-4.23Z"/>
      <path class="cls-3" d="M52.51,7.02c.41,1.26.67,2.36.67,3.52,0,.63-.14,1.22-.49,1.74-.34.52-.7.51-1.02-.03-.46-.76-.49-1.59-.36-2.43.16-.97.61-1.83,1.19-2.81Z"/>
      <path class="cls-3" d="M88.69,24.63c.89,1.18,1.76,2.08,2.08,3.33.19.7-.2,2.06-.52,1.97-.68-.2-1.07-.77-1.28-1.44-.38-1.18-.33-2.4-.29-3.86Z"/>
      <path class="cls-3" d="M15.85,24.94c.06,1.18.16,2.34-.21,3.47-.22.68-.71,1.57-1.32,1.41-.6-.16-.54-1.19-.4-1.87.25-1.21,1.11-2.09,1.93-3.01Z"/>
      <path class="cls-3" d="M80.2,20.96c.8-1.21,1.65-2.09,3.02-2.28.3-.04.68-.16.85.11.16.23-.1.52-.23.76-.77,1.46-2.13,1.41-3.64,1.41Z"/>
      <path class="cls-3" d="M20.36,18.77c1.63-.23,2.97.49,3.93,2.1-1.88.36-3.2-.33-3.93-2.1Z"/>
    </g>
  </g>
</svg>