<?xml version="1.0" encoding="UTF-8"?>
<svg id="Layer_2" data-name="Layer 2" xmlns="http://www.w3.org/2000/svg" xmlns:xlink="http://www.w3.org/1999/xlink" viewBox="0 0 126.06 124.39">
  <defs>
    <style>
      .cls-1 {
        clip-path: url(#clippath);
      }

      .cls-2 {
        stroke-linecap: round;
        stroke-linejoin: round;
        stroke-width: 3.92px;
      }

      .cls-2, .cls-3 {
        fill: none;
      }

      .cls-2, .cls-3, .cls-4 {
        stroke: #609d9f;
      }

      .cls-3, .cls-4 {
        stroke-miterlimit: 10;
      }

      .cls-4 {
        fill: #609d9f;
      }
    </style>
    <clipPath id="clippath">
      <rect class="cls-3" x=".5" y="103.29" width="52" height="20.6"/>
    </clipPath>
  </defs>
  <g id="Layer_1-2" data-name="Layer 1">
    <g>
      <path class="cls-2" d="M117.75,28.83l2.39-2.39c3.06-3.08,3.06-8.04,0-11.09l-11.09-11.09c-3.06-3.06-8.02-3.06-11.09,0l-5.04,5.06"/>
      <path class="cls-2" d="M26.1,105.84v-11.76"/>
      <path class="cls-2" d="M122.37,40.82l-23.89,23.9c-2.49,2.49-6.6,2.24-8.78-.53l-26.39-33.59,24.94-24.95,33.59,26.39c2.77,2.18,3.02,6.29.52,8.78Z"/>
      <path class="cls-4" d="M35.9,47.04c0,.26-.05.51-.15.75-.1.24-.24.45-.42.64-.18.19-.4.33-.64.43s-.49.15-.75.15-.51-.05-.75-.15-.45-.24-.64-.43c-.19-.18-.33-.39-.43-.64-.1-.24-.15-.49-.15-.75s.05-.51.15-.75.24-.45.43-.64.4-.32.64-.42.49-.15.75-.15.51.05.75.15.45.24.64.42c.18.19.32.4.42.64.1.24.15.49.15.75Z"/>
      <path class="cls-4" d="M35.9,54.88c0,.26-.05.51-.15.75-.1.24-.24.45-.42.64-.18.18-.4.32-.64.42s-.49.15-.75.15-.51-.05-.75-.15-.45-.24-.64-.42-.33-.4-.43-.64-.15-.49-.15-.75.05-.51.15-.75.24-.45.43-.64c.18-.19.4-.33.64-.43s.49-.15.75-.15.51.05.75.15.45.24.64.43c.18.18.32.4.42.64.1.24.15.49.15.75Z"/>
      <path class="cls-4" d="M35.9,39.2c0,.26-.05.51-.15.75-.1.24-.24.45-.42.64s-.4.33-.64.43-.49.15-.75.15-.51-.05-.75-.15-.45-.24-.64-.43c-.19-.18-.33-.4-.43-.64s-.15-.49-.15-.75.05-.51.15-.75.24-.45.43-.64c.18-.18.4-.32.64-.43.24-.1.49-.15.75-.15s.51.05.75.15c.24.1.45.24.64.43s.32.4.42.64c.1.24.15.49.15.75Z"/>
      <path class="cls-4" d="M24.14,47.04c0,1.09.88,1.96,1.96,1.96s1.96-.88,1.96-1.96-.88-1.96-1.96-1.96-1.96.88-1.96,1.96Z"/>
      <path class="cls-4" d="M28.06,54.88c0,.26-.05.51-.15.75s-.24.45-.42.64c-.19.18-.4.32-.64.42-.24.1-.49.15-.76.15s-.51-.05-.75-.15c-.24-.1-.45-.24-.64-.42-.18-.19-.32-.4-.42-.64s-.15-.49-.15-.75.05-.51.15-.75.24-.45.42-.64.4-.33.64-.43c.24-.1.49-.15.75-.15s.51.05.76.15c.24.1.45.24.64.43s.32.4.42.64.15.49.15.75Z"/>
      <path class="cls-4" d="M28.06,39.2c0,.26-.05.51-.15.75s-.24.45-.42.64c-.19.18-.4.33-.64.43-.24.1-.49.15-.76.15s-.51-.05-.75-.15c-.24-.1-.45-.24-.64-.43-.18-.18-.32-.4-.42-.64s-.15-.49-.15-.75.05-.51.15-.75.24-.45.42-.64c.19-.18.4-.32.64-.43.24-.1.49-.15.75-.15s.51.05.76.15c.24.1.45.24.64.43.18.18.32.4.42.64s.15.49.15.75Z"/>
      <path class="cls-4" d="M16.3,47.04c0,1.09.88,1.96,1.96,1.96s1.96-.88,1.96-1.96-.88-1.96-1.96-1.96-1.96.88-1.96,1.96Z"/>
      <path class="cls-4" d="M20.22,54.88c0,.26-.05.51-.15.75s-.24.45-.43.64-.4.32-.64.42-.49.15-.75.15-.51-.05-.75-.15-.45-.24-.64-.42c-.18-.19-.32-.4-.42-.64-.1-.24-.15-.49-.15-.75s.05-.51.15-.75c.1-.24.24-.45.42-.64.18-.19.4-.33.64-.43s.49-.15.75-.15.51.05.75.15.45.24.64.43c.19.18.33.4.43.64s.15.49.15.75Z"/>
      <path class="cls-4" d="M26.1,60.76c-1.08,0-1.96.88-1.96,1.96s.88,1.96,1.96,1.96,1.96-.88,1.96-1.96-.88-1.96-1.96-1.96Z"/>
      <path class="cls-4" d="M20.22,62.72c0,.26-.05.51-.15.75s-.24.45-.43.64c-.18.18-.4.33-.64.43s-.49.15-.75.15-.51-.05-.75-.15-.45-.24-.64-.43-.32-.4-.42-.64c-.1-.24-.15-.49-.15-.75s.05-.51.15-.75c.1-.24.24-.45.42-.64s.4-.33.64-.43.49-.15.75-.15.51.05.75.15.45.24.64.43c.19.18.33.4.43.64s.15.49.15.75Z"/>
      <path class="cls-4" d="M12.38,54.88c0,.26-.05.51-.15.75s-.24.45-.43.64c-.18.18-.4.32-.64.42s-.49.15-.75.15-.51-.05-.75-.15-.45-.24-.64-.42c-.18-.19-.33-.4-.43-.64s-.15-.49-.15-.75.05-.51.15-.75.24-.45.43-.64c.18-.19.4-.33.64-.43s.49-.15.75-.15.51.05.75.15.45.24.64.43c.18.18.33.4.43.64s.15.49.15.75Z"/>
      <path class="cls-4" d="M12.38,62.72c0,.26-.05.51-.15.75s-.24.45-.43.64-.4.33-.64.43-.49.15-.75.15-.51-.05-.75-.15-.45-.24-.64-.43-.33-.4-.43-.64-.15-.49-.15-.75.05-.51.15-.75.24-.45.43-.64.4-.33.64-.43.49-.15.75-.15.51.05.75.15.45.24.64.43.33.4.43.64.15.49.15.75Z"/>
      <path class="cls-2" d="M41.78,35.28v23.52c6.49,0,11.76-5.27,11.76-11.76s-5.27-11.76-11.76-11.76Z"/>
      <g>
        <g class="cls-1">
          <path class="cls-2" d="M26.1,106.12c-10.52,0-19.55,6.34-23.52,15.4h47.04c-3.96-9.06-12.99-15.4-23.52-15.4Z"/>
        </g>
        <rect class="cls-3" x=".5" y="103.29" width="52" height="20.6"/>
      </g>
      <path class="cls-2" d="M45.58,70.56h4.04v4.05c0,10.74-8.73,19.47-19.47,19.47h-4.05v-4.04c0-10.75,8.73-19.48,19.48-19.48Z"/>
      <path class="cls-2" d="M26.1,94.08h-4.04c-10.74,0-19.47-8.73-19.47-19.47v-4.05h4.04c10.75,0,19.47,8.73,19.47,19.48v4.04Z"/>
      <path class="cls-2" d="M26.1,94.08l-11.76-11.76"/>
      <path class="cls-2" d="M26.1,94.08l11.76-11.76"/>
      <path class="cls-2" d="M71.44,40.94l-18.7,1.87"/>
      <path class="cls-2" d="M53.28,49.51l32.11,9.18"/>
    </g>
  </g>
</svg>