<?xml version="1.0" encoding="UTF-8"?>
<svg id="Layer_2" data-name="Layer 2" xmlns="http://www.w3.org/2000/svg" xmlns:xlink="http://www.w3.org/1999/xlink" viewBox="0 0 141.24 115.92">
  <defs>
    <style>
      .cls-1 {
        fill: #609d9f;
      }

      .cls-1, .cls-2 {
        stroke-width: 0px;
      }

      .cls-3 {
        clip-path: url(#clippath);
      }

      .cls-2 {
        fill: none;
      }
    </style>
    <clipPath id="clippath">
      <rect class="cls-2" width="141.24" height="115.92"/>
    </clipPath>
  </defs>
  <g id="Layer_1-2" data-name="Layer 1">
    <g>
      <g class="cls-3">
        <path class="cls-1" d="M137.78,16.45c-12.32-.89-22.75,8.23-25.06,20.07l-2.84-.24c.43-10.1-7.65-18.65-17.68-18.93C87.13,6.95,76.58.32,64.88.32c-10.71,0-20.54,5.59-26.04,14.7-9.02-.97-17.62,4.79-20.41,13.23-.19,0-10.8-.98-10.54-.9-9.51.29-9.67,14.1-.15,14.63l4.7,39.05c.48,4.1,3.56,7.41,7.47,8.31-.7,13.74,10.55,25.38,24.28,25.34,12.28,0,22.43-9.15,24.07-20.98l3.01.27,9.37,16.84c2.68,5.19,10.85,4.81,13.04-.58l6.25-14.02c.05-.1,18.35-61.37,18.35-61.37,2.41-8.4,10.42-14.09,19.2-13.55,3.15.19,3.51-4.61.29-4.84ZM36.9,19.79c1.74-.11,4.34,1.15,5.39-.98,4.45-8.4,13.11-13.62,22.59-13.62,10.3,0,19.54,6.12,23.53,15.59.41.96,1.41,1.56,2.45,1.48,7.72-.56,14.37,5.86,14.16,13.58l-81.54-7.15c2.26-5.29,7.52-8.91,13.42-8.91ZM5.48,34.46c.09-1.25,1.16-2.22,2.63-2.21l103.18,9.05-1.41,4.74L7.67,37.06c-1.31-.1-2.31-1.29-2.19-2.6ZM17.26,80.45l-4.57-38.03c22.37,1.93,72.96,6.4,95.75,8.42l-3.82,12.78-8.39,27.65-27.77-2.44c-.8-12.7-11.36-22.79-24.26-22.79-11.39,0-20.95,7.88-23.59,18.46-1.77-.57-3.1-2.11-3.35-4.04ZM44.2,109.82c-10.73,0-19.47-8.73-19.47-19.46s8.73-19.47,19.47-19.47,19.46,8.73,19.46,19.47-8.73,19.46-19.46,19.46ZM89.26,108.24c-.74,1.84-3.46,1.94-4.35.19l-7.79-13.94,17.59,1.53-5.45,12.22Z"/>
      </g>
      <path class="cls-1" d="M44.2,78.19c-6.71,0-12.17,5.46-12.17,12.17s5.46,12.17,12.17,12.17,12.17-5.46,12.17-12.17-5.46-12.17-12.17-12.17ZM44.2,97.65c-4.03,0-7.3-3.27-7.3-7.3s3.28-7.3,7.3-7.3,7.3,3.28,7.3,7.3-3.27,7.3-7.3,7.3Z"/>
      <path class="cls-1" d="M12.56,19.79c4.03,0,7.3-3.28,7.3-7.3s-3.28-7.3-7.3-7.3-7.3,3.28-7.3,7.3,3.27,7.3,7.3,7.3ZM12.56,10.05c3.18.02,3.18,4.85,0,4.87-3.18-.02-3.18-4.85,0-4.87Z"/>
    </g>
  </g>
</svg>